<svg width="619" height="132" viewBox="0 0 619 132" fill="none" xmlns="http://www.w3.org/2000/svg">
<g filter="url(#filter0_d_21_4024)">
<path d="M28.4297 66.5137L27.5416 66.9733L28.5 68.825L29.3441 66.9185L28.4297 66.5137ZM18.8291 47.9639L19.7172 47.5042L19.4375 46.9639H18.8291V47.9639ZM6 47.9639V46.9639H5V47.9639H6ZM6 89H5V90H6V89ZM17.4131 89V90H18.4131V89H17.4131ZM17.4131 70.9883L18.264 70.4629L16.4131 67.4654V70.9883H17.4131ZM28.4297 88.8301L27.5788 89.3555L28.4286 90.7317L29.28 89.3564L28.4297 88.8301ZM39.4746 70.9883H40.4746V67.473L38.6243 70.4619L39.4746 70.9883ZM39.4746 89H38.4746V90H39.4746V89ZM50.8877 89V90H51.8877V89H50.8877ZM50.8877 47.9639H51.8877V46.9639H50.8877V47.9639ZM36.6426 47.9639V46.9639H35.9917L35.7282 47.559L36.6426 47.9639ZM29.3178 66.054L19.7172 47.5042L17.941 48.4235L27.5416 66.9733L29.3178 66.054ZM18.8291 46.9639H6V48.9639H18.8291V46.9639ZM5 47.9639V89H7V47.9639H5ZM6 90H17.4131V88H6V90ZM18.4131 89V70.9883H16.4131V89H18.4131ZM16.5622 71.5137L27.5788 89.3555L29.2806 88.3047L18.264 70.4629L16.5622 71.5137ZM29.28 89.3564L40.3249 71.5146L38.6243 70.4619L27.5794 88.3037L29.28 89.3564ZM38.4746 70.9883V89H40.4746V70.9883H38.4746ZM39.4746 90H50.8877V88H39.4746V90ZM51.8877 89V47.9639H49.8877V89H51.8877ZM50.8877 46.9639H36.6426V48.9639H50.8877V46.9639ZM35.7282 47.559L27.5153 66.1088L29.3441 66.9185L37.557 48.3687L35.7282 47.559ZM74.0254 62.0107L73.1674 62.5245L74.0239 63.9549L74.8826 62.5257L74.0254 62.0107ZM65.6143 47.9639L66.4722 47.4501L66.181 46.9639H65.6143V47.9639ZM52.332 47.9639V46.9639H50.5662L51.4745 48.4782L52.332 47.9639ZM67.3984 73.084L68.26 72.5763L68.256 72.5696L67.3984 73.084ZM68.333 74.6699H69.333V74.3972L69.1945 74.1622L68.333 74.6699ZM68.333 89H67.333V90H68.333V89ZM79.7461 89V90H80.7461V89H79.7461ZM79.7461 74.6699L78.8846 74.1622L78.7461 74.3972V74.6699H79.7461ZM80.6807 73.084L79.8231 72.5696L79.8191 72.5763L80.6807 73.084ZM95.7471 47.9639L96.6046 48.4782L97.5129 46.9639H95.7471V47.9639ZM82.4648 47.9639V46.9639H81.899L81.6077 47.4489L82.4648 47.9639ZM74.8833 61.497L66.4722 47.4501L64.7563 48.4776L73.1674 62.5245L74.8833 61.497ZM65.6143 46.9639H52.332V48.9639H65.6143V46.9639ZM51.4745 48.4782L66.5409 73.5983L68.256 72.5696L53.1896 47.4495L51.4745 48.4782ZM66.5369 73.5917L67.4715 75.1776L69.1945 74.1622L68.26 72.5763L66.5369 73.5917ZM67.333 74.6699V89H69.333V74.6699H67.333ZM68.333 90H79.7461V88H68.333V90ZM80.7461 89V74.6699H78.7461V89H80.7461ZM80.6076 75.1776L81.5422 73.5917L79.8191 72.5763L78.8846 74.1622L80.6076 75.1776ZM81.5382 73.5983L96.6046 48.4782L94.8895 47.4495L79.8231 72.5696L81.5382 73.5983ZM95.7471 46.9639H82.4648V48.9639H95.7471V46.9639ZM81.6077 47.4489L73.1682 61.4957L74.8826 62.5257L83.322 48.4789L81.6077 47.4489ZM140.295 63.0869L139.32 63.3096L141.269 63.3114L140.295 63.0869ZM136.84 47.9639L137.815 47.7411L137.637 46.9639H136.84V47.9639ZM126.758 47.9639V46.9639H125.962L125.783 47.7394L126.758 47.9639ZM123.274 63.0869L122.3 63.3096L124.249 63.3114L123.274 63.0869ZM119.819 47.9639L120.794 47.7411L120.617 46.9639H119.819V47.9639ZM107.557 47.9639V46.9639H106.302L106.582 48.1872L107.557 47.9639ZM116.959 89L115.984 89.2233L116.162 90H116.959V89ZM128.174 89V90H128.959L129.145 89.2375L128.174 89ZM131.912 73.707L132.903 73.5731L130.941 73.4696L131.912 73.707ZM133.979 89L132.989 89.134L133.106 90H133.979V89ZM146.61 89V90H147.396L147.582 89.2367L146.61 89ZM156.607 47.9639L157.579 48.2006L157.88 46.9639H156.607V47.9639ZM143.778 47.9639V46.9639H142.982L142.804 47.7394L143.778 47.9639ZM141.27 62.8642L137.815 47.7411L135.865 48.1866L139.32 63.3096L141.27 62.8642ZM136.84 46.9639H126.758V48.9639H136.84V46.9639ZM125.783 47.7394L122.3 62.8625L124.249 63.3114L127.732 48.1883L125.783 47.7394ZM124.249 62.8642L120.794 47.7411L118.844 48.1866L122.3 63.3096L124.249 62.8642ZM119.819 46.9639H107.557V48.9639H119.819V46.9639ZM106.582 48.1872L115.984 89.2233L117.934 88.7767L108.531 47.7405L106.582 48.1872ZM116.959 90H128.174V88H116.959V90ZM129.145 89.2375L132.884 73.9445L130.941 73.4696L127.202 88.7625L129.145 89.2375ZM130.921 73.841L132.989 89.134L134.97 88.866L132.903 73.5731L130.921 73.841ZM133.979 90H146.61V88H133.979V90ZM147.582 89.2367L157.579 48.2006L155.636 47.7272L145.639 88.7633L147.582 89.2367ZM156.607 46.9639H143.778V48.9639H156.607V46.9639ZM142.804 47.7394L139.32 62.8625L141.269 63.3114L144.753 48.1883L142.804 47.7394ZM168.417 74.9248L169.124 74.2177L169.12 74.214L168.417 74.9248ZM168.36 62.0107L167.653 61.3036L167.649 61.3074L168.36 62.0107ZM184.503 62.0107L185.214 61.3074L185.21 61.3036L184.503 62.0107ZM184.446 74.9248L183.743 74.214L183.739 74.2177L184.446 74.9248ZM174.874 76.5869C172.607 76.5869 170.71 75.8032 169.124 74.2177L167.71 75.6319C169.674 77.5959 172.081 78.5869 174.874 78.5869V76.5869ZM169.12 74.214C167.517 72.6276 166.727 70.7315 166.727 68.4678H164.727C164.727 71.264 165.73 73.6725 167.714 75.6356L169.12 74.214ZM166.727 68.4678C166.727 66.1972 167.503 64.2988 169.071 62.7141L167.649 61.3074C165.706 63.2722 164.727 65.6784 164.727 68.4678H166.727ZM169.067 62.7178C170.65 61.1354 172.565 60.3486 174.874 60.3486V58.3486C172.048 58.3486 169.62 59.3366 167.653 61.3036L169.067 62.7178ZM174.874 60.3486H177.989V58.3486H174.874V60.3486ZM177.989 60.3486C180.299 60.3486 182.213 61.1354 183.796 62.7178L185.21 61.3036C183.243 59.3366 180.815 58.3486 177.989 58.3486V60.3486ZM183.792 62.7141C185.36 64.2988 186.137 66.1972 186.137 68.4678H188.137C188.137 65.6784 187.158 63.2722 185.214 61.3074L183.792 62.7141ZM186.137 68.4678C186.137 70.7315 185.346 72.6276 183.743 74.214L185.15 75.6356C187.134 73.6725 188.137 71.264 188.137 68.4678H186.137ZM183.739 74.2177C182.154 75.8032 180.256 76.5869 177.989 76.5869V78.5869C180.782 78.5869 183.189 77.5959 185.153 75.6319L183.739 74.2177ZM177.989 76.5869H174.874V78.5869H177.989V76.5869ZM174.874 46.9639C168.927 46.9639 163.83 49.0697 159.639 53.2607L161.053 54.6749C164.867 50.8606 169.455 48.9639 174.874 48.9639V46.9639ZM159.639 53.2607C155.448 57.4509 153.342 62.5387 153.342 68.4678H155.342C155.342 63.0687 157.238 58.4898 161.053 54.6749L159.639 53.2607ZM153.342 68.4678C153.342 74.4147 155.448 79.5122 159.639 83.7032L161.053 82.289C157.239 78.4748 155.342 73.8867 155.342 68.4678H153.342ZM159.639 83.7032C163.83 87.8942 168.927 90 174.874 90V88C169.455 88 164.867 86.1032 161.053 82.289L159.639 83.7032ZM174.874 90H177.989V88H174.874V90ZM177.989 90C183.936 90 189.034 87.8942 193.225 83.7032L191.81 82.289C187.996 86.1032 183.408 88 177.989 88V90ZM193.225 83.7032C197.416 79.5122 199.521 74.4147 199.521 68.4678H197.521C197.521 73.8867 195.625 78.4748 191.81 82.289L193.225 83.7032ZM199.521 68.4678C199.521 62.5387 197.415 57.4509 193.225 53.2607L191.81 54.6749C195.625 58.4898 197.521 63.0687 197.521 68.4678H199.521ZM193.225 53.2607C189.034 49.0697 183.936 46.9639 177.989 46.9639V48.9639C183.408 48.9639 187.996 50.8606 191.81 54.6749L193.225 53.2607ZM177.989 46.9639H174.874V48.9639H177.989V46.9639ZM230.014 52.4951L229.302 53.1977L229.304 53.2L230.014 52.4951ZM219.309 47.9639L219.318 46.9639H219.309V47.9639ZM199.938 47.9639V46.9639H198.938V47.9639H199.938ZM199.938 89H198.938V90H199.938V89ZM211.351 89V90H212.351V89H211.351ZM211.351 81.665L212.127 81.0344L210.351 78.8485V81.665H211.351ZM212.115 82.543L212.848 81.862L212.846 81.8606L212.115 82.543ZM233.582 89V90H234.582V89H233.582ZM233.582 77.5869H234.582V76.5869H233.582V77.5869ZM225.397 77.1621L224.989 76.2494L222.143 77.5229L225.199 78.1422L225.397 77.1621ZM231.911 71.6396L232.744 72.1929L232.746 72.1901L231.911 71.6396ZM211.351 66.627H210.351V67.627H211.351V66.627ZM211.351 61.0195V60.0195H210.351V61.0195H211.351ZM235.432 63.2285C235.432 58.7739 233.855 54.9425 230.723 51.7903L229.304 53.2C232.063 55.9762 233.432 59.3003 233.432 63.2285H235.432ZM230.725 51.7925C227.594 48.6214 223.773 47.004 219.318 46.9639L219.3 48.9638C223.227 48.9992 226.542 50.4027 229.302 53.1977L230.725 51.7925ZM219.309 46.9639H199.938V48.9639H219.309V46.9639ZM198.938 47.9639V89H200.938V47.9639H198.938ZM199.938 90H211.351V88H199.938V90ZM212.351 89V81.665H210.351V89H212.351ZM210.574 82.2956C210.834 82.6154 211.104 82.9253 211.384 83.2253L212.846 81.8606C212.598 81.5942 212.358 81.3189 212.127 81.0344L210.574 82.2956ZM211.383 83.2239C215.636 87.798 221.958 90 230.155 90V88C222.304 88 216.6 85.8973 212.848 81.862L211.383 83.2239ZM230.155 90H233.582V88H230.155V90ZM234.582 89V77.5869H232.582V89H234.582ZM233.582 76.5869H230.155V78.5869H233.582V76.5869ZM230.155 76.5869C228.432 76.5869 226.914 76.4492 225.596 76.182L225.199 78.1422C226.675 78.4414 228.329 78.5869 230.155 78.5869V76.5869ZM225.806 78.0749C228.679 76.7889 230.997 74.8231 232.744 72.1929L231.078 71.0864C229.54 73.4028 227.515 75.1186 224.989 76.2494L225.806 78.0749ZM232.746 72.1901C234.534 69.4775 235.432 66.4824 235.432 63.2285H233.432C233.432 66.0918 232.649 68.7041 231.076 71.0892L232.746 72.1901ZM212.351 66.627V61.0195H210.351V66.627H212.351ZM211.351 62.0195H218.289V60.0195H211.351V62.0195ZM218.289 62.0195C218.798 62.0195 219.204 62.1879 219.564 62.5479L220.979 61.1337C220.244 60.3987 219.328 60.0195 218.289 60.0195V62.0195ZM219.564 62.5479C219.924 62.908 220.093 63.3145 220.093 63.8232H222.093C222.093 62.7838 221.714 61.8687 220.979 61.1337L219.564 62.5479ZM220.093 63.8232C220.093 64.332 219.924 64.7385 219.564 65.0986L220.979 66.5128C221.714 65.7778 222.093 64.8626 222.093 63.8232H220.093ZM219.564 65.0986C219.204 65.4586 218.798 65.627 218.289 65.627V67.627C219.328 67.627 220.244 67.2478 220.979 66.5128L219.564 65.0986ZM218.289 65.627H211.351V67.627H218.289V65.627ZM259.07 47.9639V46.9639H258.565L258.265 47.3707L259.07 47.9639ZM247.261 63.9932H246.261V67.0364L248.066 64.5863L247.261 63.9932ZM247.261 47.9639H248.261V46.9639H247.261V47.9639ZM235.848 47.9639V46.9639H234.848V47.9639H235.848ZM235.848 89H234.848V90H235.848V89ZM247.261 89V90H248.261V89H247.261ZM247.261 78.5498L248.131 78.0577L246.261 74.7483V78.5498H247.261ZM248.932 81.0137L249.724 80.404L249.718 80.3952L249.711 80.3867L248.932 81.0137ZM250.121 82.4297L249.384 83.1054L249.39 83.1125L249.397 83.1194L250.121 82.4297ZM273.825 89V90H274.825V89H273.825ZM273.825 77.5869H274.825V76.5869H273.825V77.5869ZM258.447 74.6133L257.726 75.3055L257.73 75.3101L258.447 74.6133ZM256.352 71.1582L255.553 70.5565L255.224 70.9928L255.414 71.5051L256.352 71.1582ZM273.825 47.9639L274.624 48.5656L275.831 46.9639H273.825V47.9639ZM258.265 47.3707L246.456 63.4L248.066 64.5863L259.875 48.557L258.265 47.3707ZM248.261 63.9932V47.9639H246.261V63.9932H248.261ZM247.261 46.9639H235.848V48.9639H247.261V46.9639ZM234.848 47.9639V89H236.848V47.9639H234.848ZM235.848 90H247.261V88H235.848V90ZM248.261 89V78.5498H246.261V89H248.261ZM246.39 79.0419C246.908 79.9576 247.495 80.824 248.153 81.6407L249.711 80.3867C249.122 79.6552 248.596 78.879 248.131 78.0577L246.39 79.0419ZM248.139 81.6234C248.534 82.1369 248.949 82.6309 249.384 83.1054L250.858 81.754C250.462 81.3222 250.084 80.8722 249.724 80.404L248.139 81.6234ZM249.397 83.1194C253.797 87.7381 259.821 90 267.34 90V88C260.246 88 254.791 85.8817 250.845 81.74L249.397 83.1194ZM267.34 90H273.825V88H267.34V90ZM274.825 89V77.5869H272.825V89H274.825ZM273.825 76.5869H267.34V78.5869H273.825V76.5869ZM267.34 76.5869C263.486 76.5869 260.831 75.6323 259.165 73.9165L257.73 75.3101C259.915 77.5591 263.189 78.5869 267.34 78.5869V76.5869ZM259.169 73.9211C258.39 73.1084 257.759 72.0796 257.289 70.8113L255.414 71.5051C255.964 72.9933 256.73 74.2679 257.726 75.3055L259.169 73.9211ZM257.15 71.7599L274.624 48.5656L273.026 47.3622L255.553 70.5565L257.15 71.7599ZM273.825 46.9639H259.07V48.9639H273.825V46.9639ZM285.635 47.9639V46.9639H284.635V47.9639H285.635ZM285.635 89H284.635V90H285.635V89ZM315.371 89V90H316.371V89H315.371ZM315.371 77.5869H316.371V76.5869H315.371V77.5869ZM297.048 77.5869H296.048V78.5869H297.048V77.5869ZM297.048 74.1885V73.1885H296.048V74.1885H297.048ZM315.371 74.1885V75.1885H316.371V74.1885H315.371ZM315.371 62.7754H316.371V61.7754H315.371V62.7754ZM297.048 62.7754H296.048V63.7754H297.048V62.7754ZM297.048 59.3486V58.3486H296.048V59.3486H297.048ZM315.371 59.3486V60.3486H316.371V59.3486H315.371ZM315.371 47.9639H316.371V46.9639H315.371V47.9639ZM284.635 47.9639V89H286.635V47.9639H284.635ZM285.635 90H315.371V88H285.635V90ZM316.371 89V77.5869H314.371V89H316.371ZM315.371 76.5869H297.048V78.5869H315.371V76.5869ZM298.048 77.5869V74.1885H296.048V77.5869H298.048ZM297.048 75.1885H315.371V73.1885H297.048V75.1885ZM316.371 74.1885V62.7754H314.371V74.1885H316.371ZM315.371 61.7754H297.048V63.7754H315.371V61.7754ZM298.048 62.7754V59.3486H296.048V62.7754H298.048ZM297.048 60.3486H315.371V58.3486H297.048V60.3486ZM316.371 59.3486V47.9639H314.371V59.3486H316.371ZM315.371 46.9639H285.635V48.9639H315.371V46.9639ZM356.747 47.9639L357.595 48.4939L358.551 46.9639H356.747V47.9639ZM342.304 47.9639V46.9639H341.747L341.453 47.4375L342.304 47.9639ZM336.781 56.8848L335.932 57.4131L336.783 58.7811L337.632 57.4111L336.781 56.8848ZM331.23 47.9639L332.08 47.4356L331.786 46.9639H331.23V47.9639ZM316.787 47.9639V46.9639H314.983L315.939 48.4939L316.787 47.9639ZM316.929 48.1904L317.777 47.6617L317.777 47.6604L316.929 48.1904ZM329.56 68.4678L330.409 68.996L330.737 68.4674L330.408 67.9391L329.56 68.4678ZM316.929 88.7734L317.777 89.3034L317.778 89.3016L316.929 88.7734ZM316.787 89L315.939 88.47L314.983 90H316.787V89ZM331.23 89V90H331.786L332.08 89.5283L331.23 89ZM336.781 80.0791L337.632 79.5527L336.783 78.1828L335.932 79.5508L336.781 80.0791ZM342.304 89L341.453 89.5264L341.747 90H342.304V89ZM356.747 89V90H358.551L357.595 88.47L356.747 89ZM356.605 88.7734L355.756 89.3016L355.757 89.3034L356.605 88.7734ZM343.975 68.4678L343.126 67.9391L342.797 68.4674L343.125 68.996L343.975 68.4678ZM356.605 48.1904L355.757 47.6604L355.757 47.6617L356.605 48.1904ZM356.747 46.9639H342.304V48.9639H356.747V46.9639ZM341.453 47.4375L335.931 56.3584L337.632 57.4111L343.154 48.4902L341.453 47.4375ZM337.63 56.3565L332.08 47.4356L330.381 48.4922L335.932 57.4131L337.63 56.3565ZM331.23 46.9639H316.787V48.9639H331.23V46.9639ZM315.939 48.4939L316.081 48.7204L317.777 47.6604L317.635 47.4339L315.939 48.4939ZM316.08 48.7191L328.711 68.9965L330.408 67.9391L317.777 47.6617L316.08 48.7191ZM328.71 67.9396L316.08 88.2453L317.778 89.3016L330.409 68.996L328.71 67.9396ZM316.081 88.2434L315.939 88.47L317.635 89.53L317.777 89.3034L316.081 88.2434ZM316.787 90H331.23V88H316.787V90ZM332.08 89.5283L337.63 80.6074L335.932 79.5508L330.381 88.4717L332.08 89.5283ZM335.931 80.6055L341.453 89.5264L343.154 88.4736L337.632 79.5527L335.931 80.6055ZM342.304 90H356.747V88H342.304V90ZM357.595 88.47L357.453 88.2434L355.757 89.3034L355.899 89.53L357.595 88.47ZM357.455 88.2453L344.824 67.9396L343.125 68.996L355.756 89.3016L357.455 88.2453ZM344.823 68.9965L357.454 48.7191L355.757 47.6617L343.126 67.9391L344.823 68.9965ZM357.453 48.7204L357.595 48.4939L355.899 47.4339L355.757 47.6604L357.453 48.7204ZM358.191 47.9639V46.9639H357.191V47.9639H358.191ZM358.191 89H357.191V90H358.191V89ZM369.604 89V90H370.604V89H369.604ZM369.604 78.4932V77.4932H368.604V78.4932H369.604ZM377.562 78.4932V79.4932L377.572 79.4931L377.562 78.4932ZM388.268 73.9902L388.977 74.6951L388.979 74.6928L388.268 73.9902ZM388.268 52.4951L387.556 53.1977L387.558 53.2L388.268 52.4951ZM377.562 47.9639L377.572 46.9639H377.562V47.9639ZM369.604 66.627H368.604V67.627H369.604V66.627ZM369.604 61.0195V60.0195H368.604V61.0195H369.604ZM357.191 47.9639V89H359.191V47.9639H357.191ZM358.191 90H369.604V88H358.191V90ZM370.604 89V78.4932H368.604V89H370.604ZM369.604 79.4932H377.562V77.4932H369.604V79.4932ZM377.572 79.4931C382.025 79.453 385.845 77.8466 388.977 74.6951L387.558 73.2854C384.799 76.0622 381.483 77.4578 377.553 77.4932L377.572 79.4931ZM388.979 74.6928C392.109 71.5226 393.686 67.683 393.686 63.2285H391.686C391.686 67.1569 390.317 70.4917 387.556 73.2876L388.979 74.6928ZM393.686 63.2285C393.686 58.7739 392.109 54.9425 388.977 51.7903L387.558 53.2C390.317 55.9762 391.686 59.3003 391.686 63.2285H393.686ZM388.979 51.7925C385.848 48.6214 382.027 47.004 377.572 46.9639L377.553 48.9638C381.481 48.9992 384.796 50.4027 387.556 53.1977L388.979 51.7925ZM377.562 46.9639H358.191V48.9639H377.562V46.9639ZM370.604 66.627V61.0195H368.604V66.627H370.604ZM369.604 62.0195H376.543V60.0195H369.604V62.0195ZM376.543 62.0195C377.052 62.0195 377.458 62.1879 377.818 62.5479L379.232 61.1337C378.497 60.3987 377.582 60.0195 376.543 60.0195V62.0195ZM377.818 62.5479C378.178 62.908 378.347 63.3145 378.347 63.8232H380.347C380.347 62.7838 379.967 61.8687 379.232 61.1337L377.818 62.5479ZM378.347 63.8232C378.347 64.332 378.178 64.7385 377.818 65.0986L379.232 66.5128C379.967 65.7778 380.347 64.8626 380.347 63.8232H378.347ZM377.818 65.0986C377.458 65.4586 377.052 65.627 376.543 65.627V67.627C377.582 67.627 378.497 67.2478 379.232 66.5128L377.818 65.0986ZM376.543 65.627H369.604V67.627H376.543V65.627ZM394.102 47.9639V46.9639H393.102V47.9639H394.102ZM394.102 89H393.102V90H394.102V89ZM423.838 89V90H424.838V89H423.838ZM423.838 77.5869H424.838V76.5869H423.838V77.5869ZM405.515 77.5869H404.515V78.5869H405.515V77.5869ZM405.515 74.1885V73.1885H404.515V74.1885H405.515ZM423.838 74.1885V75.1885H424.838V74.1885H423.838ZM423.838 62.7754H424.838V61.7754H423.838V62.7754ZM405.515 62.7754H404.515V63.7754H405.515V62.7754ZM405.515 59.3486V58.3486H404.515V59.3486H405.515ZM423.838 59.3486V60.3486H424.838V59.3486H423.838ZM423.838 47.9639H424.838V46.9639H423.838V47.9639ZM393.102 47.9639V89H395.102V47.9639H393.102ZM394.102 90H423.838V88H394.102V90ZM424.838 89V77.5869H422.838V89H424.838ZM423.838 76.5869H405.515V78.5869H423.838V76.5869ZM406.515 77.5869V74.1885H404.515V77.5869H406.515ZM405.515 75.1885H423.838V73.1885H405.515V75.1885ZM424.838 74.1885V62.7754H422.838V74.1885H424.838ZM423.838 61.7754H405.515V63.7754H423.838V61.7754ZM406.515 62.7754V59.3486H404.515V62.7754H406.515ZM405.515 60.3486H423.838V58.3486H405.515V60.3486ZM424.838 59.3486V47.9639H422.838V59.3486H424.838ZM423.838 46.9639H394.102V48.9639H423.838V46.9639ZM436.667 66.627H435.667V67.627H436.667V66.627ZM436.667 61.0195V60.0195H435.667V61.0195H436.667ZM472.634 89V90H473.634V89H472.634ZM472.634 47.9639H473.634V46.9639H472.634V47.9639ZM461.221 47.9639V46.9639H460.221V47.9639H461.221ZM461.221 77.5869V78.5869H462.221V77.5869H461.221ZM450.714 77.5869L450.23 76.7116L450.714 78.5869V77.5869ZM457.228 71.6396L458.061 72.1929L458.062 72.1901L457.228 71.6396ZM455.33 52.4951L454.618 53.1977L454.621 53.2L455.33 52.4951ZM444.625 47.9639L444.634 46.9639H444.625V47.9639ZM425.254 47.9639V46.9639H424.254V47.9639H425.254ZM425.254 89H424.254V90H425.254V89ZM436.667 89V90H437.667V89H436.667ZM436.667 81.665L437.402 80.9869L435.667 79.1068V81.665H436.667ZM443.436 89L442.701 89.6782L442.998 90H443.436V89ZM437.667 66.627V61.0195H435.667V66.627H437.667ZM436.667 62.0195H443.605V60.0195H436.667V62.0195ZM443.605 62.0195C444.114 62.0195 444.521 62.1879 444.881 62.5479L446.295 61.1337C445.56 60.3987 444.645 60.0195 443.605 60.0195V62.0195ZM444.881 62.5479C445.241 62.908 445.409 63.3145 445.409 63.8232H447.409C447.409 62.7838 447.03 61.8687 446.295 61.1337L444.881 62.5479ZM445.409 63.8232C445.409 64.332 445.241 64.7385 444.881 65.0986L446.295 66.5128C447.03 65.7778 447.409 64.8626 447.409 63.8232H445.409ZM444.881 65.0986C444.521 65.4586 444.114 65.627 443.605 65.627V67.627C444.645 67.627 445.56 67.2478 446.295 66.5128L444.881 65.0986ZM443.605 65.627H436.667V67.627H443.605V65.627ZM473.634 89V47.9639H471.634V89H473.634ZM472.634 46.9639H461.221V48.9639H472.634V46.9639ZM460.221 47.9639V77.5869H462.221V47.9639H460.221ZM461.221 76.5869H450.714V78.5869H461.221V76.5869ZM451.197 78.4622C454.032 76.8961 456.326 74.8054 458.061 72.1929L456.395 71.0864C454.844 73.4206 452.795 75.2947 450.23 76.7116L451.197 78.4622ZM458.062 72.1901C459.851 69.4775 460.748 66.4824 460.748 63.2285H458.748C458.748 66.0918 457.965 68.7041 456.393 71.0892L458.062 72.1901ZM460.748 63.2285C460.748 58.7739 459.172 54.9425 456.039 51.7903L454.621 53.2C457.379 55.9762 458.748 59.3003 458.748 63.2285H460.748ZM456.042 51.7925C452.911 48.6214 449.09 47.004 444.634 46.9639L444.616 48.9638C448.543 48.9992 451.859 50.4027 454.618 53.1977L456.042 51.7925ZM444.625 46.9639H425.254V48.9639H444.625V46.9639ZM424.254 47.9639V89H426.254V47.9639H424.254ZM425.254 90H436.667V88H425.254V90ZM437.667 89V81.665H435.667V89H437.667ZM435.932 82.3432L442.701 89.6782L444.17 88.3218L437.402 80.9869L435.932 82.3432ZM443.436 90H472.634V88H443.436V90ZM474.475 47.9639V46.9639H473.475V47.9639H474.475ZM474.475 89H473.475V90H474.475V89ZM504.211 89V90H505.211V89H504.211ZM504.211 77.5869H505.211V76.5869H504.211V77.5869ZM485.888 77.5869H484.888V78.5869H485.888V77.5869ZM485.888 74.1885V73.1885H484.888V74.1885H485.888ZM504.211 74.1885V75.1885H505.211V74.1885H504.211ZM504.211 62.7754H505.211V61.7754H504.211V62.7754ZM485.888 62.7754H484.888V63.7754H485.888V62.7754ZM485.888 59.3486V58.3486H484.888V59.3486H485.888ZM504.211 59.3486V60.3486H505.211V59.3486H504.211ZM504.211 47.9639H505.211V46.9639H504.211V47.9639ZM473.475 47.9639V89H475.475V47.9639H473.475ZM474.475 90H504.211V88H474.475V90ZM505.211 89V77.5869H503.211V89H505.211ZM504.211 76.5869H485.888V78.5869H504.211V76.5869ZM486.888 77.5869V74.1885H484.888V77.5869H486.888ZM485.888 75.1885H504.211V73.1885H485.888V75.1885ZM505.211 74.1885V62.7754H503.211V74.1885H505.211ZM504.211 61.7754H485.888V63.7754H504.211V61.7754ZM486.888 62.7754V59.3486H484.888V62.7754H486.888ZM485.888 60.3486H504.211V58.3486H485.888V60.3486ZM505.211 59.3486V47.9639H503.211V59.3486H505.211ZM504.211 46.9639H474.475V48.9639H504.211V46.9639ZM532.191 69.2891L531.377 69.8697L533.191 72.4136V69.2891H532.191ZM516.983 47.9639L517.798 47.3832L517.499 46.9639H516.983V47.9639ZM505.627 47.9639V46.9639H504.627V47.9639H505.627ZM505.627 89H504.627V90H505.627V89ZM517.04 89V90H518.04V89H517.04ZM517.04 67.6465L517.856 67.0678L516.04 64.5091V67.6465H517.04ZM532.191 89L531.376 89.5787L531.675 90H532.191V89ZM543.604 89V90H544.604V89H543.604ZM543.604 47.9639H544.604V46.9639H543.604V47.9639ZM532.191 47.9639V46.9639H531.191V47.9639H532.191ZM533.006 68.7084L517.798 47.3832L516.169 48.5445L531.377 69.8697L533.006 68.7084ZM516.983 46.9639H505.627V48.9639H516.983V46.9639ZM504.627 47.9639V89H506.627V47.9639H504.627ZM505.627 90H517.04V88H505.627V90ZM518.04 89V67.6465H516.04V89H518.04ZM516.224 68.2252L531.376 89.5787L533.007 88.4213L517.856 67.0678L516.224 68.2252ZM532.191 90H543.604V88H532.191V90ZM544.604 89V47.9639H542.604V89H544.604ZM543.604 46.9639H532.191V48.9639H543.604V46.9639ZM531.191 47.9639V69.2891H533.191V47.9639H531.191ZM581.525 47.9639H582.525V46.9639H581.525V47.9639ZM581.525 89V90H582.525V89H581.525ZM581.525 77.5869H582.525V76.5869H581.525V77.5869ZM559.124 74.9248L559.831 74.2177L559.827 74.214L559.124 74.9248ZM559.067 62.0107L558.36 61.3036L558.357 61.3074L559.067 62.0107ZM581.525 59.3486V60.3486H582.525V59.3486H581.525ZM581.525 46.9639H565.581V48.9639H581.525V46.9639ZM565.581 46.9639C559.634 46.9639 554.537 49.0697 550.346 53.2607L551.76 54.6749C555.574 50.8606 560.162 48.9639 565.581 48.9639V46.9639ZM550.346 53.2607C546.155 57.4509 544.049 62.5387 544.049 68.4678H546.049C546.049 63.0687 547.945 58.4898 551.76 54.6749L550.346 53.2607ZM544.049 68.4678C544.049 74.4147 546.155 79.5122 550.346 83.7032L551.76 82.289C547.946 78.4748 546.049 73.8867 546.049 68.4678H544.049ZM550.346 83.7032C554.537 87.8942 559.634 90 565.581 90V88C560.162 88 555.574 86.1032 551.76 82.289L550.346 83.7032ZM565.581 90H581.525V88H565.581V90ZM582.525 89V77.5869H580.525V89H582.525ZM581.525 76.5869H565.581V78.5869H581.525V76.5869ZM565.581 76.5869C563.314 76.5869 561.417 75.8032 559.831 74.2177L558.417 75.6319C560.381 77.5959 562.788 78.5869 565.581 78.5869V76.5869ZM559.827 74.214C558.224 72.6276 557.434 70.7315 557.434 68.4678H555.434C555.434 71.264 556.437 73.6725 558.421 75.6356L559.827 74.214ZM557.434 68.4678C557.434 66.1972 558.21 64.2988 559.778 62.7141L558.357 61.3074C556.413 63.2722 555.434 65.6784 555.434 68.4678H557.434ZM559.774 62.7178C561.357 61.1354 563.272 60.3486 565.581 60.3486V58.3486C562.755 58.3486 560.327 59.3366 558.36 61.3036L559.774 62.7178ZM565.581 60.3486H581.525V58.3486H565.581V60.3486ZM582.525 59.3486V47.9639H580.525V59.3486H582.525ZM582.941 47.9639V46.9639H581.941V47.9639H582.941ZM582.941 89H581.941V90H582.941V89ZM612.678 89V90H613.678V89H612.678ZM612.678 77.5869H613.678V76.5869H612.678V77.5869ZM594.354 77.5869H593.354V78.5869H594.354V77.5869ZM594.354 74.1885V73.1885H593.354V74.1885H594.354ZM612.678 74.1885V75.1885H613.678V74.1885H612.678ZM612.678 62.7754H613.678V61.7754H612.678V62.7754ZM594.354 62.7754H593.354V63.7754H594.354V62.7754ZM594.354 59.3486V58.3486H593.354V59.3486H594.354ZM612.678 59.3486V60.3486H613.678V59.3486H612.678ZM612.678 47.9639H613.678V46.9639H612.678V47.9639ZM581.941 47.9639V89H583.941V47.9639H581.941ZM582.941 90H612.678V88H582.941V90ZM613.678 89V77.5869H611.678V89H613.678ZM612.678 76.5869H594.354V78.5869H612.678V76.5869ZM595.354 77.5869V74.1885H593.354V77.5869H595.354ZM594.354 75.1885H612.678V73.1885H594.354V75.1885ZM613.678 74.1885V62.7754H611.678V74.1885H613.678ZM612.678 61.7754H594.354V63.7754H612.678V61.7754ZM595.354 62.7754V59.3486H593.354V62.7754H595.354ZM594.354 60.3486H612.678V58.3486H594.354V60.3486ZM613.678 59.3486V47.9639H611.678V59.3486H613.678ZM612.678 46.9639H582.941V48.9639H612.678V46.9639Z" fill="#CEB7FF"/>
</g>
<g filter="url(#filter1_d_21_4024)">
<path d="M6.5 4.5H614.5V19.5H6.5V4.5Z" stroke="#CEB7FF" shape-rendering="crispEdges"/>
</g>
<g filter="url(#filter2_d_21_4024)">
<path d="M6.5 112.5H614.5V127.5H6.5V112.5Z" stroke="#CEB7FF" shape-rendering="crispEdges"/>
</g>
<defs>
<filter id="filter0_d_21_4024" x="0" y="41.9639" width="618.678" height="53.7678" filterUnits="userSpaceOnUse" color-interpolation-filters="sRGB">
<feFlood flood-opacity="0" result="BackgroundImageFix"/>
<feColorMatrix in="SourceAlpha" type="matrix" values="0 0 0 0 0 0 0 0 0 0 0 0 0 0 0 0 0 0 127 0" result="hardAlpha"/>
<feOffset/>
<feGaussianBlur stdDeviation="2.5"/>
<feComposite in2="hardAlpha" operator="out"/>
<feColorMatrix type="matrix" values="0 0 0 0 0.701961 0 0 0 0 0.466667 0 0 0 0 1 0 0 0 1 0"/>
<feBlend mode="normal" in2="BackgroundImageFix" result="effect1_dropShadow_21_4024"/>
<feBlend mode="normal" in="SourceGraphic" in2="effect1_dropShadow_21_4024" result="shape"/>
</filter>
<filter id="filter1_d_21_4024" x="2" y="0" width="617" height="24" filterUnits="userSpaceOnUse" color-interpolation-filters="sRGB">
<feFlood flood-opacity="0" result="BackgroundImageFix"/>
<feColorMatrix in="SourceAlpha" type="matrix" values="0 0 0 0 0 0 0 0 0 0 0 0 0 0 0 0 0 0 127 0" result="hardAlpha"/>
<feOffset/>
<feGaussianBlur stdDeviation="2"/>
<feComposite in2="hardAlpha" operator="out"/>
<feColorMatrix type="matrix" values="0 0 0 0 0.807843 0 0 0 0 0.717647 0 0 0 0 1 0 0 0 1 0"/>
<feBlend mode="normal" in2="BackgroundImageFix" result="effect1_dropShadow_21_4024"/>
<feBlend mode="normal" in="SourceGraphic" in2="effect1_dropShadow_21_4024" result="shape"/>
</filter>
<filter id="filter2_d_21_4024" x="2" y="108" width="617" height="24" filterUnits="userSpaceOnUse" color-interpolation-filters="sRGB">
<feFlood flood-opacity="0" result="BackgroundImageFix"/>
<feColorMatrix in="SourceAlpha" type="matrix" values="0 0 0 0 0 0 0 0 0 0 0 0 0 0 0 0 0 0 127 0" result="hardAlpha"/>
<feOffset/>
<feGaussianBlur stdDeviation="2"/>
<feComposite in2="hardAlpha" operator="out"/>
<feColorMatrix type="matrix" values="0 0 0 0 0.807843 0 0 0 0 0.717647 0 0 0 0 1 0 0 0 1 0"/>
<feBlend mode="normal" in2="BackgroundImageFix" result="effect1_dropShadow_21_4024"/>
<feBlend mode="normal" in="SourceGraphic" in2="effect1_dropShadow_21_4024" result="shape"/>
</filter>
</defs>
</svg>
