<svg xmlns="http://www.w3.org/2000/svg" width="902" height="133" fill="none" viewBox="0 0 902 133">
  <g filter="url(#a)">
    <path fill="#CEB7FF" d="M29.62 58.775v1h1v-1h-1Zm-12.207 0h-1v1h1v-1Zm0-14.811h1v-1h-1v1ZM6 43.964v-1H5v1h1ZM6 85H5v1h1v-1Zm11.413 0v1h1v-1h-1Zm0-14.811v-1h-1v1h1Zm12.206 0h1v-1h-1v1Zm0 14.811h-1v1h1v-1Zm11.385 0v1h1v-1h-1Zm0-41.036h1v-1h-1v1Zm-11.385 0v-1h-1v1h1Zm0 13.811H17.413v2H29.62v-2Zm-11.206 1V43.964h-2v14.811h2Zm-1-15.811H6v2h11.413v-2ZM5 43.964V85h2V43.964H5ZM6 86h11.413v-2H6v2Zm12.413-1V70.189h-2V85h2Zm-1-13.811H29.62v-2H17.413v2Zm11.206-1V85h2V70.189h-2Zm1 15.811h11.385v-2H29.619v2Zm12.385-1V43.964h-2V85h2Zm-1-42.036H29.619v2h11.385v-2Zm-12.385 1v14.811h2V43.964h-2Zm13.8 0v-1h-1v1h1Zm0 41.036h-1v1h1v-1Zm29.737 0v1h1v-1h-1Zm0-11.413h1v-1h-1v1Zm-18.323 0h-1v1h1v-1Zm0-3.398v-1h-1v1h1Zm18.323 0v1h1v-1h-1Zm0-11.414h1v-1h-1v1Zm-18.323 0h-1v1h1v-1Zm0-3.426v-1h-1v1h1Zm18.323 0v1h1v-1h-1Zm0-11.385h1v-1h-1v1Zm-30.736 0V85h2V43.964h-2Zm1 42.036h29.736v-2H42.42v2Zm30.736-1V73.587h-2V85h2Zm-1-12.413H53.833v2h18.323v-2Zm-17.323 1v-3.398h-2v3.398h2Zm-1-2.398h18.323v-2H53.833v2Zm19.323-1V58.775h-2V70.19h2Zm-1-12.414H53.833v2h18.323v-2Zm-17.323 1V55.35h-2v3.426h2Zm-1-2.426h18.323v-2H53.833v2Zm19.323-1V43.964h-2v11.385h2Zm-1-12.385H42.42v2h29.736v-2Zm12.83 1h1v-1h-1v1Zm-11.414 0v-1h-1v1h1Zm0 41.036h-1v1h1v-1Zm31.153 0v1h1v-1h-1Zm0-11.413h1v-1h-1v1Zm-19.74 0h-1v1h1v-1Zm0-30.623H73.572v2h11.413v-2Zm-12.413 1V85h2V43.964h-2Zm1 42.036h31.153v-2H73.572v2Zm32.153-1V73.587h-2V85h2Zm-1-12.413h-19.74v2h19.74v-2Zm-18.74 1V43.964h-2v29.623h2Zm31.569-29.623h1v-1h-1v1Zm-11.413 0v-1h-1v1h1Zm0 41.036h-1v1h1v-1Zm31.152 0v1h1v-1h-1Zm0-11.413h1v-1h-1v1Zm-19.739 0h-1v1h1v-1Zm0-30.623h-11.413v2h11.413v-2Zm-12.413 1V85h2V43.964h-2Zm1 42.036h31.152v-2h-31.152v2Zm32.152-1V73.587h-2V85h2Zm-1-12.413h-19.739v2h19.739v-2Zm-18.739 1V43.964h-2v29.623h2Zm32.531-2.662.707-.707-.004-.004-.703.71Zm-.057-12.914-.707-.707-.004.003.711.704Zm16.143 0 .711-.704-.004-.003-.707.707Zm-.057 12.914-.703-.711-.004.004.707.707Zm-9.572 1.662c-2.267 0-4.164-.784-5.75-2.37l-1.414 1.415c1.964 1.964 4.371 2.955 7.164 2.955v-2Zm-5.754-2.373c-1.603-1.586-2.393-3.483-2.393-5.746h-2c0 2.796 1.003 5.204 2.987 7.168l1.406-1.422Zm-2.393-5.746c0-2.27.776-4.17 2.344-5.754l-1.422-1.407c-1.943 1.965-2.922 4.371-2.922 7.16h2Zm2.34-5.75c1.583-1.583 3.498-2.37 5.807-2.37v-2c-2.826 0-5.254.989-7.221 2.956l1.414 1.414Zm5.807-2.37h3.115v-2h-3.115v2Zm3.115 0c2.31 0 4.224.787 5.807 2.37l1.414-1.414c-1.967-1.967-4.395-2.955-7.221-2.955v2Zm5.803 2.366c1.568 1.585 2.345 3.483 2.345 5.754h2c0-2.79-.979-5.196-2.923-7.16l-1.422 1.406Zm2.345 5.754c0 2.263-.791 4.16-2.394 5.746l1.407 1.422c1.984-1.963 2.987-4.372 2.987-7.168h-2Zm-2.398 5.75c-1.585 1.585-3.483 2.369-5.75 2.369v2c2.793 0 5.2-.991 7.164-2.955l-1.414-1.414Zm-5.75 2.369h-3.115v2h3.115v-2Zm-3.115-29.623c-5.947 0-11.044 2.106-15.235 6.297l1.414 1.414c3.814-3.814 8.402-5.711 13.821-5.711v-2Zm-15.235 6.297c-4.191 4.19-6.297 9.278-6.297 15.207h2c0-5.4 1.896-9.978 5.711-13.793l-1.414-1.414Zm-6.297 15.207c0 5.947 2.106 11.044 6.297 15.235l1.414-1.414c-3.814-3.814-5.711-8.402-5.711-13.821h-2Zm6.297 15.235c4.191 4.191 9.288 6.297 15.235 6.297v-2c-5.419 0-10.007-1.897-13.821-5.711l-1.414 1.414ZM157.542 86h3.115v-2h-3.115v2Zm3.115 0c5.947 0 11.045-2.106 15.236-6.297l-1.415-1.414C170.664 82.103 166.076 84 160.657 84v2Zm15.236-6.297c4.191-4.19 6.296-9.288 6.296-15.235h-2c0 5.419-1.896 10.007-5.711 13.821l1.415 1.414Zm6.296-15.235c0-5.93-2.106-11.017-6.296-15.207l-1.415 1.414c3.815 3.815 5.711 8.394 5.711 13.793h2Zm-6.296-15.207c-4.191-4.191-9.289-6.297-15.236-6.297v2c5.419 0 10.007 1.897 13.821 5.71l1.415-1.413Zm-15.236-6.297h-3.115v2h3.115v-2Zm32.314 1v-1h-1v1h1Zm0 41.036h-1v1h1v-1Zm11.413 0v1h1v-1h-1Zm0-14.811v-1h-1v1h1Zm15.463 0v1h1v-1h-1Zm0-11.414h1v-1h-1v1Zm-15.463 0h-1v1h1v-1Zm0-3.426v-1h-1v1h1Zm18.323 0v1h1v-1h-1Zm0-11.385h1v-1h-1v1Zm-30.736 0V85h2V43.964h-2Zm1 42.036h11.413v-2h-11.413v2Zm12.413-1V70.189h-2V85h2Zm-1-13.811h15.463v-2h-15.463v2Zm16.463-1V58.775h-2V70.19h2Zm-1-12.414h-15.463v2h15.463v-2Zm-14.463 1V55.35h-2v3.426h2Zm-1-2.426h18.323v-2h-18.323v2Zm19.323-1V43.964h-2v11.385h2Zm-1-12.385h-29.736v2h29.736v-2Zm1.416 1v-1h-1v1h1Zm0 41.036h-1v1h1v-1Zm29.736 0v1h1v-1h-1Zm0-11.413h1v-1h-1v1Zm-18.323 0h-1v1h1v-1Zm0-3.398v-1h-1v1h1Zm18.323 0v1h1v-1h-1Zm0-11.414h1v-1h-1v1Zm-18.323 0h-1v1h1v-1Zm0-3.426v-1h-1v1h1Zm18.323 0v1h1v-1h-1Zm0-11.385h1v-1h-1v1Zm-30.736 0V85h2V43.964h-2Zm1 42.036h29.736v-2h-29.736v2Zm30.736-1V73.587h-2V85h2Zm-1-12.413h-18.323v2h18.323v-2Zm-17.323 1v-3.398h-2v3.398h2Zm-1-2.398h18.323v-2h-18.323v2Zm19.323-1V58.775h-2V70.19h2Zm-1-12.414h-18.323v2h18.323v-2Zm-17.323 1V55.35h-2v3.426h2Zm-1-2.426h18.323v-2h-18.323v2Zm19.323-1V43.964h-2v11.385h2Zm-1-12.385h-29.736v2h29.736v-2Zm12.829 1h1v-1h-1v1Zm-11.413 0v-1h-1v1h1Zm0 41.036h-1v1h1v-1Zm31.153 0v1h1v-1h-1Zm0-11.413h1v-1h-1v1Zm-19.74 0h-1v1h1v-1Zm0-30.623h-11.413v2h11.413v-2Zm-12.413 1V85h2V43.964h-2Zm1 42.036h31.153v-2h-31.153v2Zm32.153-1V73.587h-2V85h2Zm-1-12.413h-19.74v2h19.74v-2Zm-18.74 1V43.964h-2v29.623h2Zm31.569-29.623h1v-1h-1v1Zm-11.413 0v-1h-1v1h1Zm0 41.036h-1v1h1v-1Zm31.152 0v1h1v-1h-1Zm0-11.413h1v-1h-1v1Zm-19.739 0h-1v1h1v-1Zm0-30.623h-11.413v2h11.413v-2Zm-12.413 1V85h2V43.964h-2Zm1 42.036h31.152v-2h-31.152v2Zm32.152-1V73.587h-2V85h2Zm-1-12.413h-19.739v2h19.739v-2Zm-18.739 1V43.964h-2v29.623h2Zm32.531-2.662.707-.707-.004-.004-.703.71Zm-.057-12.914-.707-.707-.003.003.71.704Zm16.143 0 .711-.704-.004-.003-.707.707Zm-.057 12.914-.703-.711-.004.004.707.707Zm-9.572 1.662c-2.267 0-4.164-.784-5.75-2.37l-1.414 1.415c1.964 1.964 4.371 2.955 7.164 2.955v-2Zm-5.754-2.373c-1.603-1.586-2.393-3.483-2.393-5.746h-2c0 2.796 1.003 5.204 2.987 7.168l1.406-1.422Zm-2.393-5.746c0-2.27.776-4.17 2.344-5.754l-1.421-1.407c-1.944 1.965-2.923 4.371-2.923 7.16h2Zm2.341-5.75c1.582-1.583 3.497-2.37 5.806-2.37v-2c-2.826 0-5.254.989-7.221 2.956l1.415 1.414Zm5.806-2.37h3.115v-2h-3.115v2Zm3.115 0c2.31 0 4.225.787 5.807 2.37l1.414-1.414c-1.967-1.967-4.395-2.955-7.221-2.955v2Zm5.803 2.366c1.568 1.585 2.345 3.483 2.345 5.754h2c0-2.79-.979-5.196-2.923-7.16l-1.422 1.406Zm2.345 5.754c0 2.263-.791 4.16-2.394 5.746l1.407 1.422c1.984-1.963 2.987-4.372 2.987-7.168h-2Zm-2.398 5.75c-1.585 1.585-3.483 2.369-5.75 2.369v2c2.793 0 5.201-.991 7.164-2.955l-1.414-1.414Zm-5.75 2.369h-3.115v2h3.115v-2Zm-3.115-29.623c-5.947 0-11.044 2.106-15.235 6.297l1.414 1.414c3.814-3.814 8.402-5.711 13.821-5.711v-2ZM324.01 49.26c-4.191 4.19-6.297 9.278-6.297 15.207h2c0-5.4 1.896-9.978 5.711-13.793l-1.414-1.414Zm-6.297 15.207c0 5.947 2.106 11.044 6.297 15.235l1.414-1.414c-3.814-3.814-5.711-8.402-5.711-13.821h-2Zm6.297 15.235c4.191 4.191 9.288 6.297 15.235 6.297v-2c-5.419 0-10.007-1.897-13.821-5.711l-1.414 1.414ZM339.245 86h3.115v-2h-3.115v2Zm3.115 0c5.947 0 11.045-2.106 15.236-6.297l-1.414-1.414C352.367 82.103 347.779 84 342.36 84v2Zm15.236-6.297c4.191-4.19 6.297-9.288 6.297-15.235h-2c0 5.419-1.897 10.007-5.711 13.821l1.414 1.414Zm6.297-15.235c0-5.93-2.107-11.017-6.297-15.207l-1.414 1.414c3.814 3.815 5.711 8.394 5.711 13.793h2Zm-6.297-15.207c-4.191-4.191-9.289-6.297-15.236-6.297v2c5.419 0 10.007 1.897 13.822 5.71l1.414-1.413Zm-15.236-6.297h-3.115v2h3.115v-2Zm51.005 16.123-.975.223 1.95.001-.975-.224Zm-3.455-15.123.975-.223-.178-.777h-.797v1Zm-10.082 0v-1h-.796l-.178.775.974.225Zm-3.483 15.123-.975.223 1.949.001-.974-.224Zm-3.455-15.123.975-.223-.178-.777h-.797v1Zm-12.263 0v-1h-1.255l.28 1.223.975-.223ZM370.029 85l-.974.223.178.777h.796v-1Zm11.215 0v1h.785l.187-.763-.972-.237Zm3.738-15.293.991-.134-1.962-.103.971.237ZM387.05 85l-.991.134.117.866h.874v-1Zm12.631 0v1h.785l.186-.763-.971-.237Zm9.997-41.036.971.237.302-1.237h-1.273v1Zm-12.829 0v-1h-.796l-.179.775.975.225Zm-2.509 14.9-3.455-15.123-1.95.446 3.455 15.123 1.95-.446Zm-4.43-15.9h-10.082v2h10.082v-2Zm-11.056.775-3.484 15.123 1.949.45 3.484-15.124-1.949-.449Zm-1.534 15.125-3.455-15.123-1.95.446 3.455 15.123 1.95-.446Zm-4.43-15.9h-12.263v2h12.263v-2Zm-13.238 1.223 9.403 41.036 1.949-.446-9.402-41.037-1.95.447ZM370.029 86h11.215v-2h-11.215v2Zm12.187-.763 3.738-15.292-1.943-.475-3.738 15.293 1.943.474Zm1.775-15.396 2.068 15.293 1.982-.268-2.068-15.293-1.982.268ZM387.05 86h12.631v-2H387.05v2Zm13.602-.763 9.997-41.036-1.943-.474-9.997 41.036 1.943.474Zm9.026-42.273h-12.829v2h12.829v-2Zm-13.804.775-3.483 15.123 1.949.45 3.483-15.124-1.949-.449Zm50.847 29.848v1h1v-1h-1Zm-11.187-2.662.707-.707-.003-.004-.704.71Zm-.056-12.914-.708-.707-.003.003.711.704Zm22.458-2.662v1h1v-1h-1Zm0-11.385h1v-1h-1v1ZM458.134 85v1h1v-1h-1Zm0-20.136h1v-1h-1v1Zm-11.413 0v-1h-1v1h1Zm0 7.723h-4.73v2h4.73v-2Zm-4.73 0c-2.267 0-4.164-.784-5.75-2.37l-1.414 1.415c1.964 1.964 4.371 2.955 7.164 2.955v-2Zm-5.753-2.373c-1.604-1.586-2.394-3.483-2.394-5.746h-2c0 2.796 1.003 5.204 2.987 7.168l1.407-1.422Zm-2.394-5.746c0-2.27.777-4.17 2.344-5.754l-1.421-1.407c-1.944 1.965-2.923 4.371-2.923 7.16h2Zm2.341-5.75c1.582-1.583 3.497-2.37 5.806-2.37v-2c-2.826 0-5.254.989-7.221 2.956l1.415 1.414Zm5.806-2.37h15.945v-2h-15.945v2Zm16.945-1V43.965h-2V55.35h2Zm-1-12.384h-15.945v2h15.945v-2Zm-15.945 0c-5.947 0-11.044 2.106-15.235 6.297l1.414 1.414c3.814-3.814 8.402-5.711 13.821-5.711v-2Zm-15.235 6.297c-4.19 4.19-6.297 9.278-6.297 15.207h2c0-5.4 1.896-9.978 5.711-13.793l-1.414-1.414Zm-6.297 15.207c0 5.947 2.106 11.044 6.297 15.235l1.414-1.414c-3.814-3.814-5.711-8.402-5.711-13.821h-2Zm6.297 15.235c4.191 4.191 9.288 6.297 15.235 6.297v-2c-5.419 0-10.007-1.897-13.821-5.711l-1.414 1.414ZM441.991 86h16.143v-2h-16.143v2Zm17.143-1V64.864h-2V85h2Zm-1-21.136h-11.413v2h11.413v-2Zm-12.413 1v8.723h2v-8.723h-2Zm33.115 5.381-.935-.354-.513 1.354h1.448v-1Zm3.88-10.252.935-.354-.935-2.471-.935 2.471.935.354Zm3.88 10.252v1h1.447l-.512-1.354-.935.354Zm-10.762-26.281v-1h-.679l-.251.632.93.368ZM459.578 85l-.93-.368-.542 1.368h1.472v-1Zm13.679 0v1h.691l.244-.647-.935-.353Zm1.529-4.05v-1h-.691l-.244.647.935.353Zm15.831 0 .934-.359-.247-.64h-.687v1Zm1.558 4.05-.934.359.247.641h.687v-1Zm13.112 0v1h1.453l-.519-1.357-.934.357Zm-15.689-41.036.934-.357-.246-.643h-.688v1Zm-9.827 26.635 3.88-10.252-1.87-.708-3.88 10.252 1.87.708Zm2.01-10.252L485.66 70.6l1.871-.708-3.88-10.252-1.87.708Zm4.815 8.898h-7.76v2h7.76v-2Zm-11.692-25.65-16.256 41.037 1.86.736 16.256-41.036-1.86-.736ZM459.578 86h13.679v-2h-13.679v2Zm14.614-.647 1.53-4.05-1.871-.706-1.53 4.05 1.871.706Zm.594-3.403h15.831v-2h-15.831v2Zm14.898-.64 1.557 4.049 1.867-.718-1.557-4.05-1.867.718Zm2.491 4.69h13.112v-2h-13.112v2Zm14.046-1.357-15.689-41.036-1.868.714 15.689 41.036 1.868-.714Zm-16.623-41.68h-13.764v2h13.764v-2Zm54.12 27.282-.935-.354-.513 1.354h1.448v-1Zm3.88-10.252.935-.354-.935-2.471-.936 2.471.936.354Zm3.88 10.252v1h1.447l-.512-1.354-.935.354Zm-33.362 3.342h-1v1h1v-1Zm0-29.623h1v-1h-1v1Zm-11.413 0v-1h-1v1h1Zm0 41.036h-1v1h1v-1Zm31.436 0v1h.691l.244-.647-.935-.353Zm1.529-4.05v-1h-.691l-.245.647.936.353Zm15.831 0 .933-.359-.246-.64h-.687v1Zm1.558 4.05-.934.359.247.641h.687v-1Zm13.112 0v1h1.453l-.519-1.357-.934.357Zm-15.69-41.036.935-.357-.246-.643h-.689v1Zm-13.763 0v-1h-.68l-.25.632.93.368Zm-11.725 29.623v1h.68l.25-.632-.93-.368Zm15.662-2.988 3.88-10.252-1.871-.708-3.879 10.252 1.87.708Zm2.009-10.252 3.88 10.252 1.871-.708-3.88-10.252-1.871.708Zm4.816 8.898h-7.76v2h7.76v-2Zm-32.362 4.342V43.964h-2v29.623h2Zm-1-30.623h-11.413v2h11.413v-2Zm-12.413 1V85h2V43.964h-2Zm1 42.036h31.436v-2h-31.436v2Zm32.371-.647 1.53-4.05-1.872-.706-1.529 4.05 1.871.706Zm.594-3.403h15.831v-2h-15.831v2Zm14.898-.64 1.557 4.049 1.867-.718-1.558-4.05-1.866.718Zm2.491 4.69h13.112v-2h-13.112v2Zm14.046-1.357-15.689-41.036-1.869.714 15.69 41.036 1.868-.714Zm-16.624-41.68h-13.763v2h13.763v-2Zm-14.693.633-11.725 29.623 1.86.736 11.725-29.623-1.86-.736Zm-10.795 28.99h-10.875v2h10.875v-2Zm82.582-28.622.848.53.957-1.53h-1.805v1Zm-14.443 0v-1h-.557l-.293.474.85.526Zm-5.523 8.92-.849.53.852 1.367.848-1.37-.851-.526Zm-5.55-8.92.849-.528-.294-.472h-.555v1Zm-14.444 0v-1h-1.804l.956 1.53.848-.53Zm.142.226.849-.528-.001-.002-.848.53Zm12.631 20.278.849.528.329-.529-.329-.528-.849.529Zm-12.631 20.305.848.53.001-.001-.849-.529Zm-.142.227-.848-.53-.956 1.53h1.804v-1Zm14.444 0v1h.555l.294-.472-.849-.528Zm5.55-8.92.851-.527-.848-1.37-.852 1.368.849.528ZM597.13 85l-.85.526.293.474h.557v-1Zm14.443 0v1h1.805l-.957-1.53-.848.53Zm-.141-.227-.849.529.001.001.848-.53Zm-12.631-20.305-.849-.529-.329.528.329.529.849-.528Zm12.631-20.278-.848-.53-.001.002.849.528Zm.141-1.226H597.13v2h14.443v-2Zm-15.293.474-5.523 8.92 1.701 1.053 5.522-8.92-1.7-1.053Zm-3.824 8.918-5.55-8.92-1.698 1.056 5.55 8.921 1.698-1.056Zm-6.399-9.392h-14.444v2h14.444v-2Zm-15.292 1.53.142.226 1.696-1.06-.142-.226-1.696 1.06Zm.141.225 12.631 20.277 1.698-1.057-12.631-20.277-1.698 1.057Zm12.631 19.22-12.631 20.306 1.698 1.057 12.631-20.306-1.698-1.056Zm-12.63 20.304-.142.227 1.696 1.06.142-.227-1.696-1.06Zm.706 1.757h14.444v-2h-14.444v2Zm15.293-.472 5.55-8.92-1.698-1.057-5.55 8.92 1.698 1.057Zm3.851-8.922 5.523 8.92 1.7-1.052-5.522-8.921-1.701 1.053ZM597.13 86h14.443v-2H597.13v2Zm15.291-1.53-.141-.227-1.696 1.06.141.227 1.696-1.06Zm-.14-.225L599.65 63.94l-1.698 1.056 12.631 20.306 1.698-1.057ZM599.65 64.996l12.63-20.277-1.697-1.057-12.631 20.277 1.698 1.057Zm12.63-20.276.141-.226-1.696-1.06-.141.226 1.696 1.06Zm22.431 13.29-.858.515.856 1.43.859-1.43-.857-.514ZM626.3 43.965l.858-.514-.291-.486h-.567v1Zm-13.282 0v-1h-1.766l.908 1.514.858-.514Zm15.066 25.12.862-.508-.004-.006-.858.514Zm.935 1.586h1v-.273l-.139-.235-.861.508Zm0 14.33h-1v1h1v-1Zm11.413 0v1h1v-1h-1Zm0-14.33-.862-.508-.138.235v.273h1Zm.934-1.586-.857-.514-.004.006.861.508Zm15.067-25.12.857.514.908-1.514h-1.765v1Zm-13.283 0v-1h-.565l-.292.485.857.515Zm-7.581 13.533-8.411-14.047-1.716 1.028 8.411 14.047 1.716-1.028ZM626.3 42.964h-13.282v2H626.3v-2Zm-14.14 1.514 15.066 25.12 1.716-1.028-15.067-25.12-1.715 1.028Zm15.062 25.114.935 1.586 1.723-1.016-.935-1.586-1.723 1.016Zm.797 1.078V85h2V70.67h-2Zm1 15.33h11.413v-2h-11.413v2Zm12.413-1V70.67h-2V85h2Zm-.139-13.822.935-1.586-1.723-1.016-.935 1.586 1.723 1.016Zm.931-1.58 15.066-25.12-1.715-1.029-15.066 25.12 1.715 1.03Zm14.209-26.634H643.15v2h13.283v-2Zm-14.14.485-8.439 14.047 1.714 1.03 8.44-14.047-1.715-1.03Zm48.379 19.065-.888.46.958 1.851.844-1.907-.914-.404Zm-9.601-18.55.888-.46-.279-.54h-.609v1Zm-12.829 0v-1h-1v1h1Zm0 41.036h-1v1h1v-1Zm11.413 0v1h1v-1h-1Zm0-18.012.851-.525-1.851-2.998v3.523h1Zm11.017 17.842-.851.526.85 1.376.851-1.376-.85-.526Zm11.045-17.842h1v-3.515l-1.85 2.989.85.526Zm0 18.012h-1v1h1v-1Zm11.413 0v1h1v-1h-1Zm0-41.036h1v-1h-1v1Zm-14.245 0v-1h-.651l-.264.595.915.405Zm-7.325 18.09-9.601-18.55-1.776.92 9.601 18.55 1.776-.92Zm-10.489-19.09h-12.829v2h12.829v-2Zm-13.829 1V85h2V43.964h-2Zm1 42.036h11.413v-2h-11.413v2Zm12.413-1V66.988h-2V85h2Zm-1.851-17.486 11.017 17.842 1.702-1.051-11.017-17.842-1.702 1.05Zm12.718 17.842 11.045-17.841-1.7-1.053-11.045 17.842 1.7 1.052Zm9.195-18.368V85h2V66.988h-2Zm1 19.012h11.413v-2h-11.413v2Zm12.413-1V43.964h-2V85h2Zm-1-42.036h-14.245v2h14.245v-2Zm-15.16.595-8.212 18.55 1.828.81 8.213-18.55-1.829-.81Zm16.604.405v-1h-1v1h1Zm0 41.036h-1v1h1v-1Zm29.737 0v1h1v-1h-1Zm0-11.413h1v-1h-1v1Zm-18.324 0h-1v1h1v-1Zm0-3.398v-1h-1v1h1Zm18.324 0v1h1v-1h-1Zm0-11.414h1v-1h-1v1Zm-18.324 0h-1v1h1v-1Zm0-3.426v-1h-1v1h1Zm18.324 0v1h1v-1h-1Zm0-11.385h1v-1h-1v1Zm-30.737 0V85h2V43.964h-2Zm1 42.036h29.737v-2h-29.737v2Zm30.737-1V73.587h-2V85h2Zm-1-12.413h-18.324v2h18.324v-2Zm-17.324 1v-3.398h-2v3.398h2Zm-1-2.398h18.324v-2h-18.324v2Zm19.324-1V58.775h-2V70.19h2Zm-1-12.414h-18.324v2h18.324v-2Zm-17.324 1V55.35h-2v3.426h2Zm-1-2.426h18.324v-2h-18.324v2Zm19.324-1V43.964h-2v11.385h2Zm-1-12.385h-29.737v2h29.737v-2Zm23.845 19.55-.888.46.959 1.851.844-1.907-.915-.404Zm-9.6-18.55.888-.46-.28-.54h-.608v1Zm-12.829 0v-1h-1v1h1Zm0 41.036h-1v1h1v-1Zm11.413 0v1h1v-1h-1Zm0-18.012.851-.525-1.851-2.998v3.523h1Zm11.016 17.842-.851.526.85 1.376.852-1.376-.851-.526Zm11.045-17.842h1v-3.515l-1.85 2.989.85.526Zm0 18.012h-1v1h1v-1Zm11.413 0v1h1v-1h-1Zm0-41.036h1v-1h-1v1Zm-14.245 0v-1h-.651l-.263.595.914.405Zm-7.325 18.09-9.6-18.55-1.776.92 9.6 18.55 1.776-.92Zm-10.488-19.09h-12.829v2h12.829v-2Zm-13.829 1V85h2V43.964h-2Zm1 42.036h11.413v-2h-11.413v2Zm12.413-1V66.988h-2V85h2Zm-1.851-17.486 11.016 17.842 1.702-1.051-11.016-17.842-1.702 1.05Zm12.718 17.842 11.044-17.841-1.7-1.053-11.045 17.842 1.701 1.052Zm9.194-18.368V85h2V66.988h-2Zm1 19.012h11.413v-2h-11.413v2Zm12.413-1V43.964h-2V85h2Zm-1-42.036h-14.245v2h14.245v-2Zm-15.159.595-8.213 18.55 1.829.81 8.213-18.55-1.829-.81Zm40.393 14.933-.785-.62-.003.004.788.616Zm-12.348.652h-1v1h1v-1Zm0-3.852v-1h-1v1h1Zm12.263.566-.762.648.009.01.009.011.744-.669ZM803.5 73.587h-1v1h1v-1Zm0-3.852v-1h-1v1h1Zm12.404.765-.832.555.011.015.011.016.81-.586Zm-.141 2.52-.744-.668-.009.01-.009.01.762.648Zm-23.704-29.056v-1h-1v1h1Zm0 41.036h-1v1h1v-1Zm25.035 0v1h.011l-.011-1Zm8.326-3.965-.749-.662-.003.003.752.66Zm1.699-16.85-.877-.482-.276.505.296.492.857-.515Zm-3.54-17.899.507-.862h-.001l-.506.862Zm-8.519 11.59c-.168.215-.312.268-.487.268v2c.845 0 1.551-.382 2.062-1.035l-1.575-1.233Zm-.487.268H803.5v2h11.073v-2Zm-10.073 1v-3.852h-2v3.852h2Zm-1-2.852h11.073v-2H803.5v2Zm11.073 0c.163 0 .286.047.428.214l1.524-1.295c-.5-.589-1.17-.919-1.952-.919v2Zm.446.235a.962.962 0 0 1 .253.69h2c0-.764-.254-1.458-.766-2.028l-1.487 1.338Zm.253.69c0 .285-.076.487-.209.656l1.57 1.239a2.994 2.994 0 0 0 .639-1.894h-2ZM804.5 73.588v-3.852h-2v3.852h2Zm-1-2.852h11.073v-2H803.5v2Zm11.073 0c.169 0 .319.05.499.32l1.664-1.11c-.499-.749-1.237-1.21-2.163-1.21v2Zm.521.35a.939.939 0 0 1 .178.576h2a2.93 2.93 0 0 0-.557-1.746l-1.621 1.17Zm.178.576a.961.961 0 0 1-.253.69l1.487 1.338a2.96 2.96 0 0 0 .766-2.028h-2Zm-.271.712c-.142.167-.265.214-.428.214v2c.782 0 1.452-.33 1.952-.919l-1.524-1.295Zm-.428.214H803.5v2h11.073v-2Zm-23.514-28.623V85h2V43.964h-2Zm1 42.036h25.035v-2h-25.035v2Zm25.046 0c3.569-.041 6.608-1.501 9.067-4.306l-1.504-1.318c-2.11 2.406-4.622 3.59-7.586 3.624l.023 2Zm9.064-4.302c2.473-2.798 3.706-6.162 3.706-10.037h-2c0 3.413-1.071 6.299-3.204 8.712l1.498 1.325Zm3.706-10.037c0-3.162-.608-5.847-1.899-7.992l-1.714 1.031c1.051 1.745 1.613 4.043 1.613 6.961h2Zm-1.879-6.995c1.254-2.286 1.879-4.775 1.879-7.448h-2c0 2.348-.546 4.504-1.633 6.485l1.754.963Zm1.879-7.448c0-5.454-1.868-9.487-5.789-11.794l-1.014 1.724c3.14 1.847 4.803 5.102 4.803 10.07h2Zm-5.79-11.795c-2.875-1.683-7.141-2.46-12.655-2.46v2c5.398 0 9.232.773 11.644 2.186l1.011-1.726Zm-12.655-2.46h-19.371v2h19.371v-2Zm18.861 1v-1h-1v1h1Zm0 41.037h-1v1h1v-1Zm29.736 0v1h1v-1h-1Zm0-11.413h1v-1h-1v1Zm-18.323 0h-1v1h1v-1Zm0-3.398v-1h-1v1h1Zm18.323 0v1h1v-1h-1Zm0-11.414h1v-1h-1v1Zm-18.323 0h-1v1h1v-1Zm0-3.426v-1h-1v1h1Zm18.323 0v1h1v-1h-1Zm0-11.385h1v-1h-1v1Zm-30.736 0V85h2V43.964h-2Zm1 42.036h29.736v-2h-29.736v2Zm30.736-1V73.587h-2V85h2Zm-1-12.413h-18.323v2h18.323v-2Zm-17.323 1V70.19h-2v3.398h2Zm-1-2.398h18.323v-2h-18.323v2Zm19.323-1V58.775h-2V70.19h2Zm-1-12.414h-18.323v2h18.323v-2Zm-17.323 1V55.35h-2v3.426h2Zm-1-2.426h18.323v-2h-18.323v2Zm19.323-1V43.964h-2v11.385h2Zm-1-12.385h-29.736v2h29.736v-2Zm31.493 5.531-.712.703.002.002.71-.705Zm-10.706-4.531.009-1h-.009v1Zm-19.371 0v-1h-1v1h1Zm0 41.036h-1v1h1v-1Zm11.413 0v1h1v-1h-1Zm0-7.335.777-.63-1.777-2.186v2.816h1Zm.765.878.732-.681-.001-.001-.731.682ZM895.088 85v1h1v-1h-1Zm0-11.413h1v-1h-1v1Zm-8.185-.425-.408-.913-2.846 1.274 3.056.62.198-.98Zm6.514-5.522.833.553.002-.003-.835-.55Zm-20.561-5.013h-1v1h1v-1Zm0-5.608v-1h-1v1h1Zm24.082 2.21c0-4.455-1.577-8.286-4.709-11.439l-1.419 1.41c2.759 2.776 4.128 6.1 4.128 10.028h2Zm-4.707-11.437c-3.131-3.17-6.952-4.788-11.408-4.828l-.018 2c3.928.035 7.243 1.439 10.003 4.234l1.423-1.406Zm-11.417-4.828h-19.371v2h19.371v-2Zm-20.371 1V85h2V43.964h-2Zm1 42.036h11.413v-2h-11.413v2Zm12.413-1v-7.335h-2V85h2Zm-1.776-6.704c.26.32.53.63.81.93l1.462-1.365a16.19 16.19 0 0 1-.719-.827l-1.553 1.262Zm.809.928C877.142 83.798 883.464 86 891.661 86v-2c-7.851 0-13.555-2.103-17.308-6.138l-1.464 1.362ZM891.661 86h3.427v-2h-3.427v2Zm4.427-1V73.587h-2V85h2Zm-1-12.413h-3.427v2h3.427v-2Zm-3.427 0c-1.723 0-3.241-.138-4.559-.405l-.397 1.96c1.476.3 3.13.445 4.956.445v-2Zm-4.349 1.488c2.873-1.286 5.191-3.252 6.938-5.882l-1.666-1.107c-1.538 2.317-3.563 4.033-6.089 5.163l.817 1.826Zm6.94-5.885c1.788-2.712 2.686-5.708 2.686-8.962h-2c0 2.864-.783 5.476-2.356 7.861l1.67 1.101Zm-20.396-5.563v-5.608h-2v5.608h2Zm-1-4.608h6.939v-2h-6.939v2Zm6.939 0c.509 0 .915.169 1.275.529l1.414-1.414a3.7 3.7 0 0 0-2.689-1.114v2Zm1.275.529c.36.36.529.767.529 1.275h2a3.7 3.7 0 0 0-1.115-2.69l-1.414 1.415Zm.529 1.275c0 .509-.169.916-.529 1.276l1.414 1.414a3.701 3.701 0 0 0 1.115-2.69h-2Zm-.529 1.276c-.36.36-.766.528-1.275.528v2a3.7 3.7 0 0 0 2.689-1.114l-1.414-1.414Zm-1.275.528h-6.939v2h6.939v-2Z"/>
  </g>
  <g filter="url(#b)">
    <path fill="#CEB7FF" d="M29.62 58.775v1h1v-1h-1Zm-12.207 0h-1v1h1v-1Zm0-14.811h1v-1h-1v1ZM6 43.964v-1H5v1h1ZM6 85H5v1h1v-1Zm11.413 0v1h1v-1h-1Zm0-14.811v-1h-1v1h1Zm12.206 0h1v-1h-1v1Zm0 14.811h-1v1h1v-1Zm11.385 0v1h1v-1h-1Zm0-41.036h1v-1h-1v1Zm-11.385 0v-1h-1v1h1Zm0 13.811H17.413v2H29.62v-2Zm-11.206 1V43.964h-2v14.811h2Zm-1-15.811H6v2h11.413v-2ZM5 43.964V85h2V43.964H5ZM6 86h11.413v-2H6v2Zm12.413-1V70.189h-2V85h2Zm-1-13.811H29.62v-2H17.413v2Zm11.206-1V85h2V70.189h-2Zm1 15.811h11.385v-2H29.619v2Zm12.385-1V43.964h-2V85h2Zm-1-42.036H29.619v2h11.385v-2Zm-12.385 1v14.811h2V43.964h-2Zm13.8 0v-1h-1v1h1Zm0 41.036h-1v1h1v-1Zm29.737 0v1h1v-1h-1Zm0-11.413h1v-1h-1v1Zm-18.323 0h-1v1h1v-1Zm0-3.398v-1h-1v1h1Zm18.323 0v1h1v-1h-1Zm0-11.414h1v-1h-1v1Zm-18.323 0h-1v1h1v-1Zm0-3.426v-1h-1v1h1Zm18.323 0v1h1v-1h-1Zm0-11.385h1v-1h-1v1Zm-30.736 0V85h2V43.964h-2Zm1 42.036h29.736v-2H42.42v2Zm30.736-1V73.587h-2V85h2Zm-1-12.413H53.833v2h18.323v-2Zm-17.323 1v-3.398h-2v3.398h2Zm-1-2.398h18.323v-2H53.833v2Zm19.323-1V58.775h-2V70.19h2Zm-1-12.414H53.833v2h18.323v-2Zm-17.323 1V55.35h-2v3.426h2Zm-1-2.426h18.323v-2H53.833v2Zm19.323-1V43.964h-2v11.385h2Zm-1-12.385H42.42v2h29.736v-2Zm12.83 1h1v-1h-1v1Zm-11.414 0v-1h-1v1h1Zm0 41.036h-1v1h1v-1Zm31.153 0v1h1v-1h-1Zm0-11.413h1v-1h-1v1Zm-19.74 0h-1v1h1v-1Zm0-30.623H73.572v2h11.413v-2Zm-12.413 1V85h2V43.964h-2Zm1 42.036h31.153v-2H73.572v2Zm32.153-1V73.587h-2V85h2Zm-1-12.413h-19.74v2h19.74v-2Zm-18.74 1V43.964h-2v29.623h2Zm31.569-29.623h1v-1h-1v1Zm-11.413 0v-1h-1v1h1Zm0 41.036h-1v1h1v-1Zm31.152 0v1h1v-1h-1Zm0-11.413h1v-1h-1v1Zm-19.739 0h-1v1h1v-1Zm0-30.623h-11.413v2h11.413v-2Zm-12.413 1V85h2V43.964h-2Zm1 42.036h31.152v-2h-31.152v2Zm32.152-1V73.587h-2V85h2Zm-1-12.413h-19.739v2h19.739v-2Zm-18.739 1V43.964h-2v29.623h2Zm32.531-2.662.707-.707-.004-.004-.703.71Zm-.057-12.914-.707-.707-.004.003.711.704Zm16.143 0 .711-.704-.004-.003-.707.707Zm-.057 12.914-.703-.711-.004.004.707.707Zm-9.572 1.662c-2.267 0-4.164-.784-5.75-2.37l-1.414 1.415c1.964 1.964 4.371 2.955 7.164 2.955v-2Zm-5.754-2.373c-1.603-1.586-2.393-3.483-2.393-5.746h-2c0 2.796 1.003 5.204 2.987 7.168l1.406-1.422Zm-2.393-5.746c0-2.27.776-4.17 2.344-5.754l-1.422-1.407c-1.943 1.965-2.922 4.371-2.922 7.16h2Zm2.34-5.75c1.583-1.583 3.498-2.37 5.807-2.37v-2c-2.826 0-5.254.989-7.221 2.956l1.414 1.414Zm5.807-2.37h3.115v-2h-3.115v2Zm3.115 0c2.31 0 4.224.787 5.807 2.37l1.414-1.414c-1.967-1.967-4.395-2.955-7.221-2.955v2Zm5.803 2.366c1.568 1.585 2.345 3.483 2.345 5.754h2c0-2.79-.979-5.196-2.923-7.16l-1.422 1.406Zm2.345 5.754c0 2.263-.791 4.16-2.394 5.746l1.407 1.422c1.984-1.963 2.987-4.372 2.987-7.168h-2Zm-2.398 5.75c-1.585 1.585-3.483 2.369-5.75 2.369v2c2.793 0 5.2-.991 7.164-2.955l-1.414-1.414Zm-5.75 2.369h-3.115v2h3.115v-2Zm-3.115-29.623c-5.947 0-11.044 2.106-15.235 6.297l1.414 1.414c3.814-3.814 8.402-5.711 13.821-5.711v-2Zm-15.235 6.297c-4.191 4.19-6.297 9.278-6.297 15.207h2c0-5.4 1.896-9.978 5.711-13.793l-1.414-1.414Zm-6.297 15.207c0 5.947 2.106 11.044 6.297 15.235l1.414-1.414c-3.814-3.814-5.711-8.402-5.711-13.821h-2Zm6.297 15.235c4.191 4.191 9.288 6.297 15.235 6.297v-2c-5.419 0-10.007-1.897-13.821-5.711l-1.414 1.414ZM157.542 86h3.115v-2h-3.115v2Zm3.115 0c5.947 0 11.045-2.106 15.236-6.297l-1.415-1.414C170.664 82.103 166.076 84 160.657 84v2Zm15.236-6.297c4.191-4.19 6.296-9.288 6.296-15.235h-2c0 5.419-1.896 10.007-5.711 13.821l1.415 1.414Zm6.296-15.235c0-5.93-2.106-11.017-6.296-15.207l-1.415 1.414c3.815 3.815 5.711 8.394 5.711 13.793h2Zm-6.296-15.207c-4.191-4.191-9.289-6.297-15.236-6.297v2c5.419 0 10.007 1.897 13.821 5.71l1.415-1.413Zm-15.236-6.297h-3.115v2h3.115v-2Zm32.314 1v-1h-1v1h1Zm0 41.036h-1v1h1v-1Zm11.413 0v1h1v-1h-1Zm0-14.811v-1h-1v1h1Zm15.463 0v1h1v-1h-1Zm0-11.414h1v-1h-1v1Zm-15.463 0h-1v1h1v-1Zm0-3.426v-1h-1v1h1Zm18.323 0v1h1v-1h-1Zm0-11.385h1v-1h-1v1Zm-30.736 0V85h2V43.964h-2Zm1 42.036h11.413v-2h-11.413v2Zm12.413-1V70.189h-2V85h2Zm-1-13.811h15.463v-2h-15.463v2Zm16.463-1V58.775h-2V70.19h2Zm-1-12.414h-15.463v2h15.463v-2Zm-14.463 1V55.35h-2v3.426h2Zm-1-2.426h18.323v-2h-18.323v2Zm19.323-1V43.964h-2v11.385h2Zm-1-12.385h-29.736v2h29.736v-2Zm1.416 1v-1h-1v1h1Zm0 41.036h-1v1h1v-1Zm29.736 0v1h1v-1h-1Zm0-11.413h1v-1h-1v1Zm-18.323 0h-1v1h1v-1Zm0-3.398v-1h-1v1h1Zm18.323 0v1h1v-1h-1Zm0-11.414h1v-1h-1v1Zm-18.323 0h-1v1h1v-1Zm0-3.426v-1h-1v1h1Zm18.323 0v1h1v-1h-1Zm0-11.385h1v-1h-1v1Zm-30.736 0V85h2V43.964h-2Zm1 42.036h29.736v-2h-29.736v2Zm30.736-1V73.587h-2V85h2Zm-1-12.413h-18.323v2h18.323v-2Zm-17.323 1v-3.398h-2v3.398h2Zm-1-2.398h18.323v-2h-18.323v2Zm19.323-1V58.775h-2V70.19h2Zm-1-12.414h-18.323v2h18.323v-2Zm-17.323 1V55.35h-2v3.426h2Zm-1-2.426h18.323v-2h-18.323v2Zm19.323-1V43.964h-2v11.385h2Zm-1-12.385h-29.736v2h29.736v-2Zm12.829 1h1v-1h-1v1Zm-11.413 0v-1h-1v1h1Zm0 41.036h-1v1h1v-1Zm31.153 0v1h1v-1h-1Zm0-11.413h1v-1h-1v1Zm-19.74 0h-1v1h1v-1Zm0-30.623h-11.413v2h11.413v-2Zm-12.413 1V85h2V43.964h-2Zm1 42.036h31.153v-2h-31.153v2Zm32.153-1V73.587h-2V85h2Zm-1-12.413h-19.74v2h19.74v-2Zm-18.74 1V43.964h-2v29.623h2Zm31.569-29.623h1v-1h-1v1Zm-11.413 0v-1h-1v1h1Zm0 41.036h-1v1h1v-1Zm31.152 0v1h1v-1h-1Zm0-11.413h1v-1h-1v1Zm-19.739 0h-1v1h1v-1Zm0-30.623h-11.413v2h11.413v-2Zm-12.413 1V85h2V43.964h-2Zm1 42.036h31.152v-2h-31.152v2Zm32.152-1V73.587h-2V85h2Zm-1-12.413h-19.739v2h19.739v-2Zm-18.739 1V43.964h-2v29.623h2Zm32.531-2.662.707-.707-.004-.004-.703.71Zm-.057-12.914-.707-.707-.003.003.71.704Zm16.143 0 .711-.704-.004-.003-.707.707Zm-.057 12.914-.703-.711-.004.004.707.707Zm-9.572 1.662c-2.267 0-4.164-.784-5.75-2.37l-1.414 1.415c1.964 1.964 4.371 2.955 7.164 2.955v-2Zm-5.754-2.373c-1.603-1.586-2.393-3.483-2.393-5.746h-2c0 2.796 1.003 5.204 2.987 7.168l1.406-1.422Zm-2.393-5.746c0-2.27.776-4.17 2.344-5.754l-1.421-1.407c-1.944 1.965-2.923 4.371-2.923 7.16h2Zm2.341-5.75c1.582-1.583 3.497-2.37 5.806-2.37v-2c-2.826 0-5.254.989-7.221 2.956l1.415 1.414Zm5.806-2.37h3.115v-2h-3.115v2Zm3.115 0c2.31 0 4.225.787 5.807 2.37l1.414-1.414c-1.967-1.967-4.395-2.955-7.221-2.955v2Zm5.803 2.366c1.568 1.585 2.345 3.483 2.345 5.754h2c0-2.79-.979-5.196-2.923-7.16l-1.422 1.406Zm2.345 5.754c0 2.263-.791 4.16-2.394 5.746l1.407 1.422c1.984-1.963 2.987-4.372 2.987-7.168h-2Zm-2.398 5.75c-1.585 1.585-3.483 2.369-5.75 2.369v2c2.793 0 5.201-.991 7.164-2.955l-1.414-1.414Zm-5.75 2.369h-3.115v2h3.115v-2Zm-3.115-29.623c-5.947 0-11.044 2.106-15.235 6.297l1.414 1.414c3.814-3.814 8.402-5.711 13.821-5.711v-2ZM324.01 49.26c-4.191 4.19-6.297 9.278-6.297 15.207h2c0-5.4 1.896-9.978 5.711-13.793l-1.414-1.414Zm-6.297 15.207c0 5.947 2.106 11.044 6.297 15.235l1.414-1.414c-3.814-3.814-5.711-8.402-5.711-13.821h-2Zm6.297 15.235c4.191 4.191 9.288 6.297 15.235 6.297v-2c-5.419 0-10.007-1.897-13.821-5.711l-1.414 1.414ZM339.245 86h3.115v-2h-3.115v2Zm3.115 0c5.947 0 11.045-2.106 15.236-6.297l-1.414-1.414C352.367 82.103 347.779 84 342.36 84v2Zm15.236-6.297c4.191-4.19 6.297-9.288 6.297-15.235h-2c0 5.419-1.897 10.007-5.711 13.821l1.414 1.414Zm6.297-15.235c0-5.93-2.107-11.017-6.297-15.207l-1.414 1.414c3.814 3.815 5.711 8.394 5.711 13.793h2Zm-6.297-15.207c-4.191-4.191-9.289-6.297-15.236-6.297v2c5.419 0 10.007 1.897 13.822 5.71l1.414-1.413Zm-15.236-6.297h-3.115v2h3.115v-2Zm51.005 16.123-.975.223 1.95.001-.975-.224Zm-3.455-15.123.975-.223-.178-.777h-.797v1Zm-10.082 0v-1h-.796l-.178.775.974.225Zm-3.483 15.123-.975.223 1.949.001-.974-.224Zm-3.455-15.123.975-.223-.178-.777h-.797v1Zm-12.263 0v-1h-1.255l.28 1.223.975-.223ZM370.029 85l-.974.223.178.777h.796v-1Zm11.215 0v1h.785l.187-.763-.972-.237Zm3.738-15.293.991-.134-1.962-.103.971.237ZM387.05 85l-.991.134.117.866h.874v-1Zm12.631 0v1h.785l.186-.763-.971-.237Zm9.997-41.036.971.237.302-1.237h-1.273v1Zm-12.829 0v-1h-.796l-.179.775.975.225Zm-2.509 14.9-3.455-15.123-1.95.446 3.455 15.123 1.95-.446Zm-4.43-15.9h-10.082v2h10.082v-2Zm-11.056.775-3.484 15.123 1.949.45 3.484-15.124-1.949-.449Zm-1.534 15.125-3.455-15.123-1.95.446 3.455 15.123 1.95-.446Zm-4.43-15.9h-12.263v2h12.263v-2Zm-13.238 1.223 9.403 41.036 1.949-.446-9.402-41.037-1.95.447ZM370.029 86h11.215v-2h-11.215v2Zm12.187-.763 3.738-15.292-1.943-.475-3.738 15.293 1.943.474Zm1.775-15.396 2.068 15.293 1.982-.268-2.068-15.293-1.982.268ZM387.05 86h12.631v-2H387.05v2Zm13.602-.763 9.997-41.036-1.943-.474-9.997 41.036 1.943.474Zm9.026-42.273h-12.829v2h12.829v-2Zm-13.804.775-3.483 15.123 1.949.45 3.483-15.124-1.949-.449Zm50.847 29.848v1h1v-1h-1Zm-11.187-2.662.707-.707-.003-.004-.704.71Zm-.056-12.914-.708-.707-.003.003.711.704Zm22.458-2.662v1h1v-1h-1Zm0-11.385h1v-1h-1v1ZM458.134 85v1h1v-1h-1Zm0-20.136h1v-1h-1v1Zm-11.413 0v-1h-1v1h1Zm0 7.723h-4.73v2h4.73v-2Zm-4.73 0c-2.267 0-4.164-.784-5.75-2.37l-1.414 1.415c1.964 1.964 4.371 2.955 7.164 2.955v-2Zm-5.753-2.373c-1.604-1.586-2.394-3.483-2.394-5.746h-2c0 2.796 1.003 5.204 2.987 7.168l1.407-1.422Zm-2.394-5.746c0-2.27.777-4.17 2.344-5.754l-1.421-1.407c-1.944 1.965-2.923 4.371-2.923 7.16h2Zm2.341-5.75c1.582-1.583 3.497-2.37 5.806-2.37v-2c-2.826 0-5.254.989-7.221 2.956l1.415 1.414Zm5.806-2.37h15.945v-2h-15.945v2Zm16.945-1V43.965h-2V55.35h2Zm-1-12.384h-15.945v2h15.945v-2Zm-15.945 0c-5.947 0-11.044 2.106-15.235 6.297l1.414 1.414c3.814-3.814 8.402-5.711 13.821-5.711v-2Zm-15.235 6.297c-4.19 4.19-6.297 9.278-6.297 15.207h2c0-5.4 1.896-9.978 5.711-13.793l-1.414-1.414Zm-6.297 15.207c0 5.947 2.106 11.044 6.297 15.235l1.414-1.414c-3.814-3.814-5.711-8.402-5.711-13.821h-2Zm6.297 15.235c4.191 4.191 9.288 6.297 15.235 6.297v-2c-5.419 0-10.007-1.897-13.821-5.711l-1.414 1.414ZM441.991 86h16.143v-2h-16.143v2Zm17.143-1V64.864h-2V85h2Zm-1-21.136h-11.413v2h11.413v-2Zm-12.413 1v8.723h2v-8.723h-2Zm33.115 5.381-.935-.354-.513 1.354h1.448v-1Zm3.88-10.252.935-.354-.935-2.471-.935 2.471.935.354Zm3.88 10.252v1h1.447l-.512-1.354-.935.354Zm-10.762-26.281v-1h-.679l-.251.632.93.368ZM459.578 85l-.93-.368-.542 1.368h1.472v-1Zm13.679 0v1h.691l.244-.647-.935-.353Zm1.529-4.05v-1h-.691l-.244.647.935.353Zm15.831 0 .934-.359-.247-.64h-.687v1Zm1.558 4.05-.934.359.247.641h.687v-1Zm13.112 0v1h1.453l-.519-1.357-.934.357Zm-15.689-41.036.934-.357-.246-.643h-.688v1Zm-9.827 26.635 3.88-10.252-1.87-.708-3.88 10.252 1.87.708Zm2.01-10.252L485.66 70.6l1.871-.708-3.88-10.252-1.87.708Zm4.815 8.898h-7.76v2h7.76v-2Zm-11.692-25.65-16.256 41.037 1.86.736 16.256-41.036-1.86-.736ZM459.578 86h13.679v-2h-13.679v2Zm14.614-.647 1.53-4.05-1.871-.706-1.53 4.05 1.871.706Zm.594-3.403h15.831v-2h-15.831v2Zm14.898-.64 1.557 4.049 1.867-.718-1.557-4.05-1.867.718Zm2.491 4.69h13.112v-2h-13.112v2Zm14.046-1.357-15.689-41.036-1.868.714 15.689 41.036 1.868-.714Zm-16.623-41.68h-13.764v2h13.764v-2Zm54.12 27.282-.935-.354-.513 1.354h1.448v-1Zm3.88-10.252.935-.354-.935-2.471-.936 2.471.936.354Zm3.88 10.252v1h1.447l-.512-1.354-.935.354Zm-33.362 3.342h-1v1h1v-1Zm0-29.623h1v-1h-1v1Zm-11.413 0v-1h-1v1h1Zm0 41.036h-1v1h1v-1Zm31.436 0v1h.691l.244-.647-.935-.353Zm1.529-4.05v-1h-.691l-.245.647.936.353Zm15.831 0 .933-.359-.246-.64h-.687v1Zm1.558 4.05-.934.359.247.641h.687v-1Zm13.112 0v1h1.453l-.519-1.357-.934.357Zm-15.69-41.036.935-.357-.246-.643h-.689v1Zm-13.763 0v-1h-.68l-.25.632.93.368Zm-11.725 29.623v1h.68l.25-.632-.93-.368Zm15.662-2.988 3.88-10.252-1.871-.708-3.879 10.252 1.87.708Zm2.009-10.252 3.88 10.252 1.871-.708-3.88-10.252-1.871.708Zm4.816 8.898h-7.76v2h7.76v-2Zm-32.362 4.342V43.964h-2v29.623h2Zm-1-30.623h-11.413v2h11.413v-2Zm-12.413 1V85h2V43.964h-2Zm1 42.036h31.436v-2h-31.436v2Zm32.371-.647 1.53-4.05-1.872-.706-1.529 4.05 1.871.706Zm.594-3.403h15.831v-2h-15.831v2Zm14.898-.64 1.557 4.049 1.867-.718-1.558-4.05-1.866.718Zm2.491 4.69h13.112v-2h-13.112v2Zm14.046-1.357-15.689-41.036-1.869.714 15.69 41.036 1.868-.714Zm-16.624-41.68h-13.763v2h13.763v-2Zm-14.693.633-11.725 29.623 1.86.736 11.725-29.623-1.86-.736Zm-10.795 28.99h-10.875v2h10.875v-2Zm82.582-28.622.848.53.957-1.53h-1.805v1Zm-14.443 0v-1h-.557l-.293.474.85.526Zm-5.523 8.92-.849.53.852 1.367.848-1.37-.851-.526Zm-5.55-8.92.849-.528-.294-.472h-.555v1Zm-14.444 0v-1h-1.804l.956 1.53.848-.53Zm.142.226.849-.528-.001-.002-.848.53Zm12.631 20.278.849.528.329-.529-.329-.528-.849.529Zm-12.631 20.305.848.53.001-.001-.849-.529Zm-.142.227-.848-.53-.956 1.53h1.804v-1Zm14.444 0v1h.555l.294-.472-.849-.528Zm5.55-8.92.851-.527-.848-1.37-.852 1.368.849.528ZM597.13 85l-.85.526.293.474h.557v-1Zm14.443 0v1h1.805l-.957-1.53-.848.53Zm-.141-.227-.849.529.001.001.848-.53Zm-12.631-20.305-.849-.529-.329.528.329.529.849-.528Zm12.631-20.278-.848-.53-.001.002.849.528Zm.141-1.226H597.13v2h14.443v-2Zm-15.293.474-5.523 8.92 1.701 1.053 5.522-8.92-1.7-1.053Zm-3.824 8.918-5.55-8.92-1.698 1.056 5.55 8.921 1.698-1.056Zm-6.399-9.392h-14.444v2h14.444v-2Zm-15.292 1.53.142.226 1.696-1.06-.142-.226-1.696 1.06Zm.141.225 12.631 20.277 1.698-1.057-12.631-20.277-1.698 1.057Zm12.631 19.22-12.631 20.306 1.698 1.057 12.631-20.306-1.698-1.056Zm-12.63 20.304-.142.227 1.696 1.06.142-.227-1.696-1.06Zm.706 1.757h14.444v-2h-14.444v2Zm15.293-.472 5.55-8.92-1.698-1.057-5.55 8.92 1.698 1.057Zm3.851-8.922 5.523 8.92 1.7-1.052-5.522-8.921-1.701 1.053ZM597.13 86h14.443v-2H597.13v2Zm15.291-1.53-.141-.227-1.696 1.06.141.227 1.696-1.06Zm-.14-.225L599.65 63.94l-1.698 1.056 12.631 20.306 1.698-1.057ZM599.65 64.996l12.63-20.277-1.697-1.057-12.631 20.277 1.698 1.057Zm12.63-20.276.141-.226-1.696-1.06-.141.226 1.696 1.06Zm22.431 13.29-.858.515.856 1.43.859-1.43-.857-.514ZM626.3 43.965l.858-.514-.291-.486h-.567v1Zm-13.282 0v-1h-1.766l.908 1.514.858-.514Zm15.066 25.12.862-.508-.004-.006-.858.514Zm.935 1.586h1v-.273l-.139-.235-.861.508Zm0 14.33h-1v1h1v-1Zm11.413 0v1h1v-1h-1Zm0-14.33-.862-.508-.138.235v.273h1Zm.934-1.586-.857-.514-.004.006.861.508Zm15.067-25.12.857.514.908-1.514h-1.765v1Zm-13.283 0v-1h-.565l-.292.485.857.515Zm-7.581 13.533-8.411-14.047-1.716 1.028 8.411 14.047 1.716-1.028ZM626.3 42.964h-13.282v2H626.3v-2Zm-14.14 1.514 15.066 25.12 1.716-1.028-15.067-25.12-1.715 1.028Zm15.062 25.114.935 1.586 1.723-1.016-.935-1.586-1.723 1.016Zm.797 1.078V85h2V70.67h-2Zm1 15.33h11.413v-2h-11.413v2Zm12.413-1V70.67h-2V85h2Zm-.139-13.822.935-1.586-1.723-1.016-.935 1.586 1.723 1.016Zm.931-1.58 15.066-25.12-1.715-1.029-15.066 25.12 1.715 1.03Zm14.209-26.634H643.15v2h13.283v-2Zm-14.14.485-8.439 14.047 1.714 1.03 8.44-14.047-1.715-1.03Zm48.379 19.065-.888.46.958 1.851.844-1.907-.914-.404Zm-9.601-18.55.888-.46-.279-.54h-.609v1Zm-12.829 0v-1h-1v1h1Zm0 41.036h-1v1h1v-1Zm11.413 0v1h1v-1h-1Zm0-18.012.851-.525-1.851-2.998v3.523h1Zm11.017 17.842-.851.526.85 1.376.851-1.376-.85-.526Zm11.045-17.842h1v-3.515l-1.85 2.989.85.526Zm0 18.012h-1v1h1v-1Zm11.413 0v1h1v-1h-1Zm0-41.036h1v-1h-1v1Zm-14.245 0v-1h-.651l-.264.595.915.405Zm-7.325 18.09-9.601-18.55-1.776.92 9.601 18.55 1.776-.92Zm-10.489-19.09h-12.829v2h12.829v-2Zm-13.829 1V85h2V43.964h-2Zm1 42.036h11.413v-2h-11.413v2Zm12.413-1V66.988h-2V85h2Zm-1.851-17.486 11.017 17.842 1.702-1.051-11.017-17.842-1.702 1.05Zm12.718 17.842 11.045-17.841-1.7-1.053-11.045 17.842 1.7 1.052Zm9.195-18.368V85h2V66.988h-2Zm1 19.012h11.413v-2h-11.413v2Zm12.413-1V43.964h-2V85h2Zm-1-42.036h-14.245v2h14.245v-2Zm-15.16.595-8.212 18.55 1.828.81 8.213-18.55-1.829-.81Zm16.604.405v-1h-1v1h1Zm0 41.036h-1v1h1v-1Zm29.737 0v1h1v-1h-1Zm0-11.413h1v-1h-1v1Zm-18.324 0h-1v1h1v-1Zm0-3.398v-1h-1v1h1Zm18.324 0v1h1v-1h-1Zm0-11.414h1v-1h-1v1Zm-18.324 0h-1v1h1v-1Zm0-3.426v-1h-1v1h1Zm18.324 0v1h1v-1h-1Zm0-11.385h1v-1h-1v1Zm-30.737 0V85h2V43.964h-2Zm1 42.036h29.737v-2h-29.737v2Zm30.737-1V73.587h-2V85h2Zm-1-12.413h-18.324v2h18.324v-2Zm-17.324 1v-3.398h-2v3.398h2Zm-1-2.398h18.324v-2h-18.324v2Zm19.324-1V58.775h-2V70.19h2Zm-1-12.414h-18.324v2h18.324v-2Zm-17.324 1V55.35h-2v3.426h2Zm-1-2.426h18.324v-2h-18.324v2Zm19.324-1V43.964h-2v11.385h2Zm-1-12.385h-29.737v2h29.737v-2Zm23.845 19.55-.888.46.959 1.851.844-1.907-.915-.404Zm-9.6-18.55.888-.46-.28-.54h-.608v1Zm-12.829 0v-1h-1v1h1Zm0 41.036h-1v1h1v-1Zm11.413 0v1h1v-1h-1Zm0-18.012.851-.525-1.851-2.998v3.523h1Zm11.016 17.842-.851.526.85 1.376.852-1.376-.851-.526Zm11.045-17.842h1v-3.515l-1.85 2.989.85.526Zm0 18.012h-1v1h1v-1Zm11.413 0v1h1v-1h-1Zm0-41.036h1v-1h-1v1Zm-14.245 0v-1h-.651l-.263.595.914.405Zm-7.325 18.09-9.6-18.55-1.776.92 9.6 18.55 1.776-.92Zm-10.488-19.09h-12.829v2h12.829v-2Zm-13.829 1V85h2V43.964h-2Zm1 42.036h11.413v-2h-11.413v2Zm12.413-1V66.988h-2V85h2Zm-1.851-17.486 11.016 17.842 1.702-1.051-11.016-17.842-1.702 1.05Zm12.718 17.842 11.044-17.841-1.7-1.053-11.045 17.842 1.701 1.052Zm9.194-18.368V85h2V66.988h-2Zm1 19.012h11.413v-2h-11.413v2Zm12.413-1V43.964h-2V85h2Zm-1-42.036h-14.245v2h14.245v-2Zm-15.159.595-8.213 18.55 1.829.81 8.213-18.55-1.829-.81Zm40.393 14.933-.785-.62-.003.004.788.616Zm-12.348.652h-1v1h1v-1Zm0-3.852v-1h-1v1h1Zm12.263.566-.762.648.009.01.009.011.744-.669ZM803.5 73.587h-1v1h1v-1Zm0-3.852v-1h-1v1h1Zm12.404.765-.832.555.011.015.011.016.81-.586Zm-.141 2.52-.744-.668-.009.01-.009.01.762.648Zm-23.704-29.056v-1h-1v1h1Zm0 41.036h-1v1h1v-1Zm25.035 0v1h.011l-.011-1Zm8.326-3.965-.749-.662-.003.003.752.66Zm1.699-16.85-.877-.482-.276.505.296.492.857-.515Zm-3.54-17.899.507-.862h-.001l-.506.862Zm-8.519 11.59c-.168.215-.312.268-.487.268v2c.845 0 1.551-.382 2.062-1.035l-1.575-1.233Zm-.487.268H803.5v2h11.073v-2Zm-10.073 1v-3.852h-2v3.852h2Zm-1-2.852h11.073v-2H803.5v2Zm11.073 0c.163 0 .286.047.428.214l1.524-1.295c-.5-.589-1.17-.919-1.952-.919v2Zm.446.235a.962.962 0 0 1 .253.69h2c0-.764-.254-1.458-.766-2.028l-1.487 1.338Zm.253.69c0 .285-.076.487-.209.656l1.57 1.239a2.994 2.994 0 0 0 .639-1.894h-2ZM804.5 73.588v-3.852h-2v3.852h2Zm-1-2.852h11.073v-2H803.5v2Zm11.073 0c.169 0 .319.05.499.32l1.664-1.11c-.499-.749-1.237-1.21-2.163-1.21v2Zm.521.35a.939.939 0 0 1 .178.576h2a2.93 2.93 0 0 0-.557-1.746l-1.621 1.17Zm.178.576a.961.961 0 0 1-.253.69l1.487 1.338a2.96 2.96 0 0 0 .766-2.028h-2Zm-.271.712c-.142.167-.265.214-.428.214v2c.782 0 1.452-.33 1.952-.919l-1.524-1.295Zm-.428.214H803.5v2h11.073v-2Zm-23.514-28.623V85h2V43.964h-2Zm1 42.036h25.035v-2h-25.035v2Zm25.046 0c3.569-.041 6.608-1.501 9.067-4.306l-1.504-1.318c-2.11 2.406-4.622 3.59-7.586 3.624l.023 2Zm9.064-4.302c2.473-2.798 3.706-6.162 3.706-10.037h-2c0 3.413-1.071 6.299-3.204 8.712l1.498 1.325Zm3.706-10.037c0-3.162-.608-5.847-1.899-7.992l-1.714 1.031c1.051 1.745 1.613 4.043 1.613 6.961h2Zm-1.879-6.995c1.254-2.286 1.879-4.775 1.879-7.448h-2c0 2.348-.546 4.504-1.633 6.485l1.754.963Zm1.879-7.448c0-5.454-1.868-9.487-5.789-11.794l-1.014 1.724c3.14 1.847 4.803 5.102 4.803 10.07h2Zm-5.79-11.795c-2.875-1.683-7.141-2.46-12.655-2.46v2c5.398 0 9.232.773 11.644 2.186l1.011-1.726Zm-12.655-2.46h-19.371v2h19.371v-2Zm18.861 1v-1h-1v1h1Zm0 41.037h-1v1h1v-1Zm29.736 0v1h1v-1h-1Zm0-11.413h1v-1h-1v1Zm-18.323 0h-1v1h1v-1Zm0-3.398v-1h-1v1h1Zm18.323 0v1h1v-1h-1Zm0-11.414h1v-1h-1v1Zm-18.323 0h-1v1h1v-1Zm0-3.426v-1h-1v1h1Zm18.323 0v1h1v-1h-1Zm0-11.385h1v-1h-1v1Zm-30.736 0V85h2V43.964h-2Zm1 42.036h29.736v-2h-29.736v2Zm30.736-1V73.587h-2V85h2Zm-1-12.413h-18.323v2h18.323v-2Zm-17.323 1V70.19h-2v3.398h2Zm-1-2.398h18.323v-2h-18.323v2Zm19.323-1V58.775h-2V70.19h2Zm-1-12.414h-18.323v2h18.323v-2Zm-17.323 1V55.35h-2v3.426h2Zm-1-2.426h18.323v-2h-18.323v2Zm19.323-1V43.964h-2v11.385h2Zm-1-12.385h-29.736v2h29.736v-2Zm31.493 5.531-.712.703.002.002.71-.705Zm-10.706-4.531.009-1h-.009v1Zm-19.371 0v-1h-1v1h1Zm0 41.036h-1v1h1v-1Zm11.413 0v1h1v-1h-1Zm0-7.335.777-.63-1.777-2.186v2.816h1Zm.765.878.732-.681-.001-.001-.731.682ZM895.088 85v1h1v-1h-1Zm0-11.413h1v-1h-1v1Zm-8.185-.425-.408-.913-2.846 1.274 3.056.62.198-.98Zm6.514-5.522.833.553.002-.003-.835-.55Zm-20.561-5.013h-1v1h1v-1Zm0-5.608v-1h-1v1h1Zm24.082 2.21c0-4.455-1.577-8.286-4.709-11.439l-1.419 1.41c2.759 2.776 4.128 6.1 4.128 10.028h2Zm-4.707-11.437c-3.131-3.17-6.952-4.788-11.408-4.828l-.018 2c3.928.035 7.243 1.439 10.003 4.234l1.423-1.406Zm-11.417-4.828h-19.371v2h19.371v-2Zm-20.371 1V85h2V43.964h-2Zm1 42.036h11.413v-2h-11.413v2Zm12.413-1v-7.335h-2V85h2Zm-1.776-6.704c.26.32.53.63.81.93l1.462-1.365a16.19 16.19 0 0 1-.719-.827l-1.553 1.262Zm.809.928C877.142 83.798 883.464 86 891.661 86v-2c-7.851 0-13.555-2.103-17.308-6.138l-1.464 1.362ZM891.661 86h3.427v-2h-3.427v2Zm4.427-1V73.587h-2V85h2Zm-1-12.413h-3.427v2h3.427v-2Zm-3.427 0c-1.723 0-3.241-.138-4.559-.405l-.397 1.96c1.476.3 3.13.445 4.956.445v-2Zm-4.349 1.488c2.873-1.286 5.191-3.252 6.938-5.882l-1.666-1.107c-1.538 2.317-3.563 4.033-6.089 5.163l.817 1.826Zm6.94-5.885c1.788-2.712 2.686-5.708 2.686-8.962h-2c0 2.864-.783 5.476-2.356 7.861l1.67 1.101Zm-20.396-5.563v-5.608h-2v5.608h2Zm-1-4.608h6.939v-2h-6.939v2Zm6.939 0c.509 0 .915.169 1.275.529l1.414-1.414a3.7 3.7 0 0 0-2.689-1.114v2Zm1.275.529c.36.36.529.767.529 1.275h2a3.7 3.7 0 0 0-1.115-2.69l-1.414 1.415Zm.529 1.275c0 .509-.169.916-.529 1.276l1.414 1.414a3.701 3.701 0 0 0 1.115-2.69h-2Zm-.529 1.276c-.36.36-.766.528-1.275.528v2a3.7 3.7 0 0 0 2.689-1.114l-1.414-1.414Zm-1.275.528h-6.939v2h6.939v-2Z"/>
  </g>
  <g filter="url(#c)">
    <path fill="#CEB7FF" d="M29.62 58.775v1h1v-1h-1Zm-12.207 0h-1v1h1v-1Zm0-14.811h1v-1h-1v1ZM6 43.964v-1H5v1h1ZM6 85H5v1h1v-1Zm11.413 0v1h1v-1h-1Zm0-14.811v-1h-1v1h1Zm12.206 0h1v-1h-1v1Zm0 14.811h-1v1h1v-1Zm11.385 0v1h1v-1h-1Zm0-41.036h1v-1h-1v1Zm-11.385 0v-1h-1v1h1Zm0 13.811H17.413v2H29.62v-2Zm-11.206 1V43.964h-2v14.811h2Zm-1-15.811H6v2h11.413v-2ZM5 43.964V85h2V43.964H5ZM6 86h11.413v-2H6v2Zm12.413-1V70.189h-2V85h2Zm-1-13.811H29.62v-2H17.413v2Zm11.206-1V85h2V70.189h-2Zm1 15.811h11.385v-2H29.619v2Zm12.385-1V43.964h-2V85h2Zm-1-42.036H29.619v2h11.385v-2Zm-12.385 1v14.811h2V43.964h-2Zm13.8 0v-1h-1v1h1Zm0 41.036h-1v1h1v-1Zm29.737 0v1h1v-1h-1Zm0-11.413h1v-1h-1v1Zm-18.323 0h-1v1h1v-1Zm0-3.398v-1h-1v1h1Zm18.323 0v1h1v-1h-1Zm0-11.414h1v-1h-1v1Zm-18.323 0h-1v1h1v-1Zm0-3.426v-1h-1v1h1Zm18.323 0v1h1v-1h-1Zm0-11.385h1v-1h-1v1Zm-30.736 0V85h2V43.964h-2Zm1 42.036h29.736v-2H42.42v2Zm30.736-1V73.587h-2V85h2Zm-1-12.413H53.833v2h18.323v-2Zm-17.323 1v-3.398h-2v3.398h2Zm-1-2.398h18.323v-2H53.833v2Zm19.323-1V58.775h-2V70.19h2Zm-1-12.414H53.833v2h18.323v-2Zm-17.323 1V55.35h-2v3.426h2Zm-1-2.426h18.323v-2H53.833v2Zm19.323-1V43.964h-2v11.385h2Zm-1-12.385H42.42v2h29.736v-2Zm12.83 1h1v-1h-1v1Zm-11.414 0v-1h-1v1h1Zm0 41.036h-1v1h1v-1Zm31.153 0v1h1v-1h-1Zm0-11.413h1v-1h-1v1Zm-19.74 0h-1v1h1v-1Zm0-30.623H73.572v2h11.413v-2Zm-12.413 1V85h2V43.964h-2Zm1 42.036h31.153v-2H73.572v2Zm32.153-1V73.587h-2V85h2Zm-1-12.413h-19.74v2h19.74v-2Zm-18.74 1V43.964h-2v29.623h2Zm31.569-29.623h1v-1h-1v1Zm-11.413 0v-1h-1v1h1Zm0 41.036h-1v1h1v-1Zm31.152 0v1h1v-1h-1Zm0-11.413h1v-1h-1v1Zm-19.739 0h-1v1h1v-1Zm0-30.623h-11.413v2h11.413v-2Zm-12.413 1V85h2V43.964h-2Zm1 42.036h31.152v-2h-31.152v2Zm32.152-1V73.587h-2V85h2Zm-1-12.413h-19.739v2h19.739v-2Zm-18.739 1V43.964h-2v29.623h2Zm32.531-2.662.707-.707-.004-.004-.703.71Zm-.057-12.914-.707-.707-.004.003.711.704Zm16.143 0 .711-.704-.004-.003-.707.707Zm-.057 12.914-.703-.711-.004.004.707.707Zm-9.572 1.662c-2.267 0-4.164-.784-5.75-2.37l-1.414 1.415c1.964 1.964 4.371 2.955 7.164 2.955v-2Zm-5.754-2.373c-1.603-1.586-2.393-3.483-2.393-5.746h-2c0 2.796 1.003 5.204 2.987 7.168l1.406-1.422Zm-2.393-5.746c0-2.27.776-4.17 2.344-5.754l-1.422-1.407c-1.943 1.965-2.922 4.371-2.922 7.16h2Zm2.34-5.75c1.583-1.583 3.498-2.37 5.807-2.37v-2c-2.826 0-5.254.989-7.221 2.956l1.414 1.414Zm5.807-2.37h3.115v-2h-3.115v2Zm3.115 0c2.31 0 4.224.787 5.807 2.37l1.414-1.414c-1.967-1.967-4.395-2.955-7.221-2.955v2Zm5.803 2.366c1.568 1.585 2.345 3.483 2.345 5.754h2c0-2.79-.979-5.196-2.923-7.16l-1.422 1.406Zm2.345 5.754c0 2.263-.791 4.16-2.394 5.746l1.407 1.422c1.984-1.963 2.987-4.372 2.987-7.168h-2Zm-2.398 5.75c-1.585 1.585-3.483 2.369-5.75 2.369v2c2.793 0 5.2-.991 7.164-2.955l-1.414-1.414Zm-5.75 2.369h-3.115v2h3.115v-2Zm-3.115-29.623c-5.947 0-11.044 2.106-15.235 6.297l1.414 1.414c3.814-3.814 8.402-5.711 13.821-5.711v-2Zm-15.235 6.297c-4.191 4.19-6.297 9.278-6.297 15.207h2c0-5.4 1.896-9.978 5.711-13.793l-1.414-1.414Zm-6.297 15.207c0 5.947 2.106 11.044 6.297 15.235l1.414-1.414c-3.814-3.814-5.711-8.402-5.711-13.821h-2Zm6.297 15.235c4.191 4.191 9.288 6.297 15.235 6.297v-2c-5.419 0-10.007-1.897-13.821-5.711l-1.414 1.414ZM157.542 86h3.115v-2h-3.115v2Zm3.115 0c5.947 0 11.045-2.106 15.236-6.297l-1.415-1.414C170.664 82.103 166.076 84 160.657 84v2Zm15.236-6.297c4.191-4.19 6.296-9.288 6.296-15.235h-2c0 5.419-1.896 10.007-5.711 13.821l1.415 1.414Zm6.296-15.235c0-5.93-2.106-11.017-6.296-15.207l-1.415 1.414c3.815 3.815 5.711 8.394 5.711 13.793h2Zm-6.296-15.207c-4.191-4.191-9.289-6.297-15.236-6.297v2c5.419 0 10.007 1.897 13.821 5.71l1.415-1.413Zm-15.236-6.297h-3.115v2h3.115v-2Zm32.314 1v-1h-1v1h1Zm0 41.036h-1v1h1v-1Zm11.413 0v1h1v-1h-1Zm0-14.811v-1h-1v1h1Zm15.463 0v1h1v-1h-1Zm0-11.414h1v-1h-1v1Zm-15.463 0h-1v1h1v-1Zm0-3.426v-1h-1v1h1Zm18.323 0v1h1v-1h-1Zm0-11.385h1v-1h-1v1Zm-30.736 0V85h2V43.964h-2Zm1 42.036h11.413v-2h-11.413v2Zm12.413-1V70.189h-2V85h2Zm-1-13.811h15.463v-2h-15.463v2Zm16.463-1V58.775h-2V70.19h2Zm-1-12.414h-15.463v2h15.463v-2Zm-14.463 1V55.35h-2v3.426h2Zm-1-2.426h18.323v-2h-18.323v2Zm19.323-1V43.964h-2v11.385h2Zm-1-12.385h-29.736v2h29.736v-2Zm1.416 1v-1h-1v1h1Zm0 41.036h-1v1h1v-1Zm29.736 0v1h1v-1h-1Zm0-11.413h1v-1h-1v1Zm-18.323 0h-1v1h1v-1Zm0-3.398v-1h-1v1h1Zm18.323 0v1h1v-1h-1Zm0-11.414h1v-1h-1v1Zm-18.323 0h-1v1h1v-1Zm0-3.426v-1h-1v1h1Zm18.323 0v1h1v-1h-1Zm0-11.385h1v-1h-1v1Zm-30.736 0V85h2V43.964h-2Zm1 42.036h29.736v-2h-29.736v2Zm30.736-1V73.587h-2V85h2Zm-1-12.413h-18.323v2h18.323v-2Zm-17.323 1v-3.398h-2v3.398h2Zm-1-2.398h18.323v-2h-18.323v2Zm19.323-1V58.775h-2V70.19h2Zm-1-12.414h-18.323v2h18.323v-2Zm-17.323 1V55.35h-2v3.426h2Zm-1-2.426h18.323v-2h-18.323v2Zm19.323-1V43.964h-2v11.385h2Zm-1-12.385h-29.736v2h29.736v-2Zm12.829 1h1v-1h-1v1Zm-11.413 0v-1h-1v1h1Zm0 41.036h-1v1h1v-1Zm31.153 0v1h1v-1h-1Zm0-11.413h1v-1h-1v1Zm-19.74 0h-1v1h1v-1Zm0-30.623h-11.413v2h11.413v-2Zm-12.413 1V85h2V43.964h-2Zm1 42.036h31.153v-2h-31.153v2Zm32.153-1V73.587h-2V85h2Zm-1-12.413h-19.74v2h19.74v-2Zm-18.74 1V43.964h-2v29.623h2Zm31.569-29.623h1v-1h-1v1Zm-11.413 0v-1h-1v1h1Zm0 41.036h-1v1h1v-1Zm31.152 0v1h1v-1h-1Zm0-11.413h1v-1h-1v1Zm-19.739 0h-1v1h1v-1Zm0-30.623h-11.413v2h11.413v-2Zm-12.413 1V85h2V43.964h-2Zm1 42.036h31.152v-2h-31.152v2Zm32.152-1V73.587h-2V85h2Zm-1-12.413h-19.739v2h19.739v-2Zm-18.739 1V43.964h-2v29.623h2Zm32.531-2.662.707-.707-.004-.004-.703.71Zm-.057-12.914-.707-.707-.003.003.71.704Zm16.143 0 .711-.704-.004-.003-.707.707Zm-.057 12.914-.703-.711-.004.004.707.707Zm-9.572 1.662c-2.267 0-4.164-.784-5.75-2.37l-1.414 1.415c1.964 1.964 4.371 2.955 7.164 2.955v-2Zm-5.754-2.373c-1.603-1.586-2.393-3.483-2.393-5.746h-2c0 2.796 1.003 5.204 2.987 7.168l1.406-1.422Zm-2.393-5.746c0-2.27.776-4.17 2.344-5.754l-1.421-1.407c-1.944 1.965-2.923 4.371-2.923 7.16h2Zm2.341-5.75c1.582-1.583 3.497-2.37 5.806-2.37v-2c-2.826 0-5.254.989-7.221 2.956l1.415 1.414Zm5.806-2.37h3.115v-2h-3.115v2Zm3.115 0c2.31 0 4.225.787 5.807 2.37l1.414-1.414c-1.967-1.967-4.395-2.955-7.221-2.955v2Zm5.803 2.366c1.568 1.585 2.345 3.483 2.345 5.754h2c0-2.79-.979-5.196-2.923-7.16l-1.422 1.406Zm2.345 5.754c0 2.263-.791 4.16-2.394 5.746l1.407 1.422c1.984-1.963 2.987-4.372 2.987-7.168h-2Zm-2.398 5.75c-1.585 1.585-3.483 2.369-5.75 2.369v2c2.793 0 5.201-.991 7.164-2.955l-1.414-1.414Zm-5.75 2.369h-3.115v2h3.115v-2Zm-3.115-29.623c-5.947 0-11.044 2.106-15.235 6.297l1.414 1.414c3.814-3.814 8.402-5.711 13.821-5.711v-2ZM324.01 49.26c-4.191 4.19-6.297 9.278-6.297 15.207h2c0-5.4 1.896-9.978 5.711-13.793l-1.414-1.414Zm-6.297 15.207c0 5.947 2.106 11.044 6.297 15.235l1.414-1.414c-3.814-3.814-5.711-8.402-5.711-13.821h-2Zm6.297 15.235c4.191 4.191 9.288 6.297 15.235 6.297v-2c-5.419 0-10.007-1.897-13.821-5.711l-1.414 1.414ZM339.245 86h3.115v-2h-3.115v2Zm3.115 0c5.947 0 11.045-2.106 15.236-6.297l-1.414-1.414C352.367 82.103 347.779 84 342.36 84v2Zm15.236-6.297c4.191-4.19 6.297-9.288 6.297-15.235h-2c0 5.419-1.897 10.007-5.711 13.821l1.414 1.414Zm6.297-15.235c0-5.93-2.107-11.017-6.297-15.207l-1.414 1.414c3.814 3.815 5.711 8.394 5.711 13.793h2Zm-6.297-15.207c-4.191-4.191-9.289-6.297-15.236-6.297v2c5.419 0 10.007 1.897 13.822 5.71l1.414-1.413Zm-15.236-6.297h-3.115v2h3.115v-2Zm51.005 16.123-.975.223 1.95.001-.975-.224Zm-3.455-15.123.975-.223-.178-.777h-.797v1Zm-10.082 0v-1h-.796l-.178.775.974.225Zm-3.483 15.123-.975.223 1.949.001-.974-.224Zm-3.455-15.123.975-.223-.178-.777h-.797v1Zm-12.263 0v-1h-1.255l.28 1.223.975-.223ZM370.029 85l-.974.223.178.777h.796v-1Zm11.215 0v1h.785l.187-.763-.972-.237Zm3.738-15.293.991-.134-1.962-.103.971.237ZM387.05 85l-.991.134.117.866h.874v-1Zm12.631 0v1h.785l.186-.763-.971-.237Zm9.997-41.036.971.237.302-1.237h-1.273v1Zm-12.829 0v-1h-.796l-.179.775.975.225Zm-2.509 14.9-3.455-15.123-1.95.446 3.455 15.123 1.95-.446Zm-4.43-15.9h-10.082v2h10.082v-2Zm-11.056.775-3.484 15.123 1.949.45 3.484-15.124-1.949-.449Zm-1.534 15.125-3.455-15.123-1.95.446 3.455 15.123 1.95-.446Zm-4.43-15.9h-12.263v2h12.263v-2Zm-13.238 1.223 9.403 41.036 1.949-.446-9.402-41.037-1.95.447ZM370.029 86h11.215v-2h-11.215v2Zm12.187-.763 3.738-15.292-1.943-.475-3.738 15.293 1.943.474Zm1.775-15.396 2.068 15.293 1.982-.268-2.068-15.293-1.982.268ZM387.05 86h12.631v-2H387.05v2Zm13.602-.763 9.997-41.036-1.943-.474-9.997 41.036 1.943.474Zm9.026-42.273h-12.829v2h12.829v-2Zm-13.804.775-3.483 15.123 1.949.45 3.483-15.124-1.949-.449Zm50.847 29.848v1h1v-1h-1Zm-11.187-2.662.707-.707-.003-.004-.704.71Zm-.056-12.914-.708-.707-.003.003.711.704Zm22.458-2.662v1h1v-1h-1Zm0-11.385h1v-1h-1v1ZM458.134 85v1h1v-1h-1Zm0-20.136h1v-1h-1v1Zm-11.413 0v-1h-1v1h1Zm0 7.723h-4.73v2h4.73v-2Zm-4.73 0c-2.267 0-4.164-.784-5.75-2.37l-1.414 1.415c1.964 1.964 4.371 2.955 7.164 2.955v-2Zm-5.753-2.373c-1.604-1.586-2.394-3.483-2.394-5.746h-2c0 2.796 1.003 5.204 2.987 7.168l1.407-1.422Zm-2.394-5.746c0-2.27.777-4.17 2.344-5.754l-1.421-1.407c-1.944 1.965-2.923 4.371-2.923 7.16h2Zm2.341-5.75c1.582-1.583 3.497-2.37 5.806-2.37v-2c-2.826 0-5.254.989-7.221 2.956l1.415 1.414Zm5.806-2.37h15.945v-2h-15.945v2Zm16.945-1V43.965h-2V55.35h2Zm-1-12.384h-15.945v2h15.945v-2Zm-15.945 0c-5.947 0-11.044 2.106-15.235 6.297l1.414 1.414c3.814-3.814 8.402-5.711 13.821-5.711v-2Zm-15.235 6.297c-4.19 4.19-6.297 9.278-6.297 15.207h2c0-5.4 1.896-9.978 5.711-13.793l-1.414-1.414Zm-6.297 15.207c0 5.947 2.106 11.044 6.297 15.235l1.414-1.414c-3.814-3.814-5.711-8.402-5.711-13.821h-2Zm6.297 15.235c4.191 4.191 9.288 6.297 15.235 6.297v-2c-5.419 0-10.007-1.897-13.821-5.711l-1.414 1.414ZM441.991 86h16.143v-2h-16.143v2Zm17.143-1V64.864h-2V85h2Zm-1-21.136h-11.413v2h11.413v-2Zm-12.413 1v8.723h2v-8.723h-2Zm33.115 5.381-.935-.354-.513 1.354h1.448v-1Zm3.88-10.252.935-.354-.935-2.471-.935 2.471.935.354Zm3.88 10.252v1h1.447l-.512-1.354-.935.354Zm-10.762-26.281v-1h-.679l-.251.632.93.368ZM459.578 85l-.93-.368-.542 1.368h1.472v-1Zm13.679 0v1h.691l.244-.647-.935-.353Zm1.529-4.05v-1h-.691l-.244.647.935.353Zm15.831 0 .934-.359-.247-.64h-.687v1Zm1.558 4.05-.934.359.247.641h.687v-1Zm13.112 0v1h1.453l-.519-1.357-.934.357Zm-15.689-41.036.934-.357-.246-.643h-.688v1Zm-9.827 26.635 3.88-10.252-1.87-.708-3.88 10.252 1.87.708Zm2.01-10.252L485.66 70.6l1.871-.708-3.88-10.252-1.87.708Zm4.815 8.898h-7.76v2h7.76v-2Zm-11.692-25.65-16.256 41.037 1.86.736 16.256-41.036-1.86-.736ZM459.578 86h13.679v-2h-13.679v2Zm14.614-.647 1.53-4.05-1.871-.706-1.53 4.05 1.871.706Zm.594-3.403h15.831v-2h-15.831v2Zm14.898-.64 1.557 4.049 1.867-.718-1.557-4.05-1.867.718Zm2.491 4.69h13.112v-2h-13.112v2Zm14.046-1.357-15.689-41.036-1.868.714 15.689 41.036 1.868-.714Zm-16.623-41.68h-13.764v2h13.764v-2Zm54.12 27.282-.935-.354-.513 1.354h1.448v-1Zm3.88-10.252.935-.354-.935-2.471-.936 2.471.936.354Zm3.88 10.252v1h1.447l-.512-1.354-.935.354Zm-33.362 3.342h-1v1h1v-1Zm0-29.623h1v-1h-1v1Zm-11.413 0v-1h-1v1h1Zm0 41.036h-1v1h1v-1Zm31.436 0v1h.691l.244-.647-.935-.353Zm1.529-4.05v-1h-.691l-.245.647.936.353Zm15.831 0 .933-.359-.246-.64h-.687v1Zm1.558 4.05-.934.359.247.641h.687v-1Zm13.112 0v1h1.453l-.519-1.357-.934.357Zm-15.69-41.036.935-.357-.246-.643h-.689v1Zm-13.763 0v-1h-.68l-.25.632.93.368Zm-11.725 29.623v1h.68l.25-.632-.93-.368Zm15.662-2.988 3.88-10.252-1.871-.708-3.879 10.252 1.87.708Zm2.009-10.252 3.88 10.252 1.871-.708-3.88-10.252-1.871.708Zm4.816 8.898h-7.76v2h7.76v-2Zm-32.362 4.342V43.964h-2v29.623h2Zm-1-30.623h-11.413v2h11.413v-2Zm-12.413 1V85h2V43.964h-2Zm1 42.036h31.436v-2h-31.436v2Zm32.371-.647 1.53-4.05-1.872-.706-1.529 4.05 1.871.706Zm.594-3.403h15.831v-2h-15.831v2Zm14.898-.64 1.557 4.049 1.867-.718-1.558-4.05-1.866.718Zm2.491 4.69h13.112v-2h-13.112v2Zm14.046-1.357-15.689-41.036-1.869.714 15.69 41.036 1.868-.714Zm-16.624-41.68h-13.763v2h13.763v-2Zm-14.693.633-11.725 29.623 1.86.736 11.725-29.623-1.86-.736Zm-10.795 28.99h-10.875v2h10.875v-2Zm82.582-28.622.848.53.957-1.53h-1.805v1Zm-14.443 0v-1h-.557l-.293.474.85.526Zm-5.523 8.92-.849.53.852 1.367.848-1.37-.851-.526Zm-5.55-8.92.849-.528-.294-.472h-.555v1Zm-14.444 0v-1h-1.804l.956 1.53.848-.53Zm.142.226.849-.528-.001-.002-.848.53Zm12.631 20.278.849.528.329-.529-.329-.528-.849.529Zm-12.631 20.305.848.53.001-.001-.849-.529Zm-.142.227-.848-.53-.956 1.53h1.804v-1Zm14.444 0v1h.555l.294-.472-.849-.528Zm5.55-8.92.851-.527-.848-1.37-.852 1.368.849.528ZM597.13 85l-.85.526.293.474h.557v-1Zm14.443 0v1h1.805l-.957-1.53-.848.53Zm-.141-.227-.849.529.001.001.848-.53Zm-12.631-20.305-.849-.529-.329.528.329.529.849-.528Zm12.631-20.278-.848-.53-.001.002.849.528Zm.141-1.226H597.13v2h14.443v-2Zm-15.293.474-5.523 8.92 1.701 1.053 5.522-8.92-1.7-1.053Zm-3.824 8.918-5.55-8.92-1.698 1.056 5.55 8.921 1.698-1.056Zm-6.399-9.392h-14.444v2h14.444v-2Zm-15.292 1.53.142.226 1.696-1.06-.142-.226-1.696 1.06Zm.141.225 12.631 20.277 1.698-1.057-12.631-20.277-1.698 1.057Zm12.631 19.22-12.631 20.306 1.698 1.057 12.631-20.306-1.698-1.056Zm-12.63 20.304-.142.227 1.696 1.06.142-.227-1.696-1.06Zm.706 1.757h14.444v-2h-14.444v2Zm15.293-.472 5.55-8.92-1.698-1.057-5.55 8.92 1.698 1.057Zm3.851-8.922 5.523 8.92 1.7-1.052-5.522-8.921-1.701 1.053ZM597.13 86h14.443v-2H597.13v2Zm15.291-1.53-.141-.227-1.696 1.06.141.227 1.696-1.06Zm-.14-.225L599.65 63.94l-1.698 1.056 12.631 20.306 1.698-1.057ZM599.65 64.996l12.63-20.277-1.697-1.057-12.631 20.277 1.698 1.057Zm12.63-20.276.141-.226-1.696-1.06-.141.226 1.696 1.06Zm22.431 13.29-.858.515.856 1.43.859-1.43-.857-.514ZM626.3 43.965l.858-.514-.291-.486h-.567v1Zm-13.282 0v-1h-1.766l.908 1.514.858-.514Zm15.066 25.12.862-.508-.004-.006-.858.514Zm.935 1.586h1v-.273l-.139-.235-.861.508Zm0 14.33h-1v1h1v-1Zm11.413 0v1h1v-1h-1Zm0-14.33-.862-.508-.138.235v.273h1Zm.934-1.586-.857-.514-.004.006.861.508Zm15.067-25.12.857.514.908-1.514h-1.765v1Zm-13.283 0v-1h-.565l-.292.485.857.515Zm-7.581 13.533-8.411-14.047-1.716 1.028 8.411 14.047 1.716-1.028ZM626.3 42.964h-13.282v2H626.3v-2Zm-14.14 1.514 15.066 25.12 1.716-1.028-15.067-25.12-1.715 1.028Zm15.062 25.114.935 1.586 1.723-1.016-.935-1.586-1.723 1.016Zm.797 1.078V85h2V70.67h-2Zm1 15.33h11.413v-2h-11.413v2Zm12.413-1V70.67h-2V85h2Zm-.139-13.822.935-1.586-1.723-1.016-.935 1.586 1.723 1.016Zm.931-1.58 15.066-25.12-1.715-1.029-15.066 25.12 1.715 1.03Zm14.209-26.634H643.15v2h13.283v-2Zm-14.14.485-8.439 14.047 1.714 1.03 8.44-14.047-1.715-1.03Zm48.379 19.065-.888.46.958 1.851.844-1.907-.914-.404Zm-9.601-18.55.888-.46-.279-.54h-.609v1Zm-12.829 0v-1h-1v1h1Zm0 41.036h-1v1h1v-1Zm11.413 0v1h1v-1h-1Zm0-18.012.851-.525-1.851-2.998v3.523h1Zm11.017 17.842-.851.526.85 1.376.851-1.376-.85-.526Zm11.045-17.842h1v-3.515l-1.85 2.989.85.526Zm0 18.012h-1v1h1v-1Zm11.413 0v1h1v-1h-1Zm0-41.036h1v-1h-1v1Zm-14.245 0v-1h-.651l-.264.595.915.405Zm-7.325 18.09-9.601-18.55-1.776.92 9.601 18.55 1.776-.92Zm-10.489-19.09h-12.829v2h12.829v-2Zm-13.829 1V85h2V43.964h-2Zm1 42.036h11.413v-2h-11.413v2Zm12.413-1V66.988h-2V85h2Zm-1.851-17.486 11.017 17.842 1.702-1.051-11.017-17.842-1.702 1.05Zm12.718 17.842 11.045-17.841-1.7-1.053-11.045 17.842 1.7 1.052Zm9.195-18.368V85h2V66.988h-2Zm1 19.012h11.413v-2h-11.413v2Zm12.413-1V43.964h-2V85h2Zm-1-42.036h-14.245v2h14.245v-2Zm-15.16.595-8.212 18.55 1.828.81 8.213-18.55-1.829-.81Zm16.604.405v-1h-1v1h1Zm0 41.036h-1v1h1v-1Zm29.737 0v1h1v-1h-1Zm0-11.413h1v-1h-1v1Zm-18.324 0h-1v1h1v-1Zm0-3.398v-1h-1v1h1Zm18.324 0v1h1v-1h-1Zm0-11.414h1v-1h-1v1Zm-18.324 0h-1v1h1v-1Zm0-3.426v-1h-1v1h1Zm18.324 0v1h1v-1h-1Zm0-11.385h1v-1h-1v1Zm-30.737 0V85h2V43.964h-2Zm1 42.036h29.737v-2h-29.737v2Zm30.737-1V73.587h-2V85h2Zm-1-12.413h-18.324v2h18.324v-2Zm-17.324 1v-3.398h-2v3.398h2Zm-1-2.398h18.324v-2h-18.324v2Zm19.324-1V58.775h-2V70.19h2Zm-1-12.414h-18.324v2h18.324v-2Zm-17.324 1V55.35h-2v3.426h2Zm-1-2.426h18.324v-2h-18.324v2Zm19.324-1V43.964h-2v11.385h2Zm-1-12.385h-29.737v2h29.737v-2Zm23.845 19.55-.888.46.959 1.851.844-1.907-.915-.404Zm-9.6-18.55.888-.46-.28-.54h-.608v1Zm-12.829 0v-1h-1v1h1Zm0 41.036h-1v1h1v-1Zm11.413 0v1h1v-1h-1Zm0-18.012.851-.525-1.851-2.998v3.523h1Zm11.016 17.842-.851.526.85 1.376.852-1.376-.851-.526Zm11.045-17.842h1v-3.515l-1.85 2.989.85.526Zm0 18.012h-1v1h1v-1Zm11.413 0v1h1v-1h-1Zm0-41.036h1v-1h-1v1Zm-14.245 0v-1h-.651l-.263.595.914.405Zm-7.325 18.09-9.6-18.55-1.776.92 9.6 18.55 1.776-.92Zm-10.488-19.09h-12.829v2h12.829v-2Zm-13.829 1V85h2V43.964h-2Zm1 42.036h11.413v-2h-11.413v2Zm12.413-1V66.988h-2V85h2Zm-1.851-17.486 11.016 17.842 1.702-1.051-11.016-17.842-1.702 1.05Zm12.718 17.842 11.044-17.841-1.7-1.053-11.045 17.842 1.701 1.052Zm9.194-18.368V85h2V66.988h-2Zm1 19.012h11.413v-2h-11.413v2Zm12.413-1V43.964h-2V85h2Zm-1-42.036h-14.245v2h14.245v-2Zm-15.159.595-8.213 18.55 1.829.81 8.213-18.55-1.829-.81Zm40.393 14.933-.785-.62-.003.004.788.616Zm-12.348.652h-1v1h1v-1Zm0-3.852v-1h-1v1h1Zm12.263.566-.762.648.009.01.009.011.744-.669ZM803.5 73.587h-1v1h1v-1Zm0-3.852v-1h-1v1h1Zm12.404.765-.832.555.011.015.011.016.81-.586Zm-.141 2.52-.744-.668-.009.01-.009.01.762.648Zm-23.704-29.056v-1h-1v1h1Zm0 41.036h-1v1h1v-1Zm25.035 0v1h.011l-.011-1Zm8.326-3.965-.749-.662-.003.003.752.66Zm1.699-16.85-.877-.482-.276.505.296.492.857-.515Zm-3.54-17.899.507-.862h-.001l-.506.862Zm-8.519 11.59c-.168.215-.312.268-.487.268v2c.845 0 1.551-.382 2.062-1.035l-1.575-1.233Zm-.487.268H803.5v2h11.073v-2Zm-10.073 1v-3.852h-2v3.852h2Zm-1-2.852h11.073v-2H803.5v2Zm11.073 0c.163 0 .286.047.428.214l1.524-1.295c-.5-.589-1.17-.919-1.952-.919v2Zm.446.235a.962.962 0 0 1 .253.69h2c0-.764-.254-1.458-.766-2.028l-1.487 1.338Zm.253.69c0 .285-.076.487-.209.656l1.57 1.239a2.994 2.994 0 0 0 .639-1.894h-2ZM804.5 73.588v-3.852h-2v3.852h2Zm-1-2.852h11.073v-2H803.5v2Zm11.073 0c.169 0 .319.05.499.32l1.664-1.11c-.499-.749-1.237-1.21-2.163-1.21v2Zm.521.35a.939.939 0 0 1 .178.576h2a2.93 2.93 0 0 0-.557-1.746l-1.621 1.17Zm.178.576a.961.961 0 0 1-.253.69l1.487 1.338a2.96 2.96 0 0 0 .766-2.028h-2Zm-.271.712c-.142.167-.265.214-.428.214v2c.782 0 1.452-.33 1.952-.919l-1.524-1.295Zm-.428.214H803.5v2h11.073v-2Zm-23.514-28.623V85h2V43.964h-2Zm1 42.036h25.035v-2h-25.035v2Zm25.046 0c3.569-.041 6.608-1.501 9.067-4.306l-1.504-1.318c-2.11 2.406-4.622 3.59-7.586 3.624l.023 2Zm9.064-4.302c2.473-2.798 3.706-6.162 3.706-10.037h-2c0 3.413-1.071 6.299-3.204 8.712l1.498 1.325Zm3.706-10.037c0-3.162-.608-5.847-1.899-7.992l-1.714 1.031c1.051 1.745 1.613 4.043 1.613 6.961h2Zm-1.879-6.995c1.254-2.286 1.879-4.775 1.879-7.448h-2c0 2.348-.546 4.504-1.633 6.485l1.754.963Zm1.879-7.448c0-5.454-1.868-9.487-5.789-11.794l-1.014 1.724c3.14 1.847 4.803 5.102 4.803 10.07h2Zm-5.79-11.795c-2.875-1.683-7.141-2.46-12.655-2.46v2c5.398 0 9.232.773 11.644 2.186l1.011-1.726Zm-12.655-2.46h-19.371v2h19.371v-2Zm18.861 1v-1h-1v1h1Zm0 41.037h-1v1h1v-1Zm29.736 0v1h1v-1h-1Zm0-11.413h1v-1h-1v1Zm-18.323 0h-1v1h1v-1Zm0-3.398v-1h-1v1h1Zm18.323 0v1h1v-1h-1Zm0-11.414h1v-1h-1v1Zm-18.323 0h-1v1h1v-1Zm0-3.426v-1h-1v1h1Zm18.323 0v1h1v-1h-1Zm0-11.385h1v-1h-1v1Zm-30.736 0V85h2V43.964h-2Zm1 42.036h29.736v-2h-29.736v2Zm30.736-1V73.587h-2V85h2Zm-1-12.413h-18.323v2h18.323v-2Zm-17.323 1V70.19h-2v3.398h2Zm-1-2.398h18.323v-2h-18.323v2Zm19.323-1V58.775h-2V70.19h2Zm-1-12.414h-18.323v2h18.323v-2Zm-17.323 1V55.35h-2v3.426h2Zm-1-2.426h18.323v-2h-18.323v2Zm19.323-1V43.964h-2v11.385h2Zm-1-12.385h-29.736v2h29.736v-2Zm31.493 5.531-.712.703.002.002.71-.705Zm-10.706-4.531.009-1h-.009v1Zm-19.371 0v-1h-1v1h1Zm0 41.036h-1v1h1v-1Zm11.413 0v1h1v-1h-1Zm0-7.335.777-.63-1.777-2.186v2.816h1Zm.765.878.732-.681-.001-.001-.731.682ZM895.088 85v1h1v-1h-1Zm0-11.413h1v-1h-1v1Zm-8.185-.425-.408-.913-2.846 1.274 3.056.62.198-.98Zm6.514-5.522.833.553.002-.003-.835-.55Zm-20.561-5.013h-1v1h1v-1Zm0-5.608v-1h-1v1h1Zm24.082 2.21c0-4.455-1.577-8.286-4.709-11.439l-1.419 1.41c2.759 2.776 4.128 6.1 4.128 10.028h2Zm-4.707-11.437c-3.131-3.17-6.952-4.788-11.408-4.828l-.018 2c3.928.035 7.243 1.439 10.003 4.234l1.423-1.406Zm-11.417-4.828h-19.371v2h19.371v-2Zm-20.371 1V85h2V43.964h-2Zm1 42.036h11.413v-2h-11.413v2Zm12.413-1v-7.335h-2V85h2Zm-1.776-6.704c.26.32.53.63.81.93l1.462-1.365a16.19 16.19 0 0 1-.719-.827l-1.553 1.262Zm.809.928C877.142 83.798 883.464 86 891.661 86v-2c-7.851 0-13.555-2.103-17.308-6.138l-1.464 1.362ZM891.661 86h3.427v-2h-3.427v2Zm4.427-1V73.587h-2V85h2Zm-1-12.413h-3.427v2h3.427v-2Zm-3.427 0c-1.723 0-3.241-.138-4.559-.405l-.397 1.96c1.476.3 3.13.445 4.956.445v-2Zm-4.349 1.488c2.873-1.286 5.191-3.252 6.938-5.882l-1.666-1.107c-1.538 2.317-3.563 4.033-6.089 5.163l.817 1.826Zm6.94-5.885c1.788-2.712 2.686-5.708 2.686-8.962h-2c0 2.864-.783 5.476-2.356 7.861l1.67 1.101Zm-20.396-5.563v-5.608h-2v5.608h2Zm-1-4.608h6.939v-2h-6.939v2Zm6.939 0c.509 0 .915.169 1.275.529l1.414-1.414a3.7 3.7 0 0 0-2.689-1.114v2Zm1.275.529c.36.36.529.767.529 1.275h2a3.7 3.7 0 0 0-1.115-2.69l-1.414 1.415Zm.529 1.275c0 .509-.169.916-.529 1.276l1.414 1.414a3.701 3.701 0 0 0 1.115-2.69h-2Zm-.529 1.276c-.36.36-.766.528-1.275.528v2a3.7 3.7 0 0 0 2.689-1.114l-1.414-1.414Zm-1.275.528h-6.939v2h6.939v-2Z"/>
  </g>
  <g filter="url(#d)">
    <path stroke="#CEB7FF" d="M4.5 5h616v15H4.5V5Z" shape-rendering="crispEdges"/>
  </g>
  <path fill="#CEB7FF" d="m646.305 13.403 1.471-3.888 1.472 3.888h-2.943Zm-1.139-9.968L639 19h5.188l.581-1.536h6.004l.591 1.536h4.974l-5.951-15.565h-5.221Zm24.148 7.036-3.641-7.036h-4.866V19h4.329v-6.832l4.178 6.768 4.19-6.768V19h4.329V3.435h-5.403l-3.116 7.036ZM697.491 19c1.01 0 1.88-.387 2.611-1.16.723-.774 1.085-1.683 1.085-2.729 0-.737-.226-1.44-.677-2.105-.165-.25-1.042-1.182-2.632-2.793l-2.406-2.46h5.5V3.435h-6.736c-1.017 0-1.887.386-2.61 1.16a3.861 3.861 0 0 0-1.074 2.728c0 .73.229 1.436.687 2.116.172.265 1.844 2.01 5.017 5.232H682.71v-1.29h6.95V9.054h-6.95v-1.3h6.95V3.435h-11.279V19h19.11ZM712.24 7.753V3.435h-6.735c-1.017 0-1.887.386-2.61 1.16a3.858 3.858 0 0 0-1.075 2.728c0 .852.229 1.558.688 2.116l5.016 5.232h-5.79V19h7.026c1.01 0 1.88-.387 2.61-1.16.723-.774 1.085-1.683 1.085-2.729 0-.737-.226-1.44-.677-2.105a1890.22 1890.22 0 0 1-5.038-5.253h5.5Zm6.875 5.65 1.472-3.888 1.472 3.888h-2.944Zm-1.138-9.968L711.811 19h5.188l.58-1.536h6.005l.591 1.536h4.973l-5.951-15.565h-5.22Zm19.035 11.236h-1.794c-.96 0-1.776-.337-2.449-1.01a3.315 3.315 0 0 1-1.021-2.45c0-.959.333-1.775.999-2.448.673-.673 1.497-1.01 2.471-1.01h6.048V3.435h-6.048c-2.156 0-3.993.759-5.511 2.277-1.518 1.518-2.277 3.351-2.277 5.5 0 2.155.759 3.992 2.277 5.51 1.518 1.519 3.355 2.278 5.511 2.278h6.123v-7.638h-4.329v3.309Zm4.877-11.236V19h11.279v-4.33h-6.95v-1.288h6.95v-4.33h-6.95v-1.3h6.95V3.436h-11.279Zm15.748 0V19h4.329v-5.618h5.865v-4.33h-5.865v-1.3h6.95V3.436h-11.279Zm24.9 5.79c0-1.59-.558-2.947-1.676-4.072-1.117-1.131-2.47-1.704-4.06-1.718h-7.348V19h4.329v-2.782c.093.114.19.225.29.333 1.518 1.633 3.799 2.449 6.843 2.449h1.3v-4.33h-1.3a9.14 9.14 0 0 1-1.805-.16 5.711 5.711 0 0 0 2.471-2.095 5.68 5.68 0 0 0 .956-3.19Zm-8.755 1.289V8.387h2.632c.294 0 .544.104.752.311.208.208.312.459.312.752 0 .294-.104.544-.312.752a1.025 1.025 0 0 1-.752.312h-2.632Zm17.08 4.157c-.959 0-1.776-.337-2.449-1.01a3.318 3.318 0 0 1-1.02-2.45c0-.959.333-1.775.999-2.448.673-.673 1.496-1.01 2.47-1.01h1.182c.974 0 1.797.337 2.471 1.01.666.673.999 1.49.999 2.449 0 .96-.34 1.776-1.021 2.45-.673.672-1.489 1.009-2.449 1.009h-1.182Zm0-11.236c-2.155 0-3.992.759-5.51 2.277-1.519 1.518-2.278 3.351-2.278 5.5 0 2.155.759 3.992 2.278 5.51 1.518 1.519 3.355 2.278 5.51 2.278h1.182c2.156 0 3.992-.76 5.511-2.277 1.518-1.519 2.277-3.355 2.277-5.511 0-2.149-.759-3.982-2.277-5.5-1.519-1.518-3.355-2.277-5.511-2.277h-1.182Zm18.015 7.036-3.642-7.036h-4.866V19h4.329v-6.832l4.179 6.768 4.189-6.768V19h4.33V3.435h-5.404l-3.115 7.036Zm12.998-7.036V19h11.279v-4.33h-6.95v-1.288h6.95v-4.33h-6.95v-1.3h6.95V3.436h-11.279Zm19.121 9.968 1.472-3.888 1.471 3.888h-2.943Zm-1.139-9.968L833.691 19h5.189l.58-1.536h6.005l.591 1.536h4.973l-5.951-15.565h-5.221Zm24.793 5.79c0-1.59-.558-2.947-1.675-4.072-1.118-1.131-2.471-1.704-4.061-1.718h-7.348V19h4.33v-2.782c.093.114.189.225.29.333 1.518 1.633 3.799 2.449 6.842 2.449h1.3v-4.33h-1.3a9.13 9.13 0 0 1-1.804-.16 5.709 5.709 0 0 0 2.47-2.095c.638-.967.956-2.03.956-3.19Zm-8.754 1.289V8.387h2.631c.294 0 .545.104.752.311.208.208.312.459.312.752 0 .294-.104.544-.312.752a1.023 1.023 0 0 1-.752.312h-2.631Zm9.292-7.08v4.319h3.996V19h4.329V7.753h1.117V19h4.329v-5.618h4.63V19h4.318V3.435h-4.318v5.618h-4.63V3.435h-13.771Z"/>
  <g filter="url(#e)">
    <path stroke="#CEB7FF" d="M4.5 5h616v15H4.5V5Z" shape-rendering="crispEdges"/>
  </g>
  <path fill="#CEB7FF" d="m646.305 13.403 1.471-3.888 1.472 3.888h-2.943Zm-1.139-9.968L639 19h5.188l.581-1.536h6.004l.591 1.536h4.974l-5.951-15.565h-5.221Zm24.148 7.036-3.641-7.036h-4.866V19h4.329v-6.832l4.178 6.768 4.19-6.768V19h4.329V3.435h-5.403l-3.116 7.036ZM697.491 19c1.01 0 1.88-.387 2.611-1.16.723-.774 1.085-1.683 1.085-2.729 0-.737-.226-1.44-.677-2.105-.165-.25-1.042-1.182-2.632-2.793l-2.406-2.46h5.5V3.435h-6.736c-1.017 0-1.887.386-2.61 1.16a3.861 3.861 0 0 0-1.074 2.728c0 .73.229 1.436.687 2.116.172.265 1.844 2.01 5.017 5.232H682.71v-1.29h6.95V9.054h-6.95v-1.3h6.95V3.435h-11.279V19h19.11ZM712.24 7.753V3.435h-6.735c-1.017 0-1.887.386-2.61 1.16a3.858 3.858 0 0 0-1.075 2.728c0 .852.229 1.558.688 2.116l5.016 5.232h-5.79V19h7.026c1.01 0 1.88-.387 2.61-1.16.723-.774 1.085-1.683 1.085-2.729 0-.737-.226-1.44-.677-2.105a1890.22 1890.22 0 0 1-5.038-5.253h5.5Zm6.875 5.65 1.472-3.888 1.472 3.888h-2.944Zm-1.138-9.968L711.811 19h5.188l.58-1.536h6.005l.591 1.536h4.973l-5.951-15.565h-5.22Zm19.035 11.236h-1.794c-.96 0-1.776-.337-2.449-1.01a3.315 3.315 0 0 1-1.021-2.45c0-.959.333-1.775.999-2.448.673-.673 1.497-1.01 2.471-1.01h6.048V3.435h-6.048c-2.156 0-3.993.759-5.511 2.277-1.518 1.518-2.277 3.351-2.277 5.5 0 2.155.759 3.992 2.277 5.51 1.518 1.519 3.355 2.278 5.511 2.278h6.123v-7.638h-4.329v3.309Zm4.877-11.236V19h11.279v-4.33h-6.95v-1.288h6.95v-4.33h-6.95v-1.3h6.95V3.436h-11.279Zm15.748 0V19h4.329v-5.618h5.865v-4.33h-5.865v-1.3h6.95V3.436h-11.279Zm24.9 5.79c0-1.59-.558-2.947-1.676-4.072-1.117-1.131-2.47-1.704-4.06-1.718h-7.348V19h4.329v-2.782c.093.114.19.225.29.333 1.518 1.633 3.799 2.449 6.843 2.449h1.3v-4.33h-1.3a9.14 9.14 0 0 1-1.805-.16 5.711 5.711 0 0 0 2.471-2.095 5.68 5.68 0 0 0 .956-3.19Zm-8.755 1.289V8.387h2.632c.294 0 .544.104.752.311.208.208.312.459.312.752 0 .294-.104.544-.312.752a1.025 1.025 0 0 1-.752.312h-2.632Zm17.08 4.157c-.959 0-1.776-.337-2.449-1.01a3.318 3.318 0 0 1-1.02-2.45c0-.959.333-1.775.999-2.448.673-.673 1.496-1.01 2.47-1.01h1.182c.974 0 1.797.337 2.471 1.01.666.673.999 1.49.999 2.449 0 .96-.34 1.776-1.021 2.45-.673.672-1.489 1.009-2.449 1.009h-1.182Zm0-11.236c-2.155 0-3.992.759-5.51 2.277-1.519 1.518-2.278 3.351-2.278 5.5 0 2.155.759 3.992 2.278 5.51 1.518 1.519 3.355 2.278 5.51 2.278h1.182c2.156 0 3.992-.76 5.511-2.277 1.518-1.519 2.277-3.355 2.277-5.511 0-2.149-.759-3.982-2.277-5.5-1.519-1.518-3.355-2.277-5.511-2.277h-1.182Zm18.015 7.036-3.642-7.036h-4.866V19h4.329v-6.832l4.179 6.768 4.189-6.768V19h4.33V3.435h-5.404l-3.115 7.036Zm12.998-7.036V19h11.279v-4.33h-6.95v-1.288h6.95v-4.33h-6.95v-1.3h6.95V3.436h-11.279Zm19.121 9.968 1.472-3.888 1.471 3.888h-2.943Zm-1.139-9.968L833.691 19h5.189l.58-1.536h6.005l.591 1.536h4.973l-5.951-15.565h-5.221Zm24.793 5.79c0-1.59-.558-2.947-1.675-4.072-1.118-1.131-2.471-1.704-4.061-1.718h-7.348V19h4.33v-2.782c.093.114.189.225.29.333 1.518 1.633 3.799 2.449 6.842 2.449h1.3v-4.33h-1.3a9.13 9.13 0 0 1-1.804-.16 5.709 5.709 0 0 0 2.47-2.095c.638-.967.956-2.03.956-3.19Zm-8.754 1.289V8.387h2.631c.294 0 .545.104.752.311.208.208.312.459.312.752 0 .294-.104.544-.312.752a1.023 1.023 0 0 1-.752.312h-2.631Zm9.292-7.08v4.319h3.996V19h4.329V7.753h1.117V19h4.329v-5.618h4.63V19h4.318V3.435h-4.318v5.618h-4.63V3.435h-13.771Z"/>
  <g filter="url(#f)">
    <path stroke="#CEB7FF" d="M4.5 5h616v15H4.5V5Z" shape-rendering="crispEdges"/>
  </g>
  <path fill="#CEB7FF" d="m646.305 13.403 1.471-3.888 1.472 3.888h-2.943Zm-1.139-9.968L639 19h5.188l.581-1.536h6.004l.591 1.536h4.974l-5.951-15.565h-5.221Zm24.148 7.036-3.641-7.036h-4.866V19h4.329v-6.832l4.178 6.768 4.19-6.768V19h4.329V3.435h-5.403l-3.116 7.036ZM697.491 19c1.01 0 1.88-.387 2.611-1.16.723-.774 1.085-1.683 1.085-2.729 0-.737-.226-1.44-.677-2.105-.165-.25-1.042-1.182-2.632-2.793l-2.406-2.46h5.5V3.435h-6.736c-1.017 0-1.887.386-2.61 1.16a3.861 3.861 0 0 0-1.074 2.728c0 .73.229 1.436.687 2.116.172.265 1.844 2.01 5.017 5.232H682.71v-1.29h6.95V9.054h-6.95v-1.3h6.95V3.435h-11.279V19h19.11ZM712.24 7.753V3.435h-6.735c-1.017 0-1.887.386-2.61 1.16a3.858 3.858 0 0 0-1.075 2.728c0 .852.229 1.558.688 2.116l5.016 5.232h-5.79V19h7.026c1.01 0 1.88-.387 2.61-1.16.723-.774 1.085-1.683 1.085-2.729 0-.737-.226-1.44-.677-2.105a1890.22 1890.22 0 0 1-5.038-5.253h5.5Zm6.875 5.65 1.472-3.888 1.472 3.888h-2.944Zm-1.138-9.968L711.811 19h5.188l.58-1.536h6.005l.591 1.536h4.973l-5.951-15.565h-5.22Zm19.035 11.236h-1.794c-.96 0-1.776-.337-2.449-1.01a3.315 3.315 0 0 1-1.021-2.45c0-.959.333-1.775.999-2.448.673-.673 1.497-1.01 2.471-1.01h6.048V3.435h-6.048c-2.156 0-3.993.759-5.511 2.277-1.518 1.518-2.277 3.351-2.277 5.5 0 2.155.759 3.992 2.277 5.51 1.518 1.519 3.355 2.278 5.511 2.278h6.123v-7.638h-4.329v3.309Zm4.877-11.236V19h11.279v-4.33h-6.95v-1.288h6.95v-4.33h-6.95v-1.3h6.95V3.436h-11.279Zm15.748 0V19h4.329v-5.618h5.865v-4.33h-5.865v-1.3h6.95V3.436h-11.279Zm24.9 5.79c0-1.59-.558-2.947-1.676-4.072-1.117-1.131-2.47-1.704-4.06-1.718h-7.348V19h4.329v-2.782c.093.114.19.225.29.333 1.518 1.633 3.799 2.449 6.843 2.449h1.3v-4.33h-1.3a9.14 9.14 0 0 1-1.805-.16 5.711 5.711 0 0 0 2.471-2.095 5.68 5.68 0 0 0 .956-3.19Zm-8.755 1.289V8.387h2.632c.294 0 .544.104.752.311.208.208.312.459.312.752 0 .294-.104.544-.312.752a1.025 1.025 0 0 1-.752.312h-2.632Zm17.08 4.157c-.959 0-1.776-.337-2.449-1.01a3.318 3.318 0 0 1-1.02-2.45c0-.959.333-1.775.999-2.448.673-.673 1.496-1.01 2.47-1.01h1.182c.974 0 1.797.337 2.471 1.01.666.673.999 1.49.999 2.449 0 .96-.34 1.776-1.021 2.45-.673.672-1.489 1.009-2.449 1.009h-1.182Zm0-11.236c-2.155 0-3.992.759-5.51 2.277-1.519 1.518-2.278 3.351-2.278 5.5 0 2.155.759 3.992 2.278 5.51 1.518 1.519 3.355 2.278 5.51 2.278h1.182c2.156 0 3.992-.76 5.511-2.277 1.518-1.519 2.277-3.355 2.277-5.511 0-2.149-.759-3.982-2.277-5.5-1.519-1.518-3.355-2.277-5.511-2.277h-1.182Zm18.015 7.036-3.642-7.036h-4.866V19h4.329v-6.832l4.179 6.768 4.189-6.768V19h4.33V3.435h-5.404l-3.115 7.036Zm12.998-7.036V19h11.279v-4.33h-6.95v-1.288h6.95v-4.33h-6.95v-1.3h6.95V3.436h-11.279Zm19.121 9.968 1.472-3.888 1.471 3.888h-2.943Zm-1.139-9.968L833.691 19h5.189l.58-1.536h6.005l.591 1.536h4.973l-5.951-15.565h-5.221Zm24.793 5.79c0-1.59-.558-2.947-1.675-4.072-1.118-1.131-2.471-1.704-4.061-1.718h-7.348V19h4.33v-2.782c.093.114.189.225.29.333 1.518 1.633 3.799 2.449 6.842 2.449h1.3v-4.33h-1.3a9.13 9.13 0 0 1-1.804-.16 5.709 5.709 0 0 0 2.47-2.095c.638-.967.956-2.03.956-3.19Zm-8.754 1.289V8.387h2.631c.294 0 .545.104.752.311.208.208.312.459.312.752 0 .294-.104.544-.312.752a1.023 1.023 0 0 1-.752.312h-2.631Zm9.292-7.08v4.319h3.996V19h4.329V7.753h1.117V19h4.329v-5.618h4.63V19h4.318V3.435h-4.318v5.618h-4.63V3.435h-13.771ZM11.305 121.403l1.471-3.888 1.472 3.888h-2.943Zm-1.139-9.968L4 127h5.188l.58-1.536h6.005l.591 1.536h4.974l-5.951-15.565h-5.221Zm24.149 7.036-3.642-7.036h-4.866V127h4.329v-6.832l4.179 6.768 4.189-6.768V127h4.329v-15.565H37.43l-3.115 7.036ZM62.49 127c1.01 0 1.88-.387 2.61-1.16.724-.774 1.085-1.683 1.085-2.729 0-.737-.225-1.439-.676-2.105-.165-.251-1.042-1.182-2.632-2.793a2274.649 2274.649 0 0 0-2.406-2.46h5.5v-4.318h-6.736c-1.017 0-1.887.386-2.61 1.16a3.86 3.86 0 0 0-1.074 2.728c0 .731.229 1.436.687 2.116.172.265 1.844 2.009 5.017 5.232H47.71v-1.289h6.95v-4.329h-6.95v-1.3h6.95v-4.318H43.38V127h19.111Zm14.75-11.247v-4.318h-6.736c-1.017 0-1.887.386-2.61 1.16a3.86 3.86 0 0 0-1.075 2.728c0 .852.23 1.558.688 2.116l5.016 5.232h-5.79V127h7.026c1.01 0 1.88-.387 2.61-1.16.723-.774 1.085-1.683 1.085-2.729 0-.737-.225-1.439-.677-2.105-3.323-3.459-5.002-5.21-5.038-5.253h5.5Zm6.874 5.65 1.472-3.888 1.472 3.888h-2.944Zm-1.138-9.968L76.81 127h5.188l.58-1.536h6.005l.59 1.536h4.974l-5.95-15.565h-5.221Zm19.035 11.236h-1.794c-.96 0-1.776-.337-2.45-1.01a3.316 3.316 0 0 1-1.02-2.449c0-.96.333-1.776 1-2.449.672-.673 1.496-1.01 2.47-1.01h6.048v-4.318h-6.048c-2.156 0-3.993.759-5.511 2.277-1.518 1.518-2.277 3.351-2.277 5.5 0 2.156.759 3.992 2.277 5.511 1.518 1.518 3.355 2.277 5.511 2.277h6.123v-7.638h-4.329v3.309Zm4.877-11.236V127h11.279v-4.329h-6.95v-1.289h6.95v-4.329h-6.95v-1.3h6.95v-4.318h-11.279Zm15.748 0V127h4.329v-5.618h5.865v-4.329h-5.865v-1.3h6.95v-4.318h-11.279Zm24.9 5.79c0-1.59-.558-2.947-1.676-4.072-1.117-1.131-2.47-1.704-4.06-1.718h-7.348V127h4.329v-2.782c.093.114.19.225.29.333 1.518 1.633 3.799 2.449 6.843 2.449h1.3v-4.329h-1.3a9.172 9.172 0 0 1-1.805-.161 5.717 5.717 0 0 0 2.471-2.095c.637-.967.956-2.03.956-3.19Zm-8.755 1.289v-2.127h2.632c.294 0 .544.104.752.311.208.208.312.459.312.752 0 .294-.104.544-.312.752a1.024 1.024 0 0 1-.752.312h-2.632Zm17.08 4.157c-.959 0-1.776-.337-2.449-1.01a3.317 3.317 0 0 1-1.02-2.449c0-.96.333-1.776.999-2.449.673-.673 1.496-1.01 2.47-1.01h1.182c.974 0 1.797.337 2.471 1.01.666.673.999 1.489.999 2.449 0 .96-.34 1.776-1.021 2.449-.673.673-1.489 1.01-2.449 1.01h-1.182Zm0-11.236c-2.155 0-3.992.759-5.51 2.277-1.519 1.518-2.278 3.351-2.278 5.5 0 2.156.759 3.992 2.278 5.511 1.518 1.518 3.355 2.277 5.51 2.277h1.182c2.156 0 3.992-.759 5.511-2.277 1.518-1.519 2.277-3.355 2.277-5.511 0-2.149-.759-3.982-2.277-5.5-1.519-1.518-3.355-2.277-5.511-2.277h-1.182Zm18.015 7.036-3.642-7.036h-4.866V127h4.329v-6.832l4.179 6.768 4.189-6.768V127h4.33v-15.565h-5.404l-3.115 7.036Zm12.998-7.036V127h11.279v-4.329h-6.95v-1.289h6.95v-4.329h-6.95v-1.3h6.95v-4.318h-11.279Zm19.121 9.968 1.472-3.888 1.471 3.888h-2.943Zm-1.139-9.968L198.691 127h5.189l.58-1.536h6.005l.591 1.536h4.973l-5.951-15.565h-5.221Zm24.793 5.79c0-1.59-.558-2.947-1.675-4.072-1.118-1.131-2.471-1.704-4.061-1.718h-7.348V127h4.33v-2.782c.093.114.189.225.29.333 1.518 1.633 3.799 2.449 6.842 2.449h1.3v-4.329h-1.3a9.161 9.161 0 0 1-1.804-.161 5.715 5.715 0 0 0 2.47-2.095c.638-.967.956-2.03.956-3.19Zm-8.754 1.289v-2.127h2.631c.294 0 .545.104.752.311.208.208.312.459.312.752 0 .294-.104.544-.312.752a1.022 1.022 0 0 1-.752.312h-2.631Zm9.292-7.079v4.318h3.996V127h4.329v-11.247h1.117V127h4.329v-5.618h4.63V127h4.318v-15.565h-4.318v5.618h-4.63v-5.618h-13.771Z"/>
  <g filter="url(#g)">
    <path stroke="#CEB7FF" d="M272.5 113h616v15h-616v-15Z" shape-rendering="crispEdges"/>
  </g>
  <path fill="#CEB7FF" d="m11.305 121.403 1.471-3.888 1.472 3.888h-2.943Zm-1.139-9.968L4 127h5.188l.58-1.536h6.005l.591 1.536h4.974l-5.951-15.565h-5.221Zm24.149 7.036-3.642-7.036h-4.866V127h4.329v-6.832l4.179 6.768 4.189-6.768V127h4.329v-15.565H37.43l-3.115 7.036ZM62.49 127c1.01 0 1.88-.387 2.61-1.16.724-.774 1.085-1.683 1.085-2.729 0-.737-.225-1.439-.676-2.105-.165-.251-1.042-1.182-2.632-2.793a2274.649 2274.649 0 0 0-2.406-2.46h5.5v-4.318h-6.736c-1.017 0-1.887.386-2.61 1.16a3.86 3.86 0 0 0-1.074 2.728c0 .731.229 1.436.687 2.116.172.265 1.844 2.009 5.017 5.232H47.71v-1.289h6.95v-4.329h-6.95v-1.3h6.95v-4.318H43.38V127h19.111Zm14.75-11.247v-4.318h-6.736c-1.017 0-1.887.386-2.61 1.16a3.86 3.86 0 0 0-1.075 2.728c0 .852.23 1.558.688 2.116l5.016 5.232h-5.79V127h7.026c1.01 0 1.88-.387 2.61-1.16.723-.774 1.085-1.683 1.085-2.729 0-.737-.225-1.439-.677-2.105-3.323-3.459-5.002-5.21-5.038-5.253h5.5Zm6.874 5.65 1.472-3.888 1.472 3.888h-2.944Zm-1.138-9.968L76.81 127h5.188l.58-1.536h6.005l.59 1.536h4.974l-5.95-15.565h-5.221Zm19.035 11.236h-1.794c-.96 0-1.776-.337-2.45-1.01a3.316 3.316 0 0 1-1.02-2.449c0-.96.333-1.776 1-2.449.672-.673 1.496-1.01 2.47-1.01h6.048v-4.318h-6.048c-2.156 0-3.993.759-5.511 2.277-1.518 1.518-2.277 3.351-2.277 5.5 0 2.156.759 3.992 2.277 5.511 1.518 1.518 3.355 2.277 5.511 2.277h6.123v-7.638h-4.329v3.309Zm4.877-11.236V127h11.279v-4.329h-6.95v-1.289h6.95v-4.329h-6.95v-1.3h6.95v-4.318h-11.279Zm15.748 0V127h4.329v-5.618h5.865v-4.329h-5.865v-1.3h6.95v-4.318h-11.279Zm24.9 5.79c0-1.59-.558-2.947-1.676-4.072-1.117-1.131-2.47-1.704-4.06-1.718h-7.348V127h4.329v-2.782c.093.114.19.225.29.333 1.518 1.633 3.799 2.449 6.843 2.449h1.3v-4.329h-1.3a9.172 9.172 0 0 1-1.805-.161 5.717 5.717 0 0 0 2.471-2.095c.637-.967.956-2.03.956-3.19Zm-8.755 1.289v-2.127h2.632c.294 0 .544.104.752.311.208.208.312.459.312.752 0 .294-.104.544-.312.752a1.024 1.024 0 0 1-.752.312h-2.632Zm17.08 4.157c-.959 0-1.776-.337-2.449-1.01a3.317 3.317 0 0 1-1.02-2.449c0-.96.333-1.776.999-2.449.673-.673 1.496-1.01 2.47-1.01h1.182c.974 0 1.797.337 2.471 1.01.666.673.999 1.489.999 2.449 0 .96-.34 1.776-1.021 2.449-.673.673-1.489 1.01-2.449 1.01h-1.182Zm0-11.236c-2.155 0-3.992.759-5.51 2.277-1.519 1.518-2.278 3.351-2.278 5.5 0 2.156.759 3.992 2.278 5.511 1.518 1.518 3.355 2.277 5.51 2.277h1.182c2.156 0 3.992-.759 5.511-2.277 1.518-1.519 2.277-3.355 2.277-5.511 0-2.149-.759-3.982-2.277-5.5-1.519-1.518-3.355-2.277-5.511-2.277h-1.182Zm18.015 7.036-3.642-7.036h-4.866V127h4.329v-6.832l4.179 6.768 4.189-6.768V127h4.33v-15.565h-5.404l-3.115 7.036Zm12.998-7.036V127h11.279v-4.329h-6.95v-1.289h6.95v-4.329h-6.95v-1.3h6.95v-4.318h-11.279Zm19.121 9.968 1.472-3.888 1.471 3.888h-2.943Zm-1.139-9.968L198.691 127h5.189l.58-1.536h6.005l.591 1.536h4.973l-5.951-15.565h-5.221Zm24.793 5.79c0-1.59-.558-2.947-1.675-4.072-1.118-1.131-2.471-1.704-4.061-1.718h-7.348V127h4.33v-2.782c.093.114.189.225.29.333 1.518 1.633 3.799 2.449 6.842 2.449h1.3v-4.329h-1.3a9.161 9.161 0 0 1-1.804-.161 5.715 5.715 0 0 0 2.47-2.095c.638-.967.956-2.03.956-3.19Zm-8.754 1.289v-2.127h2.631c.294 0 .545.104.752.311.208.208.312.459.312.752 0 .294-.104.544-.312.752a1.022 1.022 0 0 1-.752.312h-2.631Zm9.292-7.079v4.318h3.996V127h4.329v-11.247h1.117V127h4.329v-5.618h4.63V127h4.318v-15.565h-4.318v5.618h-4.63v-5.618h-13.771Z"/>
  <g filter="url(#h)">
    <path stroke="#CEB7FF" d="M272.5 113h616v15h-616v-15Z" shape-rendering="crispEdges"/>
  </g>
  <defs>
    <filter id="a" width="901.938" height="53.768" x="0" y="37.964" color-interpolation-filters="sRGB" filterUnits="userSpaceOnUse">
      <feFlood flood-opacity="0" result="BackgroundImageFix"/>
      <feColorMatrix in="SourceAlpha" result="hardAlpha" values="0 0 0 0 0 0 0 0 0 0 0 0 0 0 0 0 0 0 127 0"/>
      <feOffset/>
      <feGaussianBlur stdDeviation="2.5"/>
      <feComposite in2="hardAlpha" operator="out"/>
      <feColorMatrix values="0 0 0 0 0.701961 0 0 0 0 0.466667 0 0 0 0 1 0 0 0 1 0"/>
      <feBlend in2="BackgroundImageFix" result="effect1_dropShadow_9_287"/>
      <feBlend in="SourceGraphic" in2="effect1_dropShadow_9_287" result="shape"/>
    </filter>
    <filter id="b" width="901.938" height="53.768" x="0" y="37.964" color-interpolation-filters="sRGB" filterUnits="userSpaceOnUse">
      <feFlood flood-opacity="0" result="BackgroundImageFix"/>
      <feColorMatrix in="SourceAlpha" result="hardAlpha" values="0 0 0 0 0 0 0 0 0 0 0 0 0 0 0 0 0 0 127 0"/>
      <feOffset/>
      <feGaussianBlur stdDeviation="2.5"/>
      <feComposite in2="hardAlpha" operator="out"/>
      <feColorMatrix values="0 0 0 0 0.701961 0 0 0 0 0.466667 0 0 0 0 1 0 0 0 1 0"/>
      <feBlend in2="BackgroundImageFix" result="effect1_dropShadow_9_287"/>
      <feBlend in="SourceGraphic" in2="effect1_dropShadow_9_287" result="shape"/>
    </filter>
    <filter id="c" width="901.938" height="53.768" x="0" y="37.964" color-interpolation-filters="sRGB" filterUnits="userSpaceOnUse">
      <feFlood flood-opacity="0" result="BackgroundImageFix"/>
      <feColorMatrix in="SourceAlpha" result="hardAlpha" values="0 0 0 0 0 0 0 0 0 0 0 0 0 0 0 0 0 0 127 0"/>
      <feOffset/>
      <feGaussianBlur stdDeviation="2.5"/>
      <feComposite in2="hardAlpha" operator="out"/>
      <feColorMatrix values="0 0 0 0 0.701961 0 0 0 0 0.466667 0 0 0 0 1 0 0 0 1 0"/>
      <feBlend in2="BackgroundImageFix" result="effect1_dropShadow_9_287"/>
      <feBlend in="SourceGraphic" in2="effect1_dropShadow_9_287" result="shape"/>
    </filter>
    <filter id="d" width="625" height="24" x="0" y=".5" color-interpolation-filters="sRGB" filterUnits="userSpaceOnUse">
      <feFlood flood-opacity="0" result="BackgroundImageFix"/>
      <feColorMatrix in="SourceAlpha" result="hardAlpha" values="0 0 0 0 0 0 0 0 0 0 0 0 0 0 0 0 0 0 127 0"/>
      <feOffset/>
      <feGaussianBlur stdDeviation="2"/>
      <feComposite in2="hardAlpha" operator="out"/>
      <feColorMatrix values="0 0 0 0 0.807843 0 0 0 0 0.717647 0 0 0 0 1 0 0 0 1 0"/>
      <feBlend in2="BackgroundImageFix" result="effect1_dropShadow_9_287"/>
      <feBlend in="SourceGraphic" in2="effect1_dropShadow_9_287" result="shape"/>
    </filter>
    <filter id="e" width="625" height="24" x="0" y=".5" color-interpolation-filters="sRGB" filterUnits="userSpaceOnUse">
      <feFlood flood-opacity="0" result="BackgroundImageFix"/>
      <feColorMatrix in="SourceAlpha" result="hardAlpha" values="0 0 0 0 0 0 0 0 0 0 0 0 0 0 0 0 0 0 127 0"/>
      <feOffset/>
      <feGaussianBlur stdDeviation="2"/>
      <feComposite in2="hardAlpha" operator="out"/>
      <feColorMatrix values="0 0 0 0 0.807843 0 0 0 0 0.717647 0 0 0 0 1 0 0 0 1 0"/>
      <feBlend in2="BackgroundImageFix" result="effect1_dropShadow_9_287"/>
      <feBlend in="SourceGraphic" in2="effect1_dropShadow_9_287" result="shape"/>
    </filter>
    <filter id="f" width="625" height="24" x="0" y=".5" color-interpolation-filters="sRGB" filterUnits="userSpaceOnUse">
      <feFlood flood-opacity="0" result="BackgroundImageFix"/>
      <feColorMatrix in="SourceAlpha" result="hardAlpha" values="0 0 0 0 0 0 0 0 0 0 0 0 0 0 0 0 0 0 127 0"/>
      <feOffset/>
      <feGaussianBlur stdDeviation="2"/>
      <feComposite in2="hardAlpha" operator="out"/>
      <feColorMatrix values="0 0 0 0 0.807843 0 0 0 0 0.717647 0 0 0 0 1 0 0 0 1 0"/>
      <feBlend in2="BackgroundImageFix" result="effect1_dropShadow_9_287"/>
      <feBlend in="SourceGraphic" in2="effect1_dropShadow_9_287" result="shape"/>
    </filter>
    <filter id="g" width="625" height="24" x="268" y="108.5" color-interpolation-filters="sRGB" filterUnits="userSpaceOnUse">
      <feFlood flood-opacity="0" result="BackgroundImageFix"/>
      <feColorMatrix in="SourceAlpha" result="hardAlpha" values="0 0 0 0 0 0 0 0 0 0 0 0 0 0 0 0 0 0 127 0"/>
      <feOffset/>
      <feGaussianBlur stdDeviation="2"/>
      <feComposite in2="hardAlpha" operator="out"/>
      <feColorMatrix values="0 0 0 0 0.807843 0 0 0 0 0.717647 0 0 0 0 1 0 0 0 1 0"/>
      <feBlend in2="BackgroundImageFix" result="effect1_dropShadow_9_287"/>
      <feBlend in="SourceGraphic" in2="effect1_dropShadow_9_287" result="shape"/>
    </filter>
    <filter id="h" width="625" height="24" x="268" y="108.5" color-interpolation-filters="sRGB" filterUnits="userSpaceOnUse">
      <feFlood flood-opacity="0" result="BackgroundImageFix"/>
      <feColorMatrix in="SourceAlpha" result="hardAlpha" values="0 0 0 0 0 0 0 0 0 0 0 0 0 0 0 0 0 0 127 0"/>
      <feOffset/>
      <feGaussianBlur stdDeviation="2"/>
      <feComposite in2="hardAlpha" operator="out"/>
      <feColorMatrix values="0 0 0 0 0.807843 0 0 0 0 0.717647 0 0 0 0 1 0 0 0 1 0"/>
      <feBlend in2="BackgroundImageFix" result="effect1_dropShadow_9_287"/>
      <feBlend in="SourceGraphic" in2="effect1_dropShadow_9_287" result="shape"/>
    </filter>
  </defs>
</svg>
