<svg fill="none" viewBox="0 0 500 190">
  <g clip-rule="evenodd" filter="url(#vector__a)">
    <path fill="#B377FF" fill-rule="evenodd" d="M176.121 7.262c-.984 1.202-1.042 2.756-1.194 32.243-.159 30.692-.036 34.88 1.031 34.88.302 0 .374-.337.16-.75-.227-.436-.184-.54.103-.25.272.275.494.815.494 1.2 0 .492 2.277.749 7.682.866 6.452.139 7.821.012 8.55-.793.773-.855.867-4.516.867-33.875V7.867l-1.207-.933c-.943-.73-2.76-.934-8.329-.934-6.551 0-7.206.101-8.157 1.262Zm56.623-.512c-1.223 1.015-12.441 37.47-12.031 39.097.226.9.171 1.017-.202.422-.386-.616-.679-.242-1.172 1.5-.362 1.277-2.116 6.982-3.899 12.677-3.08 9.842-3.735 13.824-2.22 13.489.372-.082.617.188.542.6-.102.565 1.725.791 7.404.917 8.998.2 8.887.266 10.942-6.552l1.431-4.746 7.335.166 7.335.167 1.527 5.033c.84 2.768 1.853 5.261 2.25 5.54.398.278 4.174.51 8.392.516 6.299.007 7.795-.159 8.373-.93.639-.85.748-.85 1.179 0 .394.778 1.714.939 7.716.939 10.259 0 9.571.997 10.161-14.743.258-6.904.545-12.809.636-13.123.091-.314 1.689 2.73 3.55 6.765 1.861 4.034 3.599 7.189 3.861 7.01.262-.18.653-.01.87.376.245.439.157.542-.234.275-.884-.604-.786-.055.479 2.687.664 1.436 1.35 2.23 1.713 1.983.358-.245.454-.143.236.248-.582 1.04 1.499 1.923 4.534 1.923 2.248 0 3.036-.29 4.155-1.526.798-.882 1.248-1.909 1.067-2.43-.173-.499-.08-.746.205-.55.677.461 4.506-7.935 4.017-8.809-.244-.435-.123-.496.345-.176.527.36.624.215.362-.539-.204-.586-.136-.878.156-.678.685.467 2.349-3.158 1.962-4.273-.167-.482-.078-.722.199-.533.277.189.744-.131 1.037-.71.475-.939.565-.89.816.437.155.82.395 6.61.533 12.866.316 14.314-.247 13.52 9.583 13.52 5.926 0 7.116-.161 8.17-1.104l1.232-1.103-.635-16.143c-.35-8.878-.893-23.296-1.207-32.04-.726-20.218-.051-18.834-9.305-19.062-3.733-.092-7.416.097-8.184.42-1.127.473-2.705 3.46-8.145 15.426-6.138 13.496-6.807 14.718-7.392 13.51-.354-.732-.913-1.145-1.243-.92-.348.239-.447.137-.234-.243.45-.804-1.844-6.19-2.458-5.77-.242.166-.28-.162-.084-.728.262-.753.165-.898-.361-.539-.479.328-.589.26-.331-.203.519-.927-2.914-8.573-3.63-8.084-.313.214-.394.088-.185-.286.516-.923-4.294-11.324-5.592-12.092-.58-.343-4.022-.624-7.647-.624-6.561 0-6.598.008-8.178 1.753-1.574 1.74-1.586 1.809-1.59 8.848-.004 7.824-.915 35.154-1.514 45.449l-.382 6.56-2.265-7.16c-1.246-3.938-3.312-10.46-4.591-14.493-1.51-4.756-2.49-7.074-2.792-6.599-.295.466-.354.289-.159-.486.486-1.937-9.251-32.288-10.16-31.667-.337.23-.389.081-.131-.38.786-1.406-1.015-1.806-8.161-1.816-4.838-.006-7.375.23-7.991.74Zm-54.807.247c.373.167.984.167 1.357 0 .373-.166.067-.302-.679-.302s-1.051.136-.678.302Zm4.749-.016c3.795.442 9.38.484 9.146.069-.139-.248-2.621-.407-5.514-.354-2.893.053-4.527.181-3.632.285Zm50.141.669c-.65.916-.64.96.077.345.451-.389 1.795-.816 2.985-.95l2.164-.244-2.24-.1c-1.569-.071-2.464.214-2.986.949Zm7.533-.611c1.269.127 3.346.127 4.614 0 1.269-.126.231-.23-2.307-.23-2.537 0-3.575.104-2.307.23Zm37.183.004c1.717.119 4.526.119 6.242 0 1.717-.119.313-.216-3.121-.216-3.433 0-4.838.097-3.121.216Zm45.054-.002c1.418.123 3.739.123 5.157 0 1.417-.124.257-.225-2.579-.225-2.836 0-3.996.101-2.578.225ZM183.365 9.438c1.268.127 3.345.127 4.614 0 1.268-.126.23-.23-2.307-.23-2.538 0-3.576.104-2.307.23Zm54.295.001c1.277.127 3.231.125 4.343-.004s.067-.232-2.321-.23c-2.389.002-3.298.107-2.022.234Zm40.426.001c1.418.124 3.739.124 5.157 0 1.418-.123.258-.225-2.579-.225-2.836 0-3.996.102-2.578.225Zm44.527 0c1.427.125 3.626.123 4.885-.002 1.26-.126.093-.228-2.594-.226-2.687.002-3.718.105-2.291.229ZM179.158 40.908v30.478h10.856l-.002-30.443-.002-30.443-5.426-.035-5.426-.036v30.479Zm55.397-29.515c-.226.498-1.477 4.475-2.778 8.836-1.52 5.094-2.532 7.668-2.83 7.198-.291-.458-.348-.268-.151.511.184.734-.918 5.142-2.7 10.798-1.656 5.255-4.5 14.415-6.32 20.353-1.819 5.939-3.424 11.136-3.566 11.548-.195.57 1.115.75 5.477.75h5.734l1.407-4.923c.774-2.708 1.67-5.272 1.99-5.699.437-.582 3.004-.776 10.243-.776h9.659l.824 2.55a194.758 194.758 0 0 1 1.717 5.698l.893 3.15h5.869c4.851 0 5.926-.165 6.199-.95.47-1.352.392-1.889-.139-.962-.48.835-.47.864-6.847-19.384-4.936-15.67-8.175-25.855-10.59-33.292l-2.044-6.299-5.817-.007c-4.653-.006-5.9.174-6.23.9Zm40.417-.381c-.103.378-.332 8.111-.508 17.184-.324 16.686-1.107 35.12-1.713 40.341l-.331 2.85h11.329l.361-12.148c.552-18.562.981-25.045 1.657-25.035.855.013 6.431 11.863 5.97 12.686-.232.414-.144.523.219.275.35-.239.956.34 1.441 1.377 1 2.136 1.054 2.667.211 2.092-.392-.268-.479-.164-.234.274.216.387.603.559.86.384.256-.176 1.865 2.654 3.573 6.289l3.107 6.607h2.243c2.223 0 2.26-.037 3.997-3.93 1.111-2.49 1.979-3.773 2.372-3.505.385.262.469.155.222-.285-.223-.4 1.371-4.434 3.65-9.241 5.346-11.274 6.367-13.125 7.095-12.86.606.22.982 6.168 1.746 27.572l.337 9.447h10.741l.004-1.65c.002-1.515-1.184-32.78-1.957-51.56l-.326-7.923-5.646.2c-3.105.11-5.973.5-6.373.868-.401.367-.929.468-1.173.223-.244-.244-.266-.102-.048.316.562 1.077-3.315 9.92-4.11 9.378-.37-.253-.475-.162-.258.226.438.783-1.285 5.002-1.877 4.597-.229-.156-.593.032-.809.418-.245.439-.158.542.234.274.84-.572.792-.18-.277 2.297-.497 1.151-1.105 1.956-1.351 1.788-.245-.168-.286.158-.09.724.263.754.165.898-.361.54-.498-.34-.59-.262-.3.258.49.875-.742 3.74-1.412 3.283-.25-.171-.294.152-.098.718.213.615.14.882-.182.662-.298-.204-.521.22-.499.95.022.732-.254 1.257-.619 1.178-.407-.088-.527.237-.315.848.229.66.134.848-.285.562-.423-.29-.512-.094-.271.6.241.693.152.889-.272.6-.412-.282-.516-.106-.302.509.33.95-.63 2.722-1.477 2.722-.735 0-2.228-3.617-1.893-4.584.195-.561.078-.722-.324-.447-.424.29-.512.094-.271-.6.207-.596.137-.88-.166-.673-.287.197-3.458-6.127-7.047-14.052l-6.524-14.41-5.741.048c-3.814.033-5.804.28-5.929.738Zm59.056 2.487c.003 1.98.105 2.717.226 1.64.12-1.079.118-2.698-.006-3.6-.124-.902-.223-.02-.22 1.96Zm-60.213 4.2c.001 3.959.089 5.5.195 3.425.106-2.075.106-5.314-.002-7.198-.107-1.884-.194-.187-.193 3.772Zm-80.961 3.299c0 1.154.112 1.627.248 1.05.137-.578.137-1.522 0-2.1-.136-.578-.248-.105-.248 1.05Zm139.533 1.5c.004 1.649.11 2.252.234 1.34.125-.911.122-2.26-.007-2.999-.129-.738-.231.009-.227 1.658Zm2.209 5.398c-.002 2.97.09 4.26.204 2.867.113-1.392.115-3.821.003-5.398-.112-1.577-.206-.438-.207 2.531Zm-63.023-.6c.006 1.32.117 1.79.247 1.043.13-.746.125-1.826-.011-2.4-.135-.573-.242.038-.236 1.357Zm-32.04.686c-.286.612-1.305 3.948-2.263 7.413-.96 3.464-2.091 7.494-2.516 8.954-1.449 4.986-1.618 4.842 5.742 4.842 4.158 0 6.514-.226 6.514-.625 0-1.563-4.459-15.563-4.868-15.284-.252.173-.322-.268-.153-.98s.085-1.144-.186-.96c-.271.184-.519-.464-.552-1.441-.079-2.353-1.023-3.407-1.718-1.92Zm-46.636 4.113c.002 1.98.104 2.717.225 1.639.12-1.078.118-2.698-.006-3.6-.124-.9-.223-.018-.219 1.961Zm80.331 3.3c0 1.814.101 2.557.226 1.65.124-.908.124-2.393 0-3.3-.125-.908-.226-.165-.226 1.65Zm59.632-1.8c0 .825.124 1.162.274.75.151-.412.151-1.087 0-1.5-.15-.412-.274-.075-.274.75Zm-47.31 5.099c0 2.254.107 3.98.238 3.835.403-.444.513-7.103.126-7.532-.2-.221-.364 1.442-.364 3.697Zm47.35-.9c0 1.155.112 1.627.249 1.05.136-.578.136-1.522 0-2.1-.137-.578-.249-.105-.249 1.05Zm-12.442 2.7c.003 1.979.104 2.716.225 1.638.121-1.078.119-2.697-.005-3.599-.124-.902-.223-.02-.22 1.96Zm14.68 2.399c-.001 2.97.091 4.26.205 2.867.113-1.392.115-3.822.002-5.399-.111-1.577-.205-.438-.207 2.532Zm-95.819-1.447-.821 3.246 1.594.193c.877.105 1.727.044 1.891-.136.163-.18-.185-1.728-.773-3.438l-1.069-3.11-.822 3.245Zm31.737 1.147c0 1.814.102 2.557.226 1.65.125-.908.125-2.392 0-3.3-.124-.907-.226-.165-.226 1.65Zm31.592 1.2c.185.33.443.6.575.6.132 0 .24-.27.24-.6a.59.59 0 0 0-.575-.6c-.316 0-.424.27-.24.6ZM192.906 48.29c.003 2.31.101 3.18.219 1.936.117-1.245.115-3.134-.005-4.2-.12-1.065-.216-.046-.214 2.264Zm79.722-1.2c.011.99.132 1.322.27.738.138-.583.129-1.393-.02-1.8-.149-.405-.261.072-.25 1.062Zm60.882 4.199c-.002 2.97.09 4.26.204 2.867.114-1.392.115-3.821.003-5.398-.112-1.578-.205-.438-.207 2.53Zm-48.329.3c0 2.144.098 3.021.218 1.95.121-1.072.121-2.828 0-3.9-.12-1.072-.218-.195-.218 1.95Zm2.134-1.5c.006 1.32.117 1.789.247 1.043.13-.747.125-1.826-.011-2.4-.136-.573-.242.038-.236 1.357Zm-14.63 2.1c0 1.814.101 2.557.226 1.65.124-.908.124-2.392 0-3.3-.125-.907-.226-.165-.226 1.65Zm-2.156 2.7c.003 2.309.1 3.18.218 1.935.117-1.244.116-3.134-.004-4.199-.12-1.065-.216-.046-.214 2.263Zm41.325-3.26c-.197.352-.242.768-.099.926.142.157.403-.131.58-.64.367-1.057.054-1.243-.481-.286Zm6.944 4.459c.006 1.32.117 1.789.247 1.042.13-.746.125-1.826-.011-2.4-.135-.573-.242.038-.236 1.358Zm-125.984-.3c0 .825.123 1.163.274.75.151-.412.151-1.087 0-1.5-.151-.412-.274-.075-.274.75Zm142.801 1.2c0 1.154.111 1.627.248 1.05.136-.578.136-1.523 0-2.1-.137-.578-.248-.105-.248 1.05Zm-142.844 1.55c.026.698.155.84.328.362.157-.433.137-.95-.043-1.15-.18-.2-.308.155-.285.787Zm128.147 1.449c0 .825.124 1.163.274.75.151-.412.151-1.087 0-1.5-.15-.412-.274-.075-.274.75Zm-23.12.176c.204.591.507.924.674.74.168-.185.001-.669-.37-1.076-.537-.588-.598-.52-.304.336Zm37.733.174c.027.698.155.84.328.363.157-.434.138-.951-.043-1.15-.18-.2-.308.154-.285.787Zm-48.718 3.55c.003 2.309.101 3.18.219 1.935.117-1.244.115-3.134-.005-4.199-.12-1.065-.216-.046-.214 2.263Zm-46.341-2.858c6.694.132 9.614.403 9.948.922.342.532.411.486.251-.164-.187-.757-1.775-.904-9.948-.922l-9.726-.023 9.475.187Zm31.663 4.057c.004 1.65.109 2.253.234 1.341.124-.912.121-2.261-.008-3-.128-.737-.23.01-.226 1.659Zm-79.281-.3c0 1.155.112 1.627.248 1.05.137-.578.137-1.522 0-2.1-.136-.578-.248-.105-.248 1.05Zm43.707-1.356c1.866.118 4.919.118 6.785 0 1.866-.117.339-.213-3.393-.213-3.732 0-5.258.096-3.392.213Zm97.425 4.355c0 1.155.112 1.628.248 1.05.137-.578.137-1.522 0-2.1-.136-.577-.248-.105-.248 1.05Zm-31.745.424c.672.143 1.771.143 2.443 0 .671-.144.122-.26-1.221-.26-1.344 0-1.893.116-1.222.26Zm-15.563 1.126c.026.698.155.84.328.363.157-.433.137-.951-.043-1.15-.18-.2-.308.154-.285.787Zm32.612 1.45c0 .824.123 1.162.274.75.15-.413.15-1.088 0-1.5-.151-.412-.274-.075-.274.75Zm-106.435.95c.026.698.155.84.328.362.157-.433.138-.95-.043-1.15-.18-.199-.308.155-.285.787Zm37.971-.65c0 .33.237 1.004.526 1.5.29.494.526.629.526.3 0-.33-.236-1.006-.526-1.5-.289-.495-.526-.63-.526-.3Zm-70.73 1.332c.963.133 2.673.135 3.8.005 1.125-.13.337-.238-1.753-.24-2.089-.003-3.011.103-2.047.235Zm8.188-.023c.392.173.86.152 1.04-.047.181-.2-.14-.341-.712-.315-.632.028-.761.17-.328.362Zm28.227 0c.391.173.859.152 1.04-.047.18-.2-.14-.341-.712-.315-.633.028-.762.17-.328.362Zm4.037.02c.82.137 2.164.137 2.985 0 .821-.138.149-.25-1.493-.25-1.642 0-2.313.112-1.492.25Zm36.64.01c1.268.126 3.345.126 4.613 0 1.269-.127.231-.23-2.306-.23-2.538 0-3.576.103-2.307.23Zm18.727-.003c1.12.13 2.952.13 4.071 0 1.12-.129.203-.235-2.036-.235s-3.155.106-2.035.235Zm52.66-.006c.825.137 2.047.134 2.714-.008.668-.143-.007-.255-1.5-.251-1.493.005-2.039.121-1.214.259Zm-148.996 2.409c1.277.127 3.231.125 4.343-.004 1.111-.13.067-.233-2.321-.23-2.389.001-3.299.107-2.022.234Zm38.254.005c2.015.115 5.314.115 7.328 0 2.015-.116.367-.21-3.664-.21-4.03 0-5.678.094-3.664.21Zm40.169-.002c1.717.119 4.525.119 6.242 0 1.717-.119.312-.216-3.121-.216s-4.838.097-3.121.216Zm16.001-.01c.963.132 2.673.134 3.8.005 1.125-.13.337-.238-1.753-.241-2.089-.003-3.011.103-2.047.236Zm7.068-.01c.672.143 1.772.143 2.443 0 .672-.143.122-.26-1.221-.26-1.344 0-1.893.117-1.222.26Zm43.968-.026c.374.167.985.167 1.357 0 .374-.166.068-.302-.678-.302s-1.051.136-.679.302Zm4.343.037c.971.133 2.558.133 3.528 0 .971-.133.177-.242-1.764-.242-1.94 0-2.735.109-1.764.242Zm-297.87 25.735c-3.009.559-7.992 2.23-9.983 3.349-2.804 1.575-7.501 6.478-7.157 7.471.15.433.008.724-.317.645-.325-.078-.714.232-.865.691-.184.559-.045.676.423.357.46-.315.563-.238.304.226-.216.387-.606.557-.867.379-.26-.178-1.023.964-1.693 2.539-1.035 2.432-1.224 3.911-1.252 9.802-.032 6.581.051 7.124 1.612 10.498.905 1.957 1.923 3.559 2.262 3.559.339 0 .819.246 1.068.546.263.317.168.365-.226.115-1.157-.736-.749.393.78 2.156 1.733 1.999 2.962 2.275 1.479.332-.928-1.215-.882-1.205.459.105 1.594 1.557 1.91 2.154.81 1.532-.373-.211.007.313.845 1.164 1.553 1.58 2.924 2.107 2.225.856-.242-.433-.15-.529.248-.258.35.238.5.675.335.97-.354.633 3.417 2.823 9.306 5.409 2.312 1.015 4.858 2.36 5.657 2.989.8.63 1.572 1.015 1.716.856.144-.159.115.726-.064 1.967-.47 3.25-2.92 4.584-7.376 4.015-1.791-.229-3.784-.448-4.427-.487-.642-.039-1.03-.32-.86-.624.17-.305-.108-.375-.623-.156-.513.217-.803.164-.645-.118.157-.282-.945-1.359-2.451-2.393-2.97-2.04-3.478-2.249-2.884-1.187.247.442.148.529-.276.24-.364-.249-.526-.603-.36-.787.55-.609-.884-1.945-2.088-1.945-1.198 0-2.485 1.012-2.485 1.955 0 .283.283.322.627.087.4-.273.479-.163.217.304-.226.404-.549.579-.718.392-.373-.412-2.297 1.422-2.297 2.189 0 .298.282.35.627.115.391-.268.479-.165.233.274-.216.386-.592.565-.837.398-.245-.167-1.083.62-1.863 1.75-1.515 2.195-1.806 3.07-.79 2.377.391-.268.479-.165.233.274-.216.386-.601.559-.856.385-.513-.351-2.718 2.784-2.718 3.865 0 .835 4.837 6.63 5.534 6.63.276 0 .327-.312.114-.693-.242-.432-.149-.529.248-.258.35.239.502.673.338.966-.404.723 2.257 2.588 2.983 2.092.32-.218.513-.06.431.351-.248 1.246 6.557 4.004 11.774 4.772 5.393.793 11.214.417 15.547-1.006 2.142-.703 2.649-1.075 2.068-1.517-.566-.432-.453-.489.426-.216 1.579.489 4.061-.985 7.304-4.337 2.481-2.565 3.731-4.855 1.68-3.076-.86.745-.88.724-.21-.221.406-.573.945-.902 1.198-.73.644.441 2.276-3.247 1.907-4.31-.168-.483-.084-.726.188-.541.909.621 1.87-4.125 1.885-9.299.014-5.417-1.38-11.161-2.52-10.382-.34.232-.423.114-.2-.284.521-.933-.668-3.235-1.41-2.728-.35.239-.446.136-.232-.247.406-.727-2.679-4.928-3.62-4.928-.326 0 .25 1.013 1.278 2.25l1.87 2.249-2.008-2.038c-1.105-1.121-1.96-2.302-1.9-2.625.06-.322-.23-.722-.645-.889-.506-.202-.612-.049-.323.468.285.509.215.623-.205.336-.35-.238-.502-.673-.337-.967.404-.723-2.871-2.538-3.637-2.015-.343.234-.462.15-.27-.192.448-.802-3.683-2.845-4.553-2.25-.407.277-.536.213-.325-.162.435-.779-4.876-3.372-5.961-2.911-.434.184-.655.094-.49-.2.163-.294-.557-1.091-1.601-1.772-1.48-.965-1.9-1.625-1.9-2.985 0-.961.405-2.117.899-2.57 1.365-1.252 7.101-.914 10.201.601 1.424.696 2.813 1.113 3.086.926.274-.187.43-.028.349.353-.082.381.416 1.121 1.107 1.644 1.223.925 1.346.848 4.479-2.79 3.036-3.526 4.388-6.015 2.27-4.18-.863.749-.88.727-.193-.241.415-.585.881-.925 1.035-.755.363.401 1.737-.857 1.737-1.588 0-.31-.305-.368-.678-.131-.395.251-.49.203-.227-.115.25-.3.73-.546 1.07-.546.34 0 .913-.656 1.275-1.458 2.29-5.077-9.748-13.547-20.758-14.607-1.764-.169-3.82-.195-4.566-.056Zm-1.221 1.222c.373.167.984.167 1.357 0 .374-.166.068-.302-.678-.302-.747 0-1.052.136-.679.302Zm4.892.027c.675.143 1.652.138 2.171-.012.519-.15-.034-.268-1.228-.261-1.194.007-1.618.129-.943.273Zm25.454 1.273c-.75.915-.897 2.531-.89 9.748.005 4.757.188 8.947.407 9.31.936 1.55 3.044 2.04 8.777 2.04h6.007v28.127c0 26.8.048 28.194 1.037 29.543 1.01 1.378 1.265 1.417 9.443 1.417 7.502 0 8.527-.123 9.547-1.143 1.13-1.132 1.142-1.433 1.142-29.544v-28.4h6.454c9.153 0 8.985.197 9.122-10.706.096-7.63.004-8.555-.989-9.951l-1.095-1.538H85.567c-22.592 0-24.085.066-24.93 1.097Zm54.282 0c-.816.996-.899 4.588-.899 39.217 0 31.159.133 38.244.729 38.789.4.368.909.468 1.13.224.222-.245.322-.041.222.452-.271 1.344 3.943 1.663 22.989 1.737 16.045.063 19.974-.296 19.162-1.748-.189-.339-.067-.542.273-.451.713.191.993-17.451.296-18.697-.227-.406-.874-.605-1.438-.442-.603.174-.886.048-.687-.308.223-.398-3.145-.56-9.906-.476-5.633.07-10.548.097-10.922.06-.472-.047-.678-1.344-.678-4.267v-4.199h8.921c4.907 0 9.533-.257 10.281-.571 1.769-.743 2.507-3.682 2.495-9.926-.012-5.778-.679-9.299-1.958-10.332-.683-.552-3.584-.766-10.37-.766h-9.421l.162-3.64.161-3.64 11.04-.109c13.931-.138 13.116.54 13.116-10.892 0-7.136-.116-8.114-1.126-9.532l-1.124-1.58h-20.776c-19.436 0-20.832.07-21.672 1.097Zm50.512-.038c-.856 1.046-.929 4.13-.929 39.536 0 38.288.003 38.405 1.144 39.544 1.017 1.017 2.04 1.143 9.275 1.143h8.132l1.309-1.684c1.274-1.637 1.31-1.96 1.31-11.997l.001-10.314 5.292-.104c5.607-.11 13.566-2.309 13.305-3.676-.076-.399.238-.52.767-.296.558.237.763.141.542-.253-.2-.36.049-.599.577-.552.512.045.937-.233.944-.618.007-.385.235-.925.507-1.2.287-.29.33-.185.104.25-.855 1.641.664.598 3.087-2.12 2.502-2.808 3.491-4.685 1.607-3.052-.857.743-.878.722-.219-.207.402-.567.985-.972 1.295-.9.833.193 3.518-5.968 4.256-9.767 1.157-5.952-.063-19.392-1.661-18.301-.302.207-.403-.019-.23-.517.376-1.083-.733-3.536-1.395-3.084-.262.18-.654.01-.87-.376-.26-.464-.157-.541.304-.226.464.317.613.198.445-.358-.138-.458-.516-.833-.839-.833-.324 0-.791-.246-1.041-.546-.262-.317-.167-.365.227-.114.373.237.678.18.678-.128 0-1.274-5.24-5.756-9.127-7.808l-4.172-2.201-16.848-.188c-15.956-.178-16.897-.128-17.777.947Zm56.534.087-1.282 1.147-.147 37.796-.148 37.796 1.322 1.698 1.322 1.699h8.174c11.379 0 10.599 1.169 10.812-16.212l.164-13.482 7.706.009c4.239.004 8.257.17 8.928.369 1.22.362 1.221.375 1.221 13.696 0 16.873-.831 15.62 10.357 15.62 7.674 0 8.131-.068 9.306-1.366l1.236-1.367.159-36.725c.088-20.199.016-37.603-.16-38.675-.176-1.072-.568-1.95-.87-1.95-.303 0-.374.338-.16.75.227.436.183.541-.104.25-.271-.275-.494-.815-.494-1.199 0-.496-2.436-.749-8.351-.867-6.811-.135-8.587.006-9.635.764l-1.284.93v27.566h-17.913v-13.116c0-12.361-.064-13.207-1.125-14.697l-1.125-1.58h-8.314c-7.376 0-8.458.129-9.595 1.146Zm85.657-.055c-1.097 1.34-.824.486-20.202 63.229-4.536 14.684-4.583 15.506-.946 16.622 2.577.791 13.732.837 15.57.065 1.766-.742 3.239-3.862 2.803-5.939-.233-1.111-.178-1.329.184-.728.384.639.744-.01 1.41-2.541.492-1.869.754-3.65.582-3.956-.521-.933 18.512-.863 19.058.069.248.425 1.211 3.067 2.138 5.871.928 2.805 1.946 5.099 2.262 5.099.316 0 .778.246 1.027.546.263.317.168.365-.226.115-.373-.237-.679-.156-.679.18 0 1.263 4.66 1.988 11.233 1.748 5.492-.201 6.808-.432 7.735-1.359 1.112-1.111 1.638-4.956.58-4.233-.3.204-.403-.018-.234-.504.31-.895-.556-3.913-6.311-21.987-6.63-20.823-9.746-30.768-9.754-31.127-.005-.201-.265.039-.579.534-.444.7-.492.596-.219-.474.302-1.186-1.777-8.617-5.286-18.896-1.061-3.109-2.082-3.425-11.043-3.425-7.249 0-8.314.127-9.103 1.091Zm46.258-.641a3.84 3.84 0 0 0 .013.944c.043.272-.16.332-.451.133-1.543-1.054-1.69 2.715-1.545 39.532l.147 37.49 1.183 1.307c1.095 1.21 1.738 1.31 8.762 1.366 10.835.085 9.866 2.163 9.879-21.179l.011-18.953 2.948 5.099c1.622 2.805 3.184 5.099 3.472 5.099.289 0 .728.246.977.546.263.317.168.365-.226.115-.976-.621-.84.11.453 2.421.622 1.114 1.338 1.883 1.591 1.711.252-.172.635.003.851.389.246.438.158.542-.233.274-.887-.606-.777.339.224 1.919.469.739 1.062 1.2 1.32 1.023.258-.175.645-.003.861.383.263.471.155.541-.326.211-1.099-.75-.458.68 2.709 6.04 1.547 2.62 3.018 4.764 3.268 4.764s.658.246.907.546c.263.317.168.365-.226.114-.932-.592-.852.3.172 1.916.469.739 1.117 1.162 1.441.94.348-.237.434-.124.209.278-.485.868.643 3.252 1.32 2.79.28-.191.381.02.225.471-.157.45.239 1.342.878 1.981 1.044 1.043 2.015 1.162 9.504 1.162 7.956 0 8.398-.063 9.577-1.366l1.236-1.367.148-37.677c.146-37.457.14-37.688-.99-39.276l-1.137-1.596h-7.831c-7.108 0-7.932.111-8.917 1.199-1.038 1.147-1.086 2-1.086 19.381 0 14.299-.156 18.418-.731 19.287-.571.863-.828.934-1.17.322-.289-.518-.226-.638.189-.355.887.606.776-.339-.225-1.919-.468-.739-1.117-1.162-1.441-.941-.348.238-.433.124-.209-.278.473-.844-.633-3.258-1.288-2.811-.263.18-.654.011-.87-.376-.246-.438-.158-.541.233-.274.87.593.783-.021-.246-1.759-.481-.81-1.075-1.335-1.32-1.168-.245.167-.623-.012-.839-.398-.245-.438-.158-.542.234-.274.893.609.784.12-.512-2.307-.627-1.173-1.343-1.994-1.591-1.824-.249.17-.629-.007-.845-.394-.245-.438-.158-.541.234-.274.869.593.783-.022-.247-1.759-.481-.81-1.074-1.336-1.319-1.168-.246.167-.623-.012-.839-.398-.245-.438-.158-.542.233-.274.888.606.777-.339-.224-1.919-.468-.739-1.117-1.162-1.441-.941-.355.243-.433.123-.196-.301.466-.834-1.74-5.029-2.406-4.574-.252.172-.635-.003-.851-.389-.26-.464-.157-.541.304-.226.464.317.613.198.445-.358-.138-.458-.515-.833-.839-.833-.323 0-.791-.246-1.041-.546-.267-.323-.145-.35.297-.066.512.328.67.216.498-.354-.138-.459-.516-.834-.84-.834-.323 0-.791-.246-1.04-.545-.267-.323-.146-.35.297-.067.512.328.669.216.497-.354-.138-.458-.516-.833-.839-.833-.324 0-.792-.246-1.041-.546-.267-.323-.145-.35.297-.067.515.33.663.22.475-.354-.151-.458-.567-.758-.925-.668-.358.091-.499-.106-.314-.438.441-.789-.712-3.156-1.332-2.733-.262.18-.654.01-.87-.376-.246-.438-.158-.542.233-.274 1 .683.725-.559-.366-1.65-.831-.832-2.326-.992-9.228-.992-4.529 0-8.263.202-8.299.45Zm67.956 1.13c-1.111 1.561-1.125 2.052-1.125 39.038v37.457l1.626 1.797 1.627 1.798 7.817-.194c6.775-.169 7.97-.347 8.958-1.337 1.137-1.139 1.141-1.284 1.141-39.648 0-36.542-.05-38.556-.992-39.499-.835-.834-2.343-.992-9.46-.992h-8.467l-1.125 1.58Zm27.078-.355c-1.096 1.211-1.106 1.647-.95 39.275l.159 38.05 1.236 1.366 1.236 1.366h20.591c19.03 0 20.665-.081 21.562-1.07.82-.902.998-2.359 1.146-9.328.25-11.813.961-11.17-12.477-11.297-5.773-.054-10.801-.122-11.175-.15-.473-.035-.678-1.318-.678-4.25v-4.199h9.154c12.484 0 12.016.423 12.016-10.841 0-11.372.671-10.754-11.671-10.754h-9.499v-7.766l11.172.134c14.093.169 13.255.843 13.255-10.649 0-7.136-.116-8.114-1.126-9.532l-1.124-1.58h-20.86c-20.277 0-20.889.034-21.967 1.225Zm-387.75.491c-.783.957-.89 2.308-.746 9.448l.168 8.331.12-8.514c.112-8.043.185-8.566 1.325-9.448.663-.513.946-.934.626-.934-.318 0-.99.503-1.493 1.117Zm3.603-.686c.825.138 2.047.134 2.714-.008.668-.142-.007-.255-1.5-.251-1.493.005-2.039.121-1.214.259Zm13.298-.006c.675.143 1.653.138 2.171-.012.52-.15-.033-.268-1.227-.261-1.195.006-1.62.129-.944.273Zm14.141-.015c.391.174.86.152 1.04-.047.18-.199-.14-.341-.712-.315-.633.029-.761.171-.328.362Zm7.6 0c.391.174.859.152 1.039-.047.181-.199-.14-.341-.712-.315-.632.029-.76.171-.328.362Zm20.592-.012c.374.166.984.166 1.357 0 .374-.167.068-.303-.678-.303-.747 0-1.052.136-.679.303Zm45.541.704c-.825 1.008-.89 4.339-.759 38.542l.144 37.439.132-37.444c.119-33.873.217-37.549 1.03-38.541.494-.604.776-1.098.627-1.098-.149 0-.678.497-1.174 1.102Zm4.134-.671c.825.138 2.047.134 2.714-.008.668-.142-.007-.255-1.5-.251-1.493.005-2.039.121-1.214.259Zm14.927-.006c.675.143 1.652.138 2.171-.012.519-.15-.034-.268-1.228-.261-1.194.006-1.619.129-.943.273Zm3.827-.015c.391.174.86.152 1.04-.047.18-.199-.14-.341-.712-.315-.632.029-.761.171-.328.362Zm6.514 0c.391.174.86.152 1.04-.047.18-.199-.14-.341-.712-.315-.633.029-.761.171-.328.362Zm30.363.014c.672.143 1.771.143 2.443 0 .672-.143.122-.26-1.221-.26-1.344 0-1.894.117-1.222.26Zm8.422.007c.825.138 2.046.134 2.714-.008.667-.142-.008-.255-1.501-.251-1.492.005-2.039.121-1.213.259Zm34.495-.021c.391.174.86.152 1.04-.047.18-.199-.14-.341-.712-.315-.633.029-.761.171-.328.362Zm4.59.006c.528.153 1.261.142 1.628-.022.368-.164-.064-.289-.96-.277-.896.012-1.196.147-.668.299Zm149.348.934-1.034 1.35 1.357-1.193c.746-.656 1.459-1.264 1.583-1.35.124-.086-.021-.157-.323-.157s-1.014.608-1.583 1.35Zm38.218-.94c.392.174.86.152 1.04-.047.181-.199-.14-.341-.712-.315-.632.029-.761.171-.328.362Zm9.476.006c.528.153 1.261.142 1.628-.022.368-.164-.064-.289-.96-.277-.896.012-1.196.147-.668.299Zm13.865-.006c.392.174.86.152 1.04-.047.181-.199-.14-.341-.712-.315-.632.029-.761.171-.328.362Zm-262.147 1.24c-.675.952-.656.973.205.227.522-.453.95-.926.95-1.05 0-.494-.446-.176-1.155.823Zm39.208-.224c-.434.578-.573 4.757-.463 13.947l.158 13.121.125-13.227c.087-9.325.316-13.439.775-13.947.359-.396.511-.72.338-.72-.172 0-.592.372-.933.826Zm135.12.054c-.363.484-.576 1.15-.474 1.48.103.33.47-.066.815-.88.715-1.687.612-1.869-.341-.6Zm-363.823.16c1.277.127 3.231.125 4.343-.004 1.111-.129.067-.232-2.321-.23-2.389.002-3.298.107-2.022.234Zm82.336.31c-.143.413-.196 17.351-.118 37.642l.141 36.891.271-37.641c.149-20.703.202-37.642.119-37.642-.084 0-.27.338-.413.75Zm-87.1 1.383c-1.343.469-2.76.724-3.149.567-.389-.158-.573-.048-.41.244.361.646-1.224 1.396-1.931.913-.279-.191-.44.011-.358.448.084.45-.278.755-.837.704-.543-.05-.85.059-.686.242.165.182-.695 1.525-1.912 2.984-3.501 4.197-4.497 7.273-4.519 13.96-.015 4.644.205 6.238 1.188 8.614.663 1.603 1.049 3.196.856 3.541-.193.345-.106.46.192.257.3-.204 1.234.424 2.076 1.395.842.972 2.463 2.48 3.602 3.352 1.138.872 1.97 1.765 1.848 1.983-.122.218.187.427.688.464 1.721.129 13.938 6.055 13.808 6.7-.07.355.202.505.605.334.404-.172 1.378.534 2.165 1.567 1.13 1.484 1.43 2.512 1.43 4.892 0 2.611-.24 3.278-1.796 4.999-2.195 2.426-5.592 3.531-9.603 3.123-3.794-.385-7.99-2.165-6.964-2.953.503-.386.374-.447-.425-.201-.786.242-2.063-.327-4.05-1.804l-2.9-2.158-1.02 1.547c-.56.85-1.226 1.406-1.477 1.233-.252-.172-.635.003-.851.39-.245.438-.158.541.233.274.345-.235.627-.184.627.114 0 .66-1.724 2.446-2.352 2.435-.249-.003-.615.194-.814.439-.2.246-.057.252.316.015.374-.237.679-.179.679.131 0 .869-1.405 1.951-1.887 1.452-.238-.244-.144.165.206.91.351.746 1.911 2.471 3.466 3.836 1.556 1.365 2.762 2.732 2.68 3.039-.082.307.07.408.338.225.269-.183 1.986.339 3.817 1.162 7.482 3.359 18.287 3.25 24.719-.249 1.907-1.038 4.388-3.02 5.535-4.424 1.144-1.399 2.25-2.544 2.456-2.544.207 0 .58-.245.829-.545.262-.318.167-.366-.227-.115-.89.566-.863.327.342-3.067 3.22-9.068 1.19-17.889-5.41-23.505-1.317-1.121-2.344-2.237-2.28-2.479.062-.242-.182-.405-.544-.361-1.132.137-10.692-4.547-10.389-5.09.16-.284-.048-.373-.46-.198-1.04.441-3.79-.797-3.383-1.524.198-.353-.045-.433-.599-.199-.628.267-.805.169-.543-.3.243-.433.11-.576-.352-.38-.97.412-2.802-1.833-2.27-2.782.26-.467.181-.576-.22-.302-.938.641-1.74-2.241-1.2-4.318.757-2.918 1.69-4.439 2.51-4.092.421.179.708.006.637-.384-.184-1.01 4.35-2.234 6.927-1.87 3.363.475 5.753 1.442 5.35 2.163-.218.389-.105.47.283.204.355-.241 1.489.11 2.519.782l1.874 1.222 2.002-2.645c1.1-1.456 2.186-2.519 2.412-2.365.227.155.589-.034.805-.421.245-.438.158-.541-.233-.274-1.001.683-.724-.559.367-1.651.546-.547 1.19-.791 1.43-.542.24.248.173-.111-.15-.798-.322-.687-.964-1.595-1.424-2.018-.461-.423-.681-1.049-.489-1.393.208-.371.085-.444-.301-.18-.813.554-2.344-.772-1.87-1.62.199-.355.087-.445-.257-.21-.334.228-1.776-.237-3.206-1.033-4.997-2.782-13.056-3.612-18.068-1.862Zm38.405-.494c1.269.127 3.345.127 4.614 0 1.269-.126.23-.23-2.307-.23-2.538 0-3.576.104-2.307.23Zm8.413-.01c.821.138 2.165.138 2.986 0 .82-.137.15-.249-1.493-.249-1.642 0-2.313.112-1.493.249Zm6.82-.019c.391.173.86.151 1.04-.048.18-.199-.14-.34-.712-.315-.633.029-.761.171-.328.363Zm3.765-.013c.374.167.984.167 1.357 0 .374-.166.068-.302-.678-.302-.747 0-1.052.136-.679.302Zm5.463.013c.391.173.86.151 1.04-.048.18-.199-.14-.34-.712-.315-.633.029-.762.171-.328.363Zm10.313 0c.391.173.86.151 1.04-.048.18-.199-.14-.34-.712-.315-.632.029-.761.171-.328.363Zm2.137-.013c.374.167.984.167 1.357 0 .374-.166.068-.302-.678-.302-.747 0-1.052.136-.679.302Zm19.813.032c.821.138 2.165.138 2.985 0 .821-.137.15-.249-1.492-.249s-2.314.112-1.493.249Zm6.242-.032c.374.167.984.167 1.357 0 .374-.166.068-.302-.678-.302-.747 0-1.052.136-.679.302Zm4.92.013c.391.173.86.151 1.04-.048.18-.199-.14-.34-.712-.315-.633.029-.761.171-.328.363Zm11.908-.013c.373.167.984.167 1.357 0 .373-.166.067-.302-.679-.302s-1.051.136-.678.302Zm4.919.013c.391.173.86.151 1.04-.048.18-.199-.14-.34-.712-.315-.632.029-.761.171-.328.363Zm26.598 0c.391.173.86.151 1.04-.048.18-.199-.14-.34-.712-.315-.633.029-.761.171-.328.363Zm4.342 0c.392.173.86.151 1.041-.048.18-.199-.141-.34-.713-.315-.632.029-.761.171-.328.363Zm7.029.014c.676.143 1.653.138 2.172-.012.519-.15-.034-.267-1.228-.261-1.194.007-1.619.13-.944.273Zm37.448.01c.971.133 2.558.133 3.528 0 .971-.133.177-.242-1.764-.242-1.94 0-2.734.109-1.764.242Zm7.057-.037c.373.167.984.167 1.357 0 .373-.166.068-.302-.679-.302-.746 0-1.051.136-.678.302Zm36.368 0c.374.167.984.167 1.357 0 .374-.166.068-.302-.678-.302-.747 0-1.052.136-.679.302Zm3.257.026c.672.143 1.771.143 2.443 0 .671-.143.122-.26-1.221-.26-1.344 0-1.893.117-1.222.26Zm41.797 0c.671.143 1.771.143 2.443 0 .671-.143.122-.26-1.222-.26-1.343 0-1.893.117-1.221.26Zm140.86-.01c.523.151 1.378.151 1.9 0 .522-.15.095-.274-.95-.274s-1.472.124-.95.274Zm3.563-.003c.391.173.86.151 1.04-.048.18-.199-.14-.34-.712-.315-.633.029-.761.171-.328.363Zm12.993-.013c.374.167.984.167 1.357 0 .374-.166.068-.302-.678-.302-.747 0-1.052.136-.679.302Zm4.886.026c.671.143 1.771.143 2.442 0 .672-.143.122-.26-1.221-.26-1.344 0-1.893.117-1.221.26Zm4.624-.007c.528.152 1.261.142 1.628-.023.368-.164-.064-.288-.96-.276-.896.012-1.196.146-.668.299Zm-418.114 7.382v6.599h7.22c4.891 0 7.43.232 7.87.72.49.539.652 7.958.652 29.693v28.974h12.756l.16-29.225c.12-22.003.32-29.337.813-29.684.36-.253 3.77-.464 7.576-.469l6.921-.009v-13.197H63.538v6.598Zm53.451 29.094c0 19.795.069 27.807.152 17.803.084-10.004.083-26.201 0-35.992-.084-9.792-.152-1.607-.152 18.189Zm.831.6v36.292l19.134.001 19.134.001-.17-6.3-.171-6.3h-24.3l-.164-8.43c-.093-4.791.058-8.675.352-8.998.287-.317 5.024-.568 10.72-.568h10.205V135.571l-10.178-.071c-5.597-.039-10.36-.039-10.585 0-.224.039-.407-3.568-.407-8.016v-8.086l12.059-.162 12.06-.161.018-6.448.018-6.448-18.862-.001H117.82v36.292Zm49.651 0c0 20.125.069 28.271.152 18.102.083-10.169.083-26.635 0-36.591-.084-9.957-.152-1.637-.152 18.489Zm.831-.042v36.334H181.329V167c0-10.383.099-11.72.843-11.404.463.196.704.11.536-.191-.177-.316 2.845-.631 7.164-.746 7.808-.206 7.216-.054 15.294-3.927.536-.257.634-.128.324.427-.305.544-.236.651.218.341.365-.249.527-.603.361-.786-.167-.184.81-1.649 2.17-3.255 1.36-1.607 3.251-4.737 4.202-6.955 1.639-3.826 1.727-4.388 1.699-10.932-.025-5.78-.223-7.369-1.223-9.801-.657-1.598-1.052-3.156-.88-3.465.172-.308.107-.486-.146-.395-.588.21-4.588-4.645-4.189-5.085.163-.181-.001-.533-.365-.782-.448-.306-.523-.202-.232.318.236.424.213.654-.052.511-.266-.142-2.193-1.189-4.283-2.326l-3.799-2.066-15.335-.194-15.334-.193v36.334Zm56.452.042v36.292h6.65l6.649.001-.158-13.348c-.088-7.341-.02-13.96.149-14.708l.306-1.361 12.608.161 12.608.161.145 14.547.146 14.547h13.008v-72.584h-13.008l-.146 14.546-.145 14.547H238.053l-.145-14.547-.146-14.546h-13.008v36.292Zm38.123-34.493c0 1.155.112 1.628.248 1.05.137-.578.137-1.522 0-2.099-.136-.578-.248-.105-.248 1.049Zm46.949-1.366c-.128.257-1.772 5.545-3.652 11.752-2.347 7.746-3.575 11.039-3.915 10.498-.335-.533-.387-.36-.161.532.338 1.329-.873 5.562-10.004 34.957-2.405 7.746-4.373 14.157-4.373 14.247 0 .091 2.992.162 6.649.157l6.65-.007 1.928-6.741 1.929-6.741 11.604-.162c6.382-.09 11.822.079 12.091.376.268.296 1.403 3.339 2.522 6.76l2.034 6.223 6.88.168c3.784.092 6.88.042 6.88-.111 0-.154-.271-1.039-.603-1.968-.331-.929-2.627-8.167-5.103-16.085-2.475-7.919-5.4-17.232-6.499-20.696a7920.259 7920.259 0 0 1-4.922-15.596 2995.909 2995.909 0 0 0-4.272-13.497l-1.35-4.199-7.039-.167c-3.872-.093-7.145.042-7.274.3Zm46.29 35.859v36.292h11.929l.142-23.795c.119-19.837.269-23.842.907-24.077.524-.193.659.025.426.693-.193.557-.084.913.253.832.325-.079.715.232.866.69.183.559.044.677-.424.358-.46-.315-.563-.239-.304.226.216.386.595.564.843.394.247-.169 1.207.998 2.133 2.592 1.779 3.064 2.089 4.042 1.057 3.338-.391-.267-.478-.164-.233.274.216.387.593.565.839.398.245-.167.838.358 1.319 1.169 1.03 1.737 1.116 2.352.247 1.758-.392-.267-.479-.164-.234.274.216.387.599.561.852.389.252-.172.968.598 1.591 1.711 1.27 2.271 1.434 3.059.505 2.425-.392-.267-.479-.164-.234.274.216.387.608.556.871.376.619-.423 1.773 1.945 1.331 2.734-.185.331-.058.528.283.437.341-.09 2.741 3.511 5.333 8.003a9309.49 9309.49 0 0 0 7.699 13.317l2.985 5.151 6.921.029 6.921.03v-72.584h-11.942v24.894c0 15.805-.194 24.895-.53 24.895-.847 0-2.318-2.876-1.876-3.666.24-.428.173-.562-.165-.331-.732.499-2.479-2.421-1.982-3.312.22-.391.136-.509-.199-.281-.328.224-1.534-1.279-2.798-3.492-2.327-4.071-2.632-4.866-1.594-4.158.392.268.479.164.234-.274-.216-.386-.595-.564-.843-.395-.247.169-1.208-.997-2.134-2.592-1.778-3.063-2.088-4.042-1.056-3.338.391.268.478.165.233-.274-.216-.386-.595-.564-.842-.394-.674.459-3.973-5.525-3.507-6.358.237-.423.169-.556-.167-.327-.761.519-5.242-7.135-4.722-8.065.246-.44.173-.564-.186-.318-.324.222-.973-.201-1.442-.94-1.001-1.58-1.111-2.525-.224-1.919.392.267.479.164.234-.275-.216-.386-.593-.565-.836-.399-.245.167-1.632-1.715-3.084-4.181l-2.64-4.485-6.378-.008-6.378-.007v36.292Zm42.041-14.997c0 11.877.073 16.821.161 10.986.089-5.834.089-15.552.001-21.595-.089-6.042-.161-1.268-.162 10.609Zm26.649-20.739c-.42.75-.387 68.714.033 70.566.328 1.447.399 1.462 6.786 1.462h6.456v-72.584h-6.482c-3.565 0-6.622.25-6.793.556Zm16.032.393c.026.699.154.841.327.363.157-.433.138-.951-.042-1.15-.181-.199-.309.155-.285.787Zm11.356 35.343v36.292h37.997v-12.575l-12.349-.161-12.349-.162-.151-8.548c-.083-4.701.04-8.564.272-8.584.232-.02 5.063-.151 10.735-.291l10.314-.255.154-6.018c.116-4.489-.022-6.085-.543-6.282-.383-.145-5.216-.351-10.739-.458l-10.042-.193V119.675l12.349-.162 12.349-.161v-13.174h-37.997v36.292Zm38.732-31.193c-.001 2.969.09 4.259.204 2.867.114-1.392.116-3.822.003-5.399-.112-1.577-.205-.438-.207 2.532Zm-94.945 12.897c0 9.733.075 13.714.166 8.848.091-4.867.091-12.83 0-17.696-.091-4.867-.166-.885-.166 8.848Zm15.755 15.896c0 18.476.069 26.121.153 16.989a2225.8 2225.8 0 0 0 0-33.593c-.084-9.344-.153-1.872-.153 16.604Zm29.102-28.744c.026.699.154.841.327.363.157-.433.138-.951-.042-1.15-.181-.199-.309.155-.285.787Zm-284.352 2.05c0 1.155.111 1.628.248 1.05.136-.578.136-1.522 0-2.1-.137-.577-.248-.105-.248 1.05Zm106.483 6.899c0 4.948.084 6.893.186 4.321s.102-6.621-.001-8.998c-.103-2.377-.186-.272-.185 4.677Zm150.728-7.149c.026.699.155.841.328.363.157-.433.137-.951-.043-1.15-.18-.199-.309.155-.285.787Zm.139 7.448c0 2.475.096 3.488.213 2.25.117-1.237.117-3.261 0-4.499-.117-1.237-.213-.225-.213 2.249Zm27.044-2.999c0 .825.124 1.163.274.75.151-.412.151-1.087 0-1.5-.15-.412-.274-.075-.274.75Zm-402.955 2.209c.39.174.86.152 1.04-.047.18-.199-.14-.341-.713-.315-.632.029-.76.171-.327.362Zm143.645.362c-.147.424-.201 5.485-.119 11.247l.15 10.477 2.912.546c4.043.757 9.869-.308 12.599-2.305 1.171-.857 2.13-1.84 2.13-2.184 0-.345-.282-.434-.627-.199-.391.267-.479.164-.233-.274.216-.387.62-.547.899-.357.851.581 1.59-2.588 1.59-6.823 0-4.166-1.215-7.86-2.763-8.406-.544-.191-.491.074.184.916.522.651.95 1.426.95 1.72 0 .295-.425-.131-.945-.946-.521-.816-.884-1.699-.807-1.961.077-.262-.711-.869-1.751-1.349-2.508-1.159-13.774-1.24-14.169-.102Zm-43.802.277c3.359.105 8.855.105 12.214 0 3.359-.106.61-.192-6.107-.192-6.717 0-9.465.086-6.107.192Zm46.954-.007c1.418.123 3.738.123 5.157 0 1.418-.124.257-.225-2.579-.225-2.836 0-3.997.101-2.578.225Zm281.278.345c-.151.433-.202 3.875-.116 7.648l.158 6.862.268-7.649c.148-4.207.199-7.649.116-7.649-.084.001-.276.356-.426.788Zm6.986-.338c3.226.106 8.355.105 11.399-.001 3.044-.107.405-.194-5.865-.194-6.269.001-8.76.089-5.534.195Zm-404.664.561c.392.174.86.152 1.04-.047.18-.199-.14-.341-.712-.315-.632.029-.761.171-.328.362Zm24.766 15.187c0 8.743.076 12.32.168 7.948.093-4.372.093-11.525 0-15.896-.092-4.371-.168-.795-.168 7.948ZM34.372 121.59c.529.152 1.261.142 1.629-.022.367-.165-.065-.289-.96-.277-.896.012-1.197.147-.669.299Zm75.236.634c-.675.952-.656.973.205.227.523-.453.95-.926.95-1.05 0-.494-.445-.176-1.155.823Zm112.058 2.25c.002 1.979.104 2.716.225 1.638.121-1.078.118-2.697-.005-3.599-.125-.901-.223-.019-.22 1.961Zm-193.704-2.06c-.197.352-.242.769-.1.926.143.157.404-.131.58-.64.368-1.057.055-1.243-.48-.286Zm412.876.31c.026.699.154.841.327.363.157-.433.138-.951-.042-1.15-.181-.199-.309.155-.285.787Zm-428.281 1.2c.026.698.154.841.327.362.157-.433.138-.95-.042-1.149-.18-.2-.309.154-.285.787Zm53.851-.506c1.727.119 4.414.118 5.971-.003 1.556-.12.143-.218-3.141-.217-3.284.001-4.558.1-2.83.22Zm32.842 0c1.877.118 4.808.117 6.513-.001 1.705-.119.169-.215-3.413-.214-3.583.001-4.978.098-3.1.215Zm87.1-.046c-.492.219-.678 2.362-.678 7.798v7.496l3.664-.412c6.286-.708 7.713-2.181 7.727-7.978.007-2.738-.219-3.446-1.579-4.949-1.33-1.469-2.025-1.753-4.298-1.753-1.491 0-3.037-.114-3.434-.253-.398-.138-1.028-.116-1.402.051Zm-175.84 3.501c.004 1.98.105 2.717.226 1.639.12-1.078.118-2.698-.005-3.599-.125-.902-.223-.019-.22 1.96Zm123.094-1.75c.026.699.155.841.328.363.157-.433.138-.951-.043-1.15-.18-.199-.308.155-.285.787Zm307.234 0c.026.699.154.841.327.363.157-.433.138-.951-.042-1.15-.181-.199-.309.155-.285.787Zm-392.568.7c-.675.952-.656.973.205.227.905-.784 1.192-1.276.745-1.276-.112 0-.54.472-.95 1.049Zm365.539 2.25c.005 1.649.11 2.253.235 1.341.124-.912.121-2.261-.008-2.999s-.231.008-.227 1.658Zm-196.506.3c0 1.484.105 2.092.235 1.349.129-.742.129-1.956 0-2.699-.13-.743-.235-.135-.235 1.35Zm95.076 10.2c-3.102 10.201-3.702 12.749-3.125 13.279.791.725 14.647.5 15.74-.255.473-.327.423-1.083-.2-2.983-.458-1.4-1.317-4.03-1.908-5.844-2.207-6.767-2.188-6.725-2.694-5.889-.314.519-.385.277-.206-.71.363-1.997-1.958-9.844-2.974-10.056-.584-.122-1.807 3.168-4.633 12.458Zm4.111-11.435c0 .31.242.729.537.931.307.21.398-.031.213-.565-.361-1.039-.75-1.229-.75-.366Zm-94.95 2.184c.026.699.155.841.328.363.157-.433.138-.951-.043-1.15-.18-.199-.308.155-.285.787Zm.094 3.55c.006 1.319.118 1.789.247 1.042.13-.746.125-1.826-.011-2.399-.135-.574-.242.037-.236 1.357Zm41.16-1.15c.026.699.155.841.328.363.157-.433.138-.951-.043-1.15-.18-.199-.308.155-.285.787Zm175.977 1.45c0 1.484.106 2.092.236 1.349.129-.742.129-1.956 0-2.699-.13-.743-.236-.135-.236 1.35Zm-221.53-.6c0 .825.123 1.162.273.75.151-.412.151-1.087 0-1.5-.15-.412-.273-.075-.273.75Zm196.55.9c.006 1.319.117 1.788.247 1.042.129-.746.125-1.826-.011-2.399-.136-.574-.242.037-.236 1.357Zm75.162-.261c.424.601.723 3.84.831 8.998l.17 8.059.119-8.175c.103-7.169.001-8.276-.832-8.998-.837-.725-.871-.711-.288.116Zm-238.144 1.16-12.213.335 12.349.133c7.951.085 12.349-.081 12.349-.468 0-.33-.061-.54-.135-.467-.075.073-5.632.283-12.35.467Zm-95.357 3.9c.003 2.309.101 3.18.218 1.936.118-1.245.116-3.134-.004-4.199-.12-1.066-.216-.047-.214 2.263Zm61.203-1.75c.026.699.155.841.328.363.157-.433.137-.951-.043-1.15-.18-.199-.308.154-.285.787Zm5.005 2.049c0 1.815.102 2.557.226 1.65.124-.907.124-2.392 0-3.299s-.226-.165-.226 1.649Zm192.142 0c0 1.485.105 2.093.235 1.35.129-.742.129-1.957 0-2.699-.13-.743-.235-.135-.235 1.349Zm24.927-.899c.011.989.133 1.322.271.738.137-.584.128-1.393-.02-1.799-.149-.407-.262.071-.251 1.061Zm48.951 4.799c.001 3.629.09 5.036.198 3.127.108-1.909.107-4.878-.002-6.599-.109-1.72-.197-.158-.196 3.472Zm-171.986-3.856c.191.915-.133 2.866-.798 4.799-.616 1.79-1.119 3.458-1.119 3.706-.001.247 1.491.449 3.314.449 2.934 0 3.273-.12 2.95-1.049-.201-.577-.859-2.735-1.462-4.795-1.037-3.548-2.079-5.354-2.097-3.639-.007.574-.157.543-.56-.114-.415-.679-.471-.522-.228.643Zm39.579 20.952c0 10.722.073 15.109.163 9.748.09-5.361.09-14.134 0-19.496-.09-5.361-.163-.975-.163 9.748ZM155.36 143.969c0 .825.123 1.163.273.75.151-.412.151-1.087 0-1.5-.15-.412-.273-.075-.273.75Zm258.495 4.799c0 3.464.089 4.881.199 3.149.11-1.731.11-4.566 0-6.298-.11-1.732-.199-.315-.199 3.149Zm27.118-1.499c.002 2.309.1 3.18.218 1.936.117-1.245.116-3.134-.004-4.199-.12-1.066-.216-.047-.214 2.263Zm-70.046-.6c.004 1.649.109 2.253.234 1.341.125-.912.121-2.262-.007-2.999-.129-.738-.231.008-.227 1.658Zm-217.698.3c0 1.154.112 1.626.248 1.049.137-.577.137-1.522 0-2.099-.136-.577-.248-.105-.248 1.05Zm2.088 1.549c.026.699.155.841.328.363.157-.433.137-.951-.043-1.15-.18-.199-.308.155-.285.787Zm-23.248 1.263c.522.152 1.377.152 1.9 0 .522-.15.095-.274-.95-.274s-1.472.124-.95.274Zm4.077.011c.676.144 1.653.138 2.172-.012.519-.15-.034-.267-1.228-.261-1.194.007-1.619.13-.944.273Zm9.21.009c.963.133 2.673.135 3.799.005s.338-.238-1.752-.241c-2.09-.003-3.011.104-2.047.236Zm252.461 1.994c-.115 1.335-.058 2.698.127 3.029.185.331.381-.761.434-2.427.116-3.62-.265-4.03-.561-.602Zm68.065 5.521.118 7.949.17-7.622.169-7.621 3.648-.209 3.648-.21-3.935-.117-3.936-.118.118 7.948Zm14.674-7.535c.522.152 1.378.152 1.9 0 .522-.15.095-.274-.95-.274s-1.472.124-.95.274Zm3.562-.003c.392.173.86.152 1.04-.048.181-.199-.14-.34-.712-.315-.632.029-.761.171-.328.363Zm-239.687.635c2.015.115 5.313.115 7.328 0 2.015-.116.367-.21-3.664-.21-4.03 0-5.679.094-3.664.21Zm12.791-.035c.391.173.86.151 1.04-.048.18-.199-.14-.34-.712-.315-.633.029-.761.171-.328.363Zm3.484.026 2.026.235.156 14.211.155 14.211.126-14.546.125-14.547-2.307.101-2.307.1 2.026.235Zm110.108.514c.027.698.155.841.328.362.157-.433.138-.95-.043-1.15-.18-.199-.308.155-.285.788Zm67.946 1.749c.006 1.32.117 1.789.247 1.043s.125-1.826-.011-2.4c-.135-.573-.242.038-.236 1.357Zm-125.662-1.076c.671.143 1.771.143 2.442 0 .672-.143.122-.26-1.221-.26-1.344 0-1.893.117-1.221.26Zm-174 .623c2.597.11 6.994.11 9.77.001 2.777-.109.652-.199-4.722-.2-5.373 0-7.645.089-5.048.199Zm333.044-.003c1.866.118 4.92.118 6.785 0 1.867-.117.34-.213-3.392-.213-3.732 0-5.258.096-3.393.213Zm11.671-.014c.821.137 2.164.137 2.985 0 .822-.137.15-.25-1.492-.25-1.643 0-2.315.113-1.493.25ZM93.081 164.965c0 7.093.078 9.995.174 6.448.096-3.547.096-9.35 0-12.897-.096-3.547-.174-.645-.174 6.449Zm153.25-12.151c2.464.111 6.493.111 8.957 0 2.463-.111.448-.202-4.479-.202-4.926 0-6.941.091-4.478.202Zm124.526.753c0 .825.124 1.163.274.75.151-.412.151-1.087 0-1.5-.15-.412-.274-.075-.274.75Zm-110.045 13.797c0 7.423.078 10.461.174 6.749a319.63 319.63 0 0 0 0-13.497c-.096-3.712-.174-.675-.174 6.748Zm180.068-11.997c0 .825.124 1.162.274.75.151-.413.151-1.087 0-1.5-.15-.412-.274-.075-.274.75Zm-254.258.423c.672.143 1.77.143 2.442 0 .672-.143.122-.26-1.221-.26s-1.893.117-1.221.26Zm5.156.006c.821.138 2.165.138 2.986 0 .821-.137.149-.249-1.493-.249-1.642 0-2.313.112-1.493.249Zm29.845 1.97c0 1.155.112 1.627.248 1.05.137-.577.137-1.522 0-2.1-.136-.577-.248-.105-.248 1.05Zm-28.488.397c.374.167.985.167 1.357 0 .374-.166.068-.302-.678-.302s-1.051.136-.679.302Zm220.701 5.602c0 2.474.096 3.487.213 2.249.117-1.237.117-3.261 0-4.499-.117-1.237-.213-.225-.213 2.25Zm27.085-2.4c0 1.155.111 1.627.248 1.05.136-.577.136-1.522 0-2.099-.137-.577-.248-.105-.248 1.049Zm50.355 1.427c0 .124.428.597.95 1.05.861.745.88.724.206-.227-.71-.999-1.156-1.317-1.156-.823Zm-459.9 1.37c.374.167.985.167 1.358 0 .373-.166.067-.302-.679-.302s-1.051.136-.678.302Zm313.93-.097c.056 1.136.961 3.05.992 2.099.017-.495-.207-1.304-.496-1.799-.289-.495-.513-.63-.496-.3Zm25.551 1.499c0 .825.124 1.163.274.75.151-.412.151-1.087 0-1.499-.15-.412-.274-.075-.274.749Zm122.091.35c.026.699.154.841.328.363.157-.433.137-.951-.043-1.15-.18-.199-.309.155-.285.787Zm-271.365.85c0 .825.123 1.163.274.75.151-.412.151-1.087 0-1.5-.151-.412-.274-.075-.274.75Zm-189.657-.176c.675.144 1.652.138 2.171-.012.52-.15-.034-.267-1.228-.26-1.194.006-1.618.129-.943.272Zm296.269.352c.204.591.508.924.675.74.167-.185.001-.669-.371-1.076-.536-.588-.598-.519-.304.336Zm162.74 5.823c0 3.464.089 4.881.199 3.149.109-1.732.109-4.567 0-6.298-.11-1.732-.199-.315-.199 3.149Zm2.168.3c.002 3.299.093 4.572.203 2.829.11-1.743.109-4.442-.003-5.999-.111-1.556-.201-.129-.2 3.17Zm-79.263 0c.002 2.639.097 3.645.212 2.234.115-1.411.113-3.571-.003-4.799-.117-1.229-.211-.075-.209 2.565Zm-256.895-2.95c.026.699.155.841.328.363.157-.433.138-.951-.043-1.15-.18-.199-.308.155-.285.787Zm64.595 0c.026.699.155.841.328.363.157-.433.138-.951-.043-1.15-.18-.199-.308.155-.285.787Zm-64.532 2.95c.011.99.133 1.322.271.738.138-.583.128-1.393-.02-1.799-.149-.406-.261.071-.251 1.061Zm64.575 2.099c0 .825.123 1.163.274.75.151-.412.151-1.087 0-1.5-.151-.412-.274-.074-.274.75Zm124.779-.3c0 .33.236 1.005.526 1.5.289.495.526.63.526.3s-.237-1.005-.526-1.5c-.29-.495-.526-.63-.526-.3Zm-189.334 2.1c0 1.155.112 1.627.249 1.05.136-.577.136-1.523 0-2.1-.137-.577-.249-.105-.249 1.05Zm256.669 2.749c.026.699.155.841.328.363.157-.433.137-.951-.043-1.15-.18-.199-.309.155-.285.787Zm35.24-.085c0 .476.221 1.015.492 1.2.271.186.364-.204.208-.864-.332-1.401-.7-1.578-.7-.336Zm-418.115 1.368c.963.133 2.673.135 3.8.005 1.125-.13.337-.238-1.753-.241-2.09-.003-3.011.104-2.047.236Zm338.794.617c-.674.951-.655.972.206.227.904-.784 1.191-1.277.744-1.277-.112 0-.54.473-.95 1.05Zm122.134 0c-.675.951-.656.972.205.227.904-.784 1.191-1.277.745-1.277-.113 0-.54.473-.95 1.05ZM35.21 183.37c.392.174.86.152 1.04-.047.18-.199-.14-.341-.712-.315-.632.029-.76.171-.327.362Z"/>
    <path stroke="#CEB7FF" stroke-width="2" d="M176.121 7.262c-.984 1.202-1.042 2.756-1.194 32.243-.159 30.692-.036 34.88 1.031 34.88.302 0 .374-.337.16-.75-.227-.436-.184-.54.103-.25.272.275.494.815.494 1.2 0 .492 2.277.749 7.682.866 6.452.139 7.821.012 8.55-.793.773-.855.867-4.516.867-33.875V7.867l-1.207-.933c-.943-.73-2.76-.934-8.329-.934-6.551 0-7.206.101-8.157 1.262Zm56.623-.512c-1.223 1.015-12.441 37.47-12.031 39.097.226.9.171 1.017-.202.422-.386-.616-.679-.242-1.172 1.5-.362 1.277-2.116 6.982-3.899 12.677-3.08 9.842-3.735 13.824-2.22 13.489.372-.082.617.188.542.6-.102.565 1.725.791 7.404.917 8.998.2 8.887.266 10.942-6.552l1.431-4.746 7.335.166 7.335.167 1.527 5.033c.84 2.768 1.853 5.261 2.25 5.54.398.278 4.174.51 8.392.516 6.299.007 7.795-.159 8.373-.93.639-.85.748-.85 1.179 0 .394.778 1.714.939 7.716.939 10.259 0 9.571.997 10.161-14.743.258-6.904.545-12.809.636-13.123.091-.314 1.689 2.73 3.55 6.765 1.861 4.034 3.599 7.189 3.861 7.01.262-.18.653-.01.87.376.245.439.157.542-.234.275-.884-.604-.786-.055.479 2.687.664 1.436 1.35 2.23 1.713 1.983.358-.245.454-.143.236.248-.582 1.04 1.499 1.923 4.534 1.923 2.248 0 3.036-.29 4.155-1.526.798-.882 1.248-1.909 1.067-2.43-.173-.499-.08-.746.205-.55.677.461 4.506-7.935 4.017-8.809-.244-.435-.123-.496.345-.176.527.36.624.215.362-.539-.204-.586-.136-.878.156-.678.685.467 2.349-3.158 1.962-4.273-.167-.482-.078-.722.199-.533.277.189.744-.131 1.037-.71.475-.939.565-.89.816.437.155.82.395 6.61.533 12.866.316 14.314-.247 13.52 9.583 13.52 5.926 0 7.116-.161 8.17-1.104l1.232-1.103-.635-16.143c-.35-8.878-.893-23.296-1.207-32.04-.726-20.218-.051-18.834-9.305-19.062-3.733-.092-7.416.097-8.184.42-1.127.473-2.705 3.46-8.145 15.426-6.138 13.496-6.807 14.718-7.392 13.51-.354-.732-.913-1.145-1.243-.92-.348.239-.447.137-.234-.243.45-.804-1.844-6.19-2.458-5.77-.242.166-.28-.162-.084-.728.262-.753.165-.898-.361-.539-.479.328-.589.26-.331-.203.519-.927-2.914-8.573-3.63-8.084-.313.214-.394.088-.185-.286.516-.923-4.294-11.324-5.592-12.092-.58-.343-4.022-.624-7.647-.624-6.561 0-6.598.008-8.178 1.753-1.574 1.74-1.586 1.809-1.59 8.848-.004 7.824-.915 35.154-1.514 45.449l-.382 6.56-2.265-7.16c-1.246-3.938-3.312-10.46-4.591-14.493-1.51-4.756-2.49-7.074-2.792-6.599-.295.466-.354.289-.159-.486.486-1.937-9.251-32.288-10.16-31.667-.337.23-.389.081-.131-.38.786-1.406-1.015-1.806-8.161-1.816-4.838-.006-7.375.23-7.991.74Zm-54.807.247c.373.167.984.167 1.357 0 .373-.166.067-.302-.679-.302s-1.051.136-.678.302Zm4.749-.016c3.795.442 9.38.484 9.146.069-.139-.248-2.621-.407-5.514-.354-2.893.053-4.527.181-3.632.285Zm50.141.669c-.65.916-.64.96.077.345.451-.389 1.795-.816 2.985-.95l2.164-.244-2.24-.1c-1.569-.071-2.464.214-2.986.949Zm7.533-.611c1.269.127 3.346.127 4.614 0 1.269-.126.231-.23-2.307-.23-2.537 0-3.575.104-2.307.23Zm37.183.004c1.717.119 4.526.119 6.242 0 1.717-.119.313-.216-3.121-.216-3.433 0-4.838.097-3.121.216Zm45.054-.002c1.418.123 3.739.123 5.157 0 1.417-.124.257-.225-2.579-.225-2.836 0-3.996.101-2.578.225ZM183.365 9.438c1.268.127 3.345.127 4.614 0 1.268-.126.23-.23-2.307-.23-2.538 0-3.576.104-2.307.23Zm54.295.001c1.277.127 3.231.125 4.343-.004s.067-.232-2.321-.23c-2.389.002-3.298.107-2.022.234Zm40.426.001c1.418.124 3.739.124 5.157 0 1.418-.123.258-.225-2.579-.225-2.836 0-3.996.102-2.578.225Zm44.527 0c1.427.125 3.626.123 4.885-.002 1.26-.126.093-.228-2.594-.226-2.687.002-3.718.105-2.291.229ZM179.158 40.908v30.478h10.856l-.002-30.443-.002-30.443-5.426-.035-5.426-.036v30.479Zm55.397-29.515c-.226.498-1.477 4.475-2.778 8.836-1.52 5.094-2.532 7.668-2.83 7.198-.291-.458-.348-.268-.151.511.184.734-.918 5.142-2.7 10.798-1.656 5.255-4.5 14.415-6.32 20.353-1.819 5.939-3.424 11.136-3.566 11.548-.195.57 1.115.75 5.477.75h5.734l1.407-4.923c.774-2.708 1.67-5.272 1.99-5.699.437-.582 3.004-.776 10.243-.776h9.659l.824 2.55a194.758 194.758 0 0 1 1.717 5.698l.893 3.15h5.869c4.851 0 5.926-.165 6.199-.95.47-1.352.392-1.889-.139-.962-.48.835-.47.864-6.847-19.384-4.936-15.67-8.175-25.855-10.59-33.292l-2.044-6.299-5.817-.007c-4.653-.006-5.9.174-6.23.9Zm40.417-.381c-.103.378-.332 8.111-.508 17.184-.324 16.686-1.107 35.12-1.713 40.341l-.331 2.85h11.329l.361-12.148c.552-18.562.981-25.045 1.657-25.035.855.013 6.431 11.863 5.97 12.686-.232.414-.144.523.219.275.35-.239.956.34 1.441 1.377 1 2.136 1.054 2.667.211 2.092-.392-.268-.479-.164-.234.274.216.387.603.559.86.384.256-.176 1.865 2.654 3.573 6.289l3.107 6.607h2.243c2.223 0 2.26-.037 3.997-3.93 1.111-2.49 1.979-3.773 2.372-3.505.385.262.469.155.222-.285-.223-.4 1.371-4.434 3.65-9.241 5.346-11.274 6.367-13.125 7.095-12.86.606.22.982 6.168 1.746 27.572l.337 9.447h10.741l.004-1.65c.002-1.515-1.184-32.78-1.957-51.56l-.326-7.923-5.646.2c-3.105.11-5.973.5-6.373.868-.401.367-.929.468-1.173.223-.244-.244-.266-.102-.048.316.562 1.077-3.315 9.92-4.11 9.378-.37-.253-.475-.162-.258.226.438.783-1.285 5.002-1.877 4.597-.229-.156-.593.032-.809.418-.245.439-.158.542.234.274.84-.572.792-.18-.277 2.297-.497 1.151-1.105 1.956-1.351 1.788-.245-.168-.286.158-.09.724.263.754.165.898-.361.54-.498-.34-.59-.262-.3.258.49.875-.742 3.74-1.412 3.283-.25-.171-.294.152-.098.718.213.615.14.882-.182.662-.298-.204-.521.22-.499.95.022.732-.254 1.257-.619 1.178-.407-.088-.527.237-.315.848.229.66.134.848-.285.562-.423-.29-.512-.094-.271.6.241.693.152.889-.272.6-.412-.282-.516-.106-.302.509.33.95-.63 2.722-1.477 2.722-.735 0-2.228-3.617-1.893-4.584.195-.561.078-.722-.324-.447-.424.29-.512.094-.271-.6.207-.596.137-.88-.166-.673-.287.197-3.458-6.127-7.047-14.052l-6.524-14.41-5.741.048c-3.814.033-5.804.28-5.929.738Zm59.056 2.487c.003 1.98.105 2.717.226 1.64.12-1.079.118-2.698-.006-3.6-.124-.902-.223-.02-.22 1.96Zm-60.213 4.2c.001 3.959.089 5.5.195 3.425.106-2.075.106-5.314-.002-7.198-.107-1.884-.194-.187-.193 3.772Zm-80.961 3.299c0 1.154.112 1.627.248 1.05.137-.578.137-1.522 0-2.1-.136-.578-.248-.105-.248 1.05Zm139.533 1.5c.004 1.649.11 2.252.234 1.34.125-.911.122-2.26-.007-2.999-.129-.738-.231.009-.227 1.658Zm2.209 5.398c-.002 2.97.09 4.26.204 2.867.113-1.392.115-3.821.003-5.398-.112-1.577-.206-.438-.207 2.531Zm-63.023-.6c.006 1.32.117 1.79.247 1.043.13-.746.125-1.826-.011-2.4-.135-.573-.242.038-.236 1.357Zm-32.04.686c-.286.612-1.305 3.948-2.263 7.413-.96 3.464-2.091 7.494-2.516 8.954-1.449 4.986-1.618 4.842 5.742 4.842 4.158 0 6.514-.226 6.514-.625 0-1.563-4.459-15.563-4.868-15.284-.252.173-.322-.268-.153-.98s.085-1.144-.186-.96c-.271.184-.519-.464-.552-1.441-.079-2.353-1.023-3.407-1.718-1.92Zm-46.636 4.113c.002 1.98.104 2.717.225 1.639.12-1.078.118-2.698-.006-3.6-.124-.9-.223-.018-.219 1.961Zm80.331 3.3c0 1.814.101 2.557.226 1.65.124-.908.124-2.393 0-3.3-.125-.908-.226-.165-.226 1.65Zm59.632-1.8c0 .825.124 1.162.274.75.151-.412.151-1.087 0-1.5-.15-.412-.274-.075-.274.75Zm-47.31 5.099c0 2.254.107 3.98.238 3.835.403-.444.513-7.103.126-7.532-.2-.221-.364 1.442-.364 3.697Zm47.35-.9c0 1.155.112 1.627.249 1.05.136-.578.136-1.522 0-2.1-.137-.578-.249-.105-.249 1.05Zm-12.442 2.7c.003 1.979.104 2.716.225 1.638.121-1.078.119-2.697-.005-3.599-.124-.902-.223-.02-.22 1.96Zm14.68 2.399c-.001 2.97.091 4.26.205 2.867.113-1.392.115-3.822.002-5.399-.111-1.577-.205-.438-.207 2.532Zm-95.819-1.447-.821 3.246 1.594.193c.877.105 1.727.044 1.891-.136.163-.18-.185-1.728-.773-3.438l-1.069-3.11-.822 3.245Zm31.737 1.147c0 1.814.102 2.557.226 1.65.125-.908.125-2.392 0-3.3-.124-.907-.226-.165-.226 1.65Zm31.592 1.2c.185.33.443.6.575.6.132 0 .24-.27.24-.6a.59.59 0 0 0-.575-.6c-.316 0-.424.27-.24.6ZM192.906 48.29c.003 2.31.101 3.18.219 1.936.117-1.245.115-3.134-.005-4.2-.12-1.065-.216-.046-.214 2.264Zm79.722-1.2c.011.99.132 1.322.27.738.138-.583.129-1.393-.02-1.8-.149-.405-.261.072-.25 1.062Zm60.882 4.199c-.002 2.97.09 4.26.204 2.867.114-1.392.115-3.821.003-5.398-.112-1.578-.205-.438-.207 2.53Zm-48.329.3c0 2.144.098 3.021.218 1.95.121-1.072.121-2.828 0-3.9-.12-1.072-.218-.195-.218 1.95Zm2.134-1.5c.006 1.32.117 1.789.247 1.043.13-.747.125-1.826-.011-2.4-.136-.573-.242.038-.236 1.357Zm-14.63 2.1c0 1.814.101 2.557.226 1.65.124-.908.124-2.392 0-3.3-.125-.907-.226-.165-.226 1.65Zm-2.156 2.7c.003 2.309.1 3.18.218 1.935.117-1.244.116-3.134-.004-4.199-.12-1.065-.216-.046-.214 2.263Zm41.325-3.26c-.197.352-.242.768-.099.926.142.157.403-.131.58-.64.367-1.057.054-1.243-.481-.286Zm6.944 4.459c.006 1.32.117 1.789.247 1.042.13-.746.125-1.826-.011-2.4-.135-.573-.242.038-.236 1.358Zm-125.984-.3c0 .825.123 1.163.274.75.151-.412.151-1.087 0-1.5-.151-.412-.274-.075-.274.75Zm142.801 1.2c0 1.154.111 1.627.248 1.05.136-.578.136-1.523 0-2.1-.137-.578-.248-.105-.248 1.05Zm-142.844 1.55c.026.698.155.84.328.362.157-.433.137-.95-.043-1.15-.18-.2-.308.155-.285.787Zm128.147 1.449c0 .825.124 1.163.274.75.151-.412.151-1.087 0-1.5-.15-.412-.274-.075-.274.75Zm-23.12.176c.204.591.507.924.674.74.168-.185.001-.669-.37-1.076-.537-.588-.598-.52-.304.336Zm37.733.174c.027.698.155.84.328.363.157-.434.138-.951-.043-1.15-.18-.2-.308.154-.285.787Zm-48.718 3.55c.003 2.309.101 3.18.219 1.935.117-1.244.115-3.134-.005-4.199-.12-1.065-.216-.046-.214 2.263Zm-46.341-2.858c6.694.132 9.614.403 9.948.922.342.532.411.486.251-.164-.187-.757-1.775-.904-9.948-.922l-9.726-.023 9.475.187Zm31.663 4.057c.004 1.65.109 2.253.234 1.341.124-.912.121-2.261-.008-3-.128-.737-.23.01-.226 1.659Zm-79.281-.3c0 1.155.112 1.627.248 1.05.137-.578.137-1.522 0-2.1-.136-.578-.248-.105-.248 1.05Zm43.707-1.356c1.866.118 4.919.118 6.785 0 1.866-.117.339-.213-3.393-.213-3.732 0-5.258.096-3.392.213Zm97.425 4.355c0 1.155.112 1.628.248 1.05.137-.578.137-1.522 0-2.1-.136-.577-.248-.105-.248 1.05Zm-31.745.424c.672.143 1.771.143 2.443 0 .671-.144.122-.26-1.221-.26-1.344 0-1.893.116-1.222.26Zm-15.563 1.126c.026.698.155.84.328.363.157-.433.137-.951-.043-1.15-.18-.2-.308.154-.285.787Zm32.612 1.45c0 .824.123 1.162.274.75.15-.413.15-1.088 0-1.5-.151-.412-.274-.075-.274.75Zm-106.435.95c.026.698.155.84.328.362.157-.433.138-.95-.043-1.15-.18-.199-.308.155-.285.787Zm37.971-.65c0 .33.237 1.004.526 1.5.29.494.526.629.526.3 0-.33-.236-1.006-.526-1.5-.289-.495-.526-.63-.526-.3Zm-70.73 1.332c.963.133 2.673.135 3.8.005 1.125-.13.337-.238-1.753-.24-2.089-.003-3.011.103-2.047.235Zm8.188-.023c.392.173.86.152 1.04-.047.181-.2-.14-.341-.712-.315-.632.028-.761.17-.328.362Zm28.227 0c.391.173.859.152 1.04-.047.18-.2-.14-.341-.712-.315-.633.028-.762.17-.328.362Zm4.037.02c.82.137 2.164.137 2.985 0 .821-.138.149-.25-1.493-.25-1.642 0-2.313.112-1.492.25Zm36.64.01c1.268.126 3.345.126 4.613 0 1.269-.127.231-.23-2.306-.23-2.538 0-3.576.103-2.307.23Zm18.727-.003c1.12.13 2.952.13 4.071 0 1.12-.129.203-.235-2.036-.235s-3.155.106-2.035.235Zm52.66-.006c.825.137 2.047.134 2.714-.008.668-.143-.007-.255-1.5-.251-1.493.005-2.039.121-1.214.259Zm-148.996 2.409c1.277.127 3.231.125 4.343-.004 1.111-.13.067-.233-2.321-.23-2.389.001-3.299.107-2.022.234Zm38.254.005c2.015.115 5.314.115 7.328 0 2.015-.116.367-.21-3.664-.21-4.03 0-5.678.094-3.664.21Zm40.169-.002c1.717.119 4.525.119 6.242 0 1.717-.119.312-.216-3.121-.216s-4.838.097-3.121.216Zm16.001-.01c.963.132 2.673.134 3.8.005 1.125-.13.337-.238-1.753-.241-2.089-.003-3.011.103-2.047.236Zm7.068-.01c.672.143 1.772.143 2.443 0 .672-.143.122-.26-1.221-.26-1.344 0-1.893.117-1.222.26Zm43.968-.026c.374.167.985.167 1.357 0 .374-.166.068-.302-.678-.302s-1.051.136-.679.302Zm4.343.037c.971.133 2.558.133 3.528 0 .971-.133.177-.242-1.764-.242-1.94 0-2.735.109-1.764.242Zm-297.87 25.735c-3.009.559-7.992 2.23-9.983 3.349-2.804 1.575-7.501 6.478-7.157 7.471.15.433.008.724-.317.645-.325-.078-.714.232-.865.691-.184.559-.045.676.423.357.46-.315.563-.238.304.226-.216.387-.606.557-.867.379-.26-.178-1.023.964-1.693 2.539-1.035 2.432-1.224 3.911-1.252 9.802-.032 6.581.051 7.124 1.612 10.498.905 1.957 1.923 3.559 2.262 3.559.339 0 .819.246 1.068.546.263.317.168.365-.226.115-1.157-.736-.749.393.78 2.156 1.733 1.999 2.962 2.275 1.479.332-.928-1.215-.882-1.205.459.105 1.594 1.557 1.91 2.154.81 1.532-.373-.211.007.313.845 1.164 1.553 1.58 2.924 2.107 2.225.856-.242-.433-.15-.529.248-.258.35.238.5.675.335.97-.354.633 3.417 2.823 9.306 5.409 2.312 1.015 4.858 2.36 5.657 2.989.8.63 1.572 1.015 1.716.856.144-.159.115.726-.064 1.967-.47 3.25-2.92 4.584-7.376 4.015-1.791-.229-3.784-.448-4.427-.487-.642-.039-1.03-.32-.86-.624.17-.305-.108-.375-.623-.156-.513.217-.803.164-.645-.118.157-.282-.945-1.359-2.451-2.393-2.97-2.04-3.478-2.249-2.884-1.187.247.442.148.529-.276.24-.364-.249-.526-.603-.36-.787.55-.609-.884-1.945-2.088-1.945-1.198 0-2.485 1.012-2.485 1.955 0 .283.283.322.627.087.4-.273.479-.163.217.304-.226.404-.549.579-.718.392-.373-.412-2.297 1.422-2.297 2.189 0 .298.282.35.627.115.391-.268.479-.165.233.274-.216.386-.592.565-.837.398-.245-.167-1.083.62-1.863 1.75-1.515 2.195-1.806 3.07-.79 2.377.391-.268.479-.165.233.274-.216.386-.601.559-.856.385-.513-.351-2.718 2.784-2.718 3.865 0 .835 4.837 6.63 5.534 6.63.276 0 .327-.312.114-.693-.242-.432-.149-.529.248-.258.35.239.502.673.338.966-.404.723 2.257 2.588 2.983 2.092.32-.218.513-.06.431.351-.248 1.246 6.557 4.004 11.774 4.772 5.393.793 11.214.417 15.547-1.006 2.142-.703 2.649-1.075 2.068-1.517-.566-.432-.453-.489.426-.216 1.579.489 4.061-.985 7.304-4.337 2.481-2.565 3.731-4.855 1.68-3.076-.86.745-.88.724-.21-.221.406-.573.945-.902 1.198-.73.644.441 2.276-3.247 1.907-4.31-.168-.483-.084-.726.188-.541.909.621 1.87-4.125 1.885-9.299.014-5.417-1.38-11.161-2.52-10.382-.34.232-.423.114-.2-.284.521-.933-.668-3.235-1.41-2.728-.35.239-.446.136-.232-.247.406-.727-2.679-4.928-3.62-4.928-.326 0 .25 1.013 1.278 2.25l1.87 2.249-2.008-2.038c-1.105-1.121-1.96-2.302-1.9-2.625.06-.322-.23-.722-.645-.889-.506-.202-.612-.049-.323.468.285.509.215.623-.205.336-.35-.238-.502-.673-.337-.967.404-.723-2.871-2.538-3.637-2.015-.343.234-.462.15-.27-.192.448-.802-3.683-2.845-4.553-2.25-.407.277-.536.213-.325-.162.435-.779-4.876-3.372-5.961-2.911-.434.184-.655.094-.49-.2.163-.294-.557-1.091-1.601-1.772-1.48-.965-1.9-1.625-1.9-2.985 0-.961.405-2.117.899-2.57 1.365-1.252 7.101-.914 10.201.601 1.424.696 2.813 1.113 3.086.926.274-.187.43-.028.349.353-.082.381.416 1.121 1.107 1.644 1.223.925 1.346.848 4.479-2.79 3.036-3.526 4.388-6.015 2.27-4.18-.863.749-.88.727-.193-.241.415-.585.881-.925 1.035-.755.363.401 1.737-.857 1.737-1.588 0-.31-.305-.368-.678-.131-.395.251-.49.203-.227-.115.25-.3.73-.546 1.07-.546.34 0 .913-.656 1.275-1.458 2.29-5.077-9.748-13.547-20.758-14.607-1.764-.169-3.82-.195-4.566-.056Zm-1.221 1.222c.373.167.984.167 1.357 0 .374-.166.068-.302-.678-.302-.747 0-1.052.136-.679.302Zm4.892.027c.675.143 1.652.138 2.171-.012.519-.15-.034-.268-1.228-.261-1.194.007-1.618.129-.943.273Zm25.454 1.273c-.75.915-.897 2.531-.89 9.748.005 4.757.188 8.947.407 9.31.936 1.55 3.044 2.04 8.777 2.04h6.007v28.127c0 26.8.048 28.194 1.037 29.543 1.01 1.378 1.265 1.417 9.443 1.417 7.502 0 8.527-.123 9.547-1.143 1.13-1.132 1.142-1.433 1.142-29.544v-28.4h6.454c9.153 0 8.985.197 9.122-10.706.096-7.63.004-8.555-.989-9.951l-1.095-1.538H85.567c-22.592 0-24.085.066-24.93 1.097Zm54.282 0c-.816.996-.899 4.588-.899 39.217 0 31.159.133 38.244.729 38.789.4.368.909.468 1.13.224.222-.245.322-.041.222.452-.271 1.344 3.943 1.663 22.989 1.737 16.045.063 19.974-.296 19.162-1.748-.189-.339-.067-.542.273-.451.713.191.993-17.451.296-18.697-.227-.406-.874-.605-1.438-.442-.603.174-.886.048-.687-.308.223-.398-3.145-.56-9.906-.476-5.633.07-10.548.097-10.922.06-.472-.047-.678-1.344-.678-4.267v-4.199h8.921c4.907 0 9.533-.257 10.281-.571 1.769-.743 2.507-3.682 2.495-9.926-.012-5.778-.679-9.299-1.958-10.332-.683-.552-3.584-.766-10.37-.766h-9.421l.162-3.64.161-3.64 11.04-.109c13.931-.138 13.116.54 13.116-10.892 0-7.136-.116-8.114-1.126-9.532l-1.124-1.58h-20.776c-19.436 0-20.832.07-21.672 1.097Zm50.512-.038c-.856 1.046-.929 4.13-.929 39.536 0 38.288.003 38.405 1.144 39.544 1.017 1.017 2.04 1.143 9.275 1.143h8.132l1.309-1.684c1.274-1.637 1.31-1.96 1.31-11.997l.001-10.314 5.292-.104c5.607-.11 13.566-2.309 13.305-3.676-.076-.399.238-.52.767-.296.558.237.763.141.542-.253-.2-.36.049-.599.577-.552.512.045.937-.233.944-.618.007-.385.235-.925.507-1.2.287-.29.33-.185.104.25-.855 1.641.664.598 3.087-2.12 2.502-2.808 3.491-4.685 1.607-3.052-.857.743-.878.722-.219-.207.402-.567.985-.972 1.295-.9.833.193 3.518-5.968 4.256-9.767 1.157-5.952-.063-19.392-1.661-18.301-.302.207-.403-.019-.23-.517.376-1.083-.733-3.536-1.395-3.084-.262.18-.654.01-.87-.376-.26-.464-.157-.541.304-.226.464.317.613.198.445-.358-.138-.458-.516-.833-.839-.833-.324 0-.791-.246-1.041-.546-.262-.317-.167-.365.227-.114.373.237.678.18.678-.128 0-1.274-5.24-5.756-9.127-7.808l-4.172-2.201-16.848-.188c-15.956-.178-16.897-.128-17.777.947Zm56.534.087-1.282 1.147-.147 37.796-.148 37.796 1.322 1.698 1.322 1.699h8.174c11.379 0 10.599 1.169 10.812-16.212l.164-13.482 7.706.009c4.239.004 8.257.17 8.928.369 1.22.362 1.221.375 1.221 13.696 0 16.873-.831 15.62 10.357 15.62 7.674 0 8.131-.068 9.306-1.366l1.236-1.367.159-36.725c.088-20.199.016-37.603-.16-38.675-.176-1.072-.568-1.95-.87-1.95-.303 0-.374.338-.16.75.227.436.183.541-.104.25-.271-.275-.494-.815-.494-1.199 0-.496-2.436-.749-8.351-.867-6.811-.135-8.587.006-9.635.764l-1.284.93v27.566h-17.913v-13.116c0-12.361-.064-13.207-1.125-14.697l-1.125-1.58h-8.314c-7.376 0-8.458.129-9.595 1.146Zm85.657-.055c-1.097 1.34-.824.486-20.202 63.229-4.536 14.684-4.583 15.506-.946 16.622 2.577.791 13.732.837 15.57.065 1.766-.742 3.239-3.862 2.803-5.939-.233-1.111-.178-1.329.184-.728.384.639.744-.01 1.41-2.541.492-1.869.754-3.65.582-3.956-.521-.933 18.512-.863 19.058.069.248.425 1.211 3.067 2.138 5.871.928 2.805 1.946 5.099 2.262 5.099.316 0 .778.246 1.027.546.263.317.168.365-.226.115-.373-.237-.679-.156-.679.18 0 1.263 4.66 1.988 11.233 1.748 5.492-.201 6.808-.432 7.735-1.359 1.112-1.111 1.638-4.956.58-4.233-.3.204-.403-.018-.234-.504.31-.895-.556-3.913-6.311-21.987-6.63-20.823-9.746-30.768-9.754-31.127-.005-.201-.265.039-.579.534-.444.7-.492.596-.219-.474.302-1.186-1.777-8.617-5.286-18.896-1.061-3.109-2.082-3.425-11.043-3.425-7.249 0-8.314.127-9.103 1.091Zm46.258-.641a3.84 3.84 0 0 0 .013.944c.043.272-.16.332-.451.133-1.543-1.054-1.69 2.715-1.545 39.532l.147 37.49 1.183 1.307c1.095 1.21 1.738 1.31 8.762 1.366 10.835.085 9.866 2.163 9.879-21.179l.011-18.953 2.948 5.099c1.622 2.805 3.184 5.099 3.472 5.099.289 0 .728.246.977.546.263.317.168.365-.226.115-.976-.621-.84.11.453 2.421.622 1.114 1.338 1.883 1.591 1.711.252-.172.635.003.851.389.246.438.158.542-.233.274-.887-.606-.777.339.224 1.919.469.739 1.062 1.2 1.32 1.023.258-.175.645-.003.861.383.263.471.155.541-.326.211-1.099-.75-.458.68 2.709 6.04 1.547 2.62 3.018 4.764 3.268 4.764s.658.246.907.546c.263.317.168.365-.226.114-.932-.592-.852.3.172 1.916.469.739 1.117 1.162 1.441.94.348-.237.434-.124.209.278-.485.868.643 3.252 1.32 2.79.28-.191.381.02.225.471-.157.45.239 1.342.878 1.981 1.044 1.043 2.015 1.162 9.504 1.162 7.956 0 8.398-.063 9.577-1.366l1.236-1.367.148-37.677c.146-37.457.14-37.688-.99-39.276l-1.137-1.596h-7.831c-7.108 0-7.932.111-8.917 1.199-1.038 1.147-1.086 2-1.086 19.381 0 14.299-.156 18.418-.731 19.287-.571.863-.828.934-1.17.322-.289-.518-.226-.638.189-.355.887.606.776-.339-.225-1.919-.468-.739-1.117-1.162-1.441-.941-.348.238-.433.124-.209-.278.473-.844-.633-3.258-1.288-2.811-.263.18-.654.011-.87-.376-.246-.438-.158-.541.233-.274.87.593.783-.021-.246-1.759-.481-.81-1.075-1.335-1.32-1.168-.245.167-.623-.012-.839-.398-.245-.438-.158-.542.234-.274.893.609.784.12-.512-2.307-.627-1.173-1.343-1.994-1.591-1.824-.249.17-.629-.007-.845-.394-.245-.438-.158-.541.234-.274.869.593.783-.022-.247-1.759-.481-.81-1.074-1.336-1.319-1.168-.246.167-.623-.012-.839-.398-.245-.438-.158-.542.233-.274.888.606.777-.339-.224-1.919-.468-.739-1.117-1.162-1.441-.941-.355.243-.433.123-.196-.301.466-.834-1.74-5.029-2.406-4.574-.252.172-.635-.003-.851-.389-.26-.464-.157-.541.304-.226.464.317.613.198.445-.358-.138-.458-.515-.833-.839-.833-.323 0-.791-.246-1.041-.546-.267-.323-.145-.35.297-.066.512.328.67.216.498-.354-.138-.459-.516-.834-.84-.834-.323 0-.791-.246-1.04-.545-.267-.323-.146-.35.297-.067.512.328.669.216.497-.354-.138-.458-.516-.833-.839-.833-.324 0-.792-.246-1.041-.546-.267-.323-.145-.35.297-.067.515.33.663.22.475-.354-.151-.458-.567-.758-.925-.668-.358.091-.499-.106-.314-.438.441-.789-.712-3.156-1.332-2.733-.262.18-.654.01-.87-.376-.246-.438-.158-.542.233-.274 1 .683.725-.559-.366-1.65-.831-.832-2.326-.992-9.228-.992-4.529 0-8.263.202-8.299.45Zm67.956 1.13c-1.111 1.561-1.125 2.052-1.125 39.038v37.457l1.626 1.797 1.627 1.798 7.817-.194c6.775-.169 7.97-.347 8.958-1.337 1.137-1.139 1.141-1.284 1.141-39.648 0-36.542-.05-38.556-.992-39.499-.835-.834-2.343-.992-9.46-.992h-8.467l-1.125 1.58Zm27.078-.355c-1.096 1.211-1.106 1.647-.95 39.275l.159 38.05 1.236 1.366 1.236 1.366h20.591c19.03 0 20.665-.081 21.562-1.07.82-.902.998-2.359 1.146-9.328.25-11.813.961-11.17-12.477-11.297-5.773-.054-10.801-.122-11.175-.15-.473-.035-.678-1.318-.678-4.25v-4.199h9.154c12.484 0 12.016.423 12.016-10.841 0-11.372.671-10.754-11.671-10.754h-9.499v-7.766l11.172.134c14.093.169 13.255.843 13.255-10.649 0-7.136-.116-8.114-1.126-9.532l-1.124-1.58h-20.86c-20.277 0-20.889.034-21.967 1.225Zm-387.75.491c-.783.957-.89 2.308-.746 9.448l.168 8.331.12-8.514c.112-8.043.185-8.566 1.325-9.448.663-.513.946-.934.626-.934-.318 0-.99.503-1.493 1.117Zm3.603-.686c.825.138 2.047.134 2.714-.008.668-.142-.007-.255-1.5-.251-1.493.005-2.039.121-1.214.259Zm13.298-.006c.675.143 1.653.138 2.171-.012.52-.15-.033-.268-1.227-.261-1.195.006-1.62.129-.944.273Zm14.141-.015c.391.174.86.152 1.04-.047.18-.199-.14-.341-.712-.315-.633.029-.761.171-.328.362Zm7.6 0c.391.174.859.152 1.039-.047.181-.199-.14-.341-.712-.315-.632.029-.76.171-.328.362Zm20.592-.012c.374.166.984.166 1.357 0 .374-.167.068-.303-.678-.303-.747 0-1.052.136-.679.303Zm45.541.704c-.825 1.008-.89 4.339-.759 38.542l.144 37.439.132-37.444c.119-33.873.217-37.549 1.03-38.541.494-.604.776-1.098.627-1.098-.149 0-.678.497-1.174 1.102Zm4.134-.671c.825.138 2.047.134 2.714-.008.668-.142-.007-.255-1.5-.251-1.493.005-2.039.121-1.214.259Zm14.927-.006c.675.143 1.652.138 2.171-.012.519-.15-.034-.268-1.228-.261-1.194.006-1.619.129-.943.273Zm3.827-.015c.391.174.86.152 1.04-.047.18-.199-.14-.341-.712-.315-.632.029-.761.171-.328.362Zm6.514 0c.391.174.86.152 1.04-.047.18-.199-.14-.341-.712-.315-.633.029-.761.171-.328.362Zm30.363.014c.672.143 1.771.143 2.443 0 .672-.143.122-.26-1.221-.26-1.344 0-1.894.117-1.222.26Zm8.422.007c.825.138 2.046.134 2.714-.008.667-.142-.008-.255-1.501-.251-1.492.005-2.039.121-1.213.259Zm34.495-.021c.391.174.86.152 1.04-.047.18-.199-.14-.341-.712-.315-.633.029-.761.171-.328.362Zm4.59.006c.528.153 1.261.142 1.628-.022.368-.164-.064-.289-.96-.277-.896.012-1.196.147-.668.299Zm149.348.934-1.034 1.35 1.357-1.193c.746-.656 1.459-1.264 1.583-1.35.124-.086-.021-.157-.323-.157s-1.014.608-1.583 1.35Zm38.218-.94c.392.174.86.152 1.04-.047.181-.199-.14-.341-.712-.315-.632.029-.761.171-.328.362Zm9.476.006c.528.153 1.261.142 1.628-.022.368-.164-.064-.289-.96-.277-.896.012-1.196.147-.668.299Zm13.865-.006c.392.174.86.152 1.04-.047.181-.199-.14-.341-.712-.315-.632.029-.761.171-.328.362Zm-262.147 1.24c-.675.952-.656.973.205.227.522-.453.95-.926.95-1.05 0-.494-.446-.176-1.155.823Zm39.208-.224c-.434.578-.573 4.757-.463 13.947l.158 13.121.125-13.227c.087-9.325.316-13.439.775-13.947.359-.396.511-.72.338-.72-.172 0-.592.372-.933.826Zm135.12.054c-.363.484-.576 1.15-.474 1.48.103.33.47-.066.815-.88.715-1.687.612-1.869-.341-.6Zm-363.823.16c1.277.127 3.231.125 4.343-.004 1.111-.129.067-.232-2.321-.23-2.389.002-3.298.107-2.022.234Zm82.336.31c-.143.413-.196 17.351-.118 37.642l.141 36.891.271-37.641c.149-20.703.202-37.642.119-37.642-.084 0-.27.338-.413.75Zm-87.1 1.383c-1.343.469-2.76.724-3.149.567-.389-.158-.573-.048-.41.244.361.646-1.224 1.396-1.931.913-.279-.191-.44.011-.358.448.084.45-.278.755-.837.704-.543-.05-.85.059-.686.242.165.182-.695 1.525-1.912 2.984-3.501 4.197-4.497 7.273-4.519 13.96-.015 4.644.205 6.238 1.188 8.614.663 1.603 1.049 3.196.856 3.541-.193.345-.106.46.192.257.3-.204 1.234.424 2.076 1.395.842.972 2.463 2.48 3.602 3.352 1.138.872 1.97 1.765 1.848 1.983-.122.218.187.427.688.464 1.721.129 13.938 6.055 13.808 6.7-.07.355.202.505.605.334.404-.172 1.378.534 2.165 1.567 1.13 1.484 1.43 2.512 1.43 4.892 0 2.611-.24 3.278-1.796 4.999-2.195 2.426-5.592 3.531-9.603 3.123-3.794-.385-7.99-2.165-6.964-2.953.503-.386.374-.447-.425-.201-.786.242-2.063-.327-4.05-1.804l-2.9-2.158-1.02 1.547c-.56.85-1.226 1.406-1.477 1.233-.252-.172-.635.003-.851.39-.245.438-.158.541.233.274.345-.235.627-.184.627.114 0 .66-1.724 2.446-2.352 2.435-.249-.003-.615.194-.814.439-.2.246-.057.252.316.015.374-.237.679-.179.679.131 0 .869-1.405 1.951-1.887 1.452-.238-.244-.144.165.206.91.351.746 1.911 2.471 3.466 3.836 1.556 1.365 2.762 2.732 2.68 3.039-.082.307.07.408.338.225.269-.183 1.986.339 3.817 1.162 7.482 3.359 18.287 3.25 24.719-.249 1.907-1.038 4.388-3.02 5.535-4.424 1.144-1.399 2.25-2.544 2.456-2.544.207 0 .58-.245.829-.545.262-.318.167-.366-.227-.115-.89.566-.863.327.342-3.067 3.22-9.068 1.19-17.889-5.41-23.505-1.317-1.121-2.344-2.237-2.28-2.479.062-.242-.182-.405-.544-.361-1.132.137-10.692-4.547-10.389-5.09.16-.284-.048-.373-.46-.198-1.04.441-3.79-.797-3.383-1.524.198-.353-.045-.433-.599-.199-.628.267-.805.169-.543-.3.243-.433.11-.576-.352-.38-.97.412-2.802-1.833-2.27-2.782.26-.467.181-.576-.22-.302-.938.641-1.74-2.241-1.2-4.318.757-2.918 1.69-4.439 2.51-4.092.421.179.708.006.637-.384-.184-1.01 4.35-2.234 6.927-1.87 3.363.475 5.753 1.442 5.35 2.163-.218.389-.105.47.283.204.355-.241 1.489.11 2.519.782l1.874 1.222 2.002-2.645c1.1-1.456 2.186-2.519 2.412-2.365.227.155.589-.034.805-.421.245-.438.158-.541-.233-.274-1.001.683-.724-.559.367-1.651.546-.547 1.19-.791 1.43-.542.24.248.173-.111-.15-.798-.322-.687-.964-1.595-1.424-2.018-.461-.423-.681-1.049-.489-1.393.208-.371.085-.444-.301-.18-.813.554-2.344-.772-1.87-1.62.199-.355.087-.445-.257-.21-.334.228-1.776-.237-3.206-1.033-4.997-2.782-13.056-3.612-18.068-1.862Zm38.405-.494c1.269.127 3.345.127 4.614 0 1.269-.126.23-.23-2.307-.23-2.538 0-3.576.104-2.307.23Zm8.413-.01c.821.138 2.165.138 2.986 0 .82-.137.15-.249-1.493-.249-1.642 0-2.313.112-1.493.249Zm6.82-.019c.391.173.86.151 1.04-.048.18-.199-.14-.34-.712-.315-.633.029-.761.171-.328.363Zm3.765-.013c.374.167.984.167 1.357 0 .374-.166.068-.302-.678-.302-.747 0-1.052.136-.679.302Zm5.463.013c.391.173.86.151 1.04-.048.18-.199-.14-.34-.712-.315-.633.029-.762.171-.328.363Zm10.313 0c.391.173.86.151 1.04-.048.18-.199-.14-.34-.712-.315-.632.029-.761.171-.328.363Zm2.137-.013c.374.167.984.167 1.357 0 .374-.166.068-.302-.678-.302-.747 0-1.052.136-.679.302Zm19.813.032c.821.138 2.165.138 2.985 0 .821-.137.15-.249-1.492-.249s-2.314.112-1.493.249Zm6.242-.032c.374.167.984.167 1.357 0 .374-.166.068-.302-.678-.302-.747 0-1.052.136-.679.302Zm4.92.013c.391.173.86.151 1.04-.048.18-.199-.14-.34-.712-.315-.633.029-.761.171-.328.363Zm11.908-.013c.373.167.984.167 1.357 0 .373-.166.067-.302-.679-.302s-1.051.136-.678.302Zm4.919.013c.391.173.86.151 1.04-.048.18-.199-.14-.34-.712-.315-.632.029-.761.171-.328.363Zm26.598 0c.391.173.86.151 1.04-.048.18-.199-.14-.34-.712-.315-.633.029-.761.171-.328.363Zm4.342 0c.392.173.86.151 1.041-.048.18-.199-.141-.34-.713-.315-.632.029-.761.171-.328.363Zm7.029.014c.676.143 1.653.138 2.172-.012.519-.15-.034-.267-1.228-.261-1.194.007-1.619.13-.944.273Zm37.448.01c.971.133 2.558.133 3.528 0 .971-.133.177-.242-1.764-.242-1.94 0-2.734.109-1.764.242Zm7.057-.037c.373.167.984.167 1.357 0 .373-.166.068-.302-.679-.302-.746 0-1.051.136-.678.302Zm36.368 0c.374.167.984.167 1.357 0 .374-.166.068-.302-.678-.302-.747 0-1.052.136-.679.302Zm3.257.026c.672.143 1.771.143 2.443 0 .671-.143.122-.26-1.221-.26-1.344 0-1.893.117-1.222.26Zm41.797 0c.671.143 1.771.143 2.443 0 .671-.143.122-.26-1.222-.26-1.343 0-1.893.117-1.221.26Zm140.86-.01c.523.151 1.378.151 1.9 0 .522-.15.095-.274-.95-.274s-1.472.124-.95.274Zm3.563-.003c.391.173.86.151 1.04-.048.18-.199-.14-.34-.712-.315-.633.029-.761.171-.328.363Zm12.993-.013c.374.167.984.167 1.357 0 .374-.166.068-.302-.678-.302-.747 0-1.052.136-.679.302Zm4.886.026c.671.143 1.771.143 2.442 0 .672-.143.122-.26-1.221-.26-1.344 0-1.893.117-1.221.26Zm4.624-.007c.528.152 1.261.142 1.628-.023.368-.164-.064-.288-.96-.276-.896.012-1.196.146-.668.299Zm-418.114 7.382v6.599h7.22c4.891 0 7.43.232 7.87.72.49.539.652 7.958.652 29.693v28.974h12.756l.16-29.225c.12-22.003.32-29.337.813-29.684.36-.253 3.77-.464 7.576-.469l6.921-.009v-13.197H63.538v6.598Zm53.451 29.094c0 19.795.069 27.807.152 17.803.084-10.004.083-26.201 0-35.992-.084-9.792-.152-1.607-.152 18.189Zm.831.6v36.292l19.134.001 19.134.001-.17-6.3-.171-6.3h-24.3l-.164-8.43c-.093-4.791.058-8.675.352-8.998.287-.317 5.024-.568 10.72-.568h10.205V135.571l-10.178-.071c-5.597-.039-10.36-.039-10.585 0-.224.039-.407-3.568-.407-8.016v-8.086l12.059-.162 12.06-.161.018-6.448.018-6.448-18.862-.001H117.82v36.292Zm49.651 0c0 20.125.069 28.271.152 18.102.083-10.169.083-26.635 0-36.591-.084-9.957-.152-1.637-.152 18.489Zm.831-.042v36.334H181.329V167c0-10.383.099-11.72.843-11.404.463.196.704.11.536-.191-.177-.316 2.845-.631 7.164-.746 7.808-.206 7.216-.054 15.294-3.927.536-.257.634-.128.324.427-.305.544-.236.651.218.341.365-.249.527-.603.361-.786-.167-.184.81-1.649 2.17-3.255 1.36-1.607 3.251-4.737 4.202-6.955 1.639-3.826 1.727-4.388 1.699-10.932-.025-5.78-.223-7.369-1.223-9.801-.657-1.598-1.052-3.156-.88-3.465.172-.308.107-.486-.146-.395-.588.21-4.588-4.645-4.189-5.085.163-.181-.001-.533-.365-.782-.448-.306-.523-.202-.232.318.236.424.213.654-.052.511-.266-.142-2.193-1.189-4.283-2.326l-3.799-2.066-15.335-.194-15.334-.193v36.334Zm56.452.042v36.292h6.65l6.649.001-.158-13.348c-.088-7.341-.02-13.96.149-14.708l.306-1.361 12.608.161 12.608.161.145 14.547.146 14.547h13.008v-72.584h-13.008l-.146 14.546-.145 14.547H238.053l-.145-14.547-.146-14.546h-13.008v36.292Zm38.123-34.493c0 1.155.112 1.628.248 1.05.137-.578.137-1.522 0-2.099-.136-.578-.248-.105-.248 1.049Zm46.949-1.366c-.128.257-1.772 5.545-3.652 11.752-2.347 7.746-3.575 11.039-3.915 10.498-.335-.533-.387-.36-.161.532.338 1.329-.873 5.562-10.004 34.957-2.405 7.746-4.373 14.157-4.373 14.247 0 .091 2.992.162 6.649.157l6.65-.007 1.928-6.741 1.929-6.741 11.604-.162c6.382-.09 11.822.079 12.091.376.268.296 1.403 3.339 2.522 6.76l2.034 6.223 6.88.168c3.784.092 6.88.042 6.88-.111 0-.154-.271-1.039-.603-1.968-.331-.929-2.627-8.167-5.103-16.085-2.475-7.919-5.4-17.232-6.499-20.696a7920.259 7920.259 0 0 1-4.922-15.596 2995.909 2995.909 0 0 0-4.272-13.497l-1.35-4.199-7.039-.167c-3.872-.093-7.145.042-7.274.3Zm46.29 35.859v36.292h11.929l.142-23.795c.119-19.837.269-23.842.907-24.077.524-.193.659.025.426.693-.193.557-.084.913.253.832.325-.079.715.232.866.69.183.559.044.677-.424.358-.46-.315-.563-.239-.304.226.216.386.595.564.843.394.247-.169 1.207.998 2.133 2.592 1.779 3.064 2.089 4.042 1.057 3.338-.391-.267-.478-.164-.233.274.216.387.593.565.839.398.245-.167.838.358 1.319 1.169 1.03 1.737 1.116 2.352.247 1.758-.392-.267-.479-.164-.234.274.216.387.599.561.852.389.252-.172.968.598 1.591 1.711 1.27 2.271 1.434 3.059.505 2.425-.392-.267-.479-.164-.234.274.216.387.608.556.871.376.619-.423 1.773 1.945 1.331 2.734-.185.331-.058.528.283.437.341-.09 2.741 3.511 5.333 8.003a9309.49 9309.49 0 0 0 7.699 13.317l2.985 5.151 6.921.029 6.921.03v-72.584h-11.942v24.894c0 15.805-.194 24.895-.53 24.895-.847 0-2.318-2.876-1.876-3.666.24-.428.173-.562-.165-.331-.732.499-2.479-2.421-1.982-3.312.22-.391.136-.509-.199-.281-.328.224-1.534-1.279-2.798-3.492-2.327-4.071-2.632-4.866-1.594-4.158.392.268.479.164.234-.274-.216-.386-.595-.564-.843-.395-.247.169-1.208-.997-2.134-2.592-1.778-3.063-2.088-4.042-1.056-3.338.391.268.478.165.233-.274-.216-.386-.595-.564-.842-.394-.674.459-3.973-5.525-3.507-6.358.237-.423.169-.556-.167-.327-.761.519-5.242-7.135-4.722-8.065.246-.44.173-.564-.186-.318-.324.222-.973-.201-1.442-.94-1.001-1.58-1.111-2.525-.224-1.919.392.267.479.164.234-.275-.216-.386-.593-.565-.836-.399-.245.167-1.632-1.715-3.084-4.181l-2.64-4.485-6.378-.008-6.378-.007v36.292Zm42.041-14.997c0 11.877.073 16.821.161 10.986.089-5.834.089-15.552.001-21.595-.089-6.042-.161-1.268-.162 10.609Zm26.649-20.739c-.42.75-.387 68.714.033 70.566.328 1.447.399 1.462 6.786 1.462h6.456v-72.584h-6.482c-3.565 0-6.622.25-6.793.556Zm16.032.393c.026.699.154.841.327.363.157-.433.138-.951-.042-1.15-.181-.199-.309.155-.285.787Zm11.356 35.343v36.292h37.997v-12.575l-12.349-.161-12.349-.162-.151-8.548c-.083-4.701.04-8.564.272-8.584.232-.02 5.063-.151 10.735-.291l10.314-.255.154-6.018c.116-4.489-.022-6.085-.543-6.282-.383-.145-5.216-.351-10.739-.458l-10.042-.193V119.675l12.349-.162 12.349-.161v-13.174h-37.997v36.292Zm38.732-31.193c-.001 2.969.09 4.259.204 2.867.114-1.392.116-3.822.003-5.399-.112-1.577-.205-.438-.207 2.532Zm-94.945 12.897c0 9.733.075 13.714.166 8.848.091-4.867.091-12.83 0-17.696-.091-4.867-.166-.885-.166 8.848Zm15.755 15.896c0 18.476.069 26.121.153 16.989a2225.8 2225.8 0 0 0 0-33.593c-.084-9.344-.153-1.872-.153 16.604Zm29.102-28.744c.026.699.154.841.327.363.157-.433.138-.951-.042-1.15-.181-.199-.309.155-.285.787Zm-284.352 2.05c0 1.155.111 1.628.248 1.05.136-.578.136-1.522 0-2.1-.137-.577-.248-.105-.248 1.05Zm106.483 6.899c0 4.948.084 6.893.186 4.321s.102-6.621-.001-8.998c-.103-2.377-.186-.272-.185 4.677Zm150.728-7.149c.026.699.155.841.328.363.157-.433.137-.951-.043-1.15-.18-.199-.309.155-.285.787Zm.139 7.448c0 2.475.096 3.488.213 2.25.117-1.237.117-3.261 0-4.499-.117-1.237-.213-.225-.213 2.249Zm27.044-2.999c0 .825.124 1.163.274.75.151-.412.151-1.087 0-1.5-.15-.412-.274-.075-.274.75Zm-402.955 2.209c.39.174.86.152 1.04-.047.18-.199-.14-.341-.713-.315-.632.029-.76.171-.327.362Zm143.645.362c-.147.424-.201 5.485-.119 11.247l.15 10.477 2.912.546c4.043.757 9.869-.308 12.599-2.305 1.171-.857 2.13-1.84 2.13-2.184 0-.345-.282-.434-.627-.199-.391.267-.479.164-.233-.274.216-.387.62-.547.899-.357.851.581 1.59-2.588 1.59-6.823 0-4.166-1.215-7.86-2.763-8.406-.544-.191-.491.074.184.916.522.651.95 1.426.95 1.72 0 .295-.425-.131-.945-.946-.521-.816-.884-1.699-.807-1.961.077-.262-.711-.869-1.751-1.349-2.508-1.159-13.774-1.24-14.169-.102Zm-43.802.277c3.359.105 8.855.105 12.214 0 3.359-.106.61-.192-6.107-.192-6.717 0-9.465.086-6.107.192Zm46.954-.007c1.418.123 3.738.123 5.157 0 1.418-.124.257-.225-2.579-.225-2.836 0-3.997.101-2.578.225Zm281.278.345c-.151.433-.202 3.875-.116 7.648l.158 6.862.268-7.649c.148-4.207.199-7.649.116-7.649-.084.001-.276.356-.426.788Zm6.986-.338c3.226.106 8.355.105 11.399-.001 3.044-.107.405-.194-5.865-.194-6.269.001-8.76.089-5.534.195Zm-404.664.561c.392.174.86.152 1.04-.047.18-.199-.14-.341-.712-.315-.632.029-.761.171-.328.362Zm24.766 15.187c0 8.743.076 12.32.168 7.948.093-4.372.093-11.525 0-15.896-.092-4.371-.168-.795-.168 7.948ZM34.372 121.59c.529.152 1.261.142 1.629-.022.367-.165-.065-.289-.96-.277-.896.012-1.197.147-.669.299Zm75.236.634c-.675.952-.656.973.205.227.523-.453.95-.926.95-1.05 0-.494-.445-.176-1.155.823Zm112.058 2.25c.002 1.979.104 2.716.225 1.638.121-1.078.118-2.697-.005-3.599-.125-.901-.223-.019-.22 1.961Zm-193.704-2.06c-.197.352-.242.769-.1.926.143.157.404-.131.58-.64.368-1.057.055-1.243-.48-.286Zm412.876.31c.026.699.154.841.327.363.157-.433.138-.951-.042-1.15-.181-.199-.309.155-.285.787Zm-428.281 1.2c.026.698.154.841.327.362.157-.433.138-.95-.042-1.149-.18-.2-.309.154-.285.787Zm53.851-.506c1.727.119 4.414.118 5.971-.003 1.556-.12.143-.218-3.141-.217-3.284.001-4.558.1-2.83.22Zm32.842 0c1.877.118 4.808.117 6.513-.001 1.705-.119.169-.215-3.413-.214-3.583.001-4.978.098-3.1.215Zm87.1-.046c-.492.219-.678 2.362-.678 7.798v7.496l3.664-.412c6.286-.708 7.713-2.181 7.727-7.978.007-2.738-.219-3.446-1.579-4.949-1.33-1.469-2.025-1.753-4.298-1.753-1.491 0-3.037-.114-3.434-.253-.398-.138-1.028-.116-1.402.051Zm-175.84 3.501c.004 1.98.105 2.717.226 1.639.12-1.078.118-2.698-.005-3.599-.125-.902-.223-.019-.22 1.96Zm123.094-1.75c.026.699.155.841.328.363.157-.433.138-.951-.043-1.15-.18-.199-.308.155-.285.787Zm307.234 0c.026.699.154.841.327.363.157-.433.138-.951-.042-1.15-.181-.199-.309.155-.285.787Zm-392.568.7c-.675.952-.656.973.205.227.905-.784 1.192-1.276.745-1.276-.112 0-.54.472-.95 1.049Zm365.539 2.25c.005 1.649.11 2.253.235 1.341.124-.912.121-2.261-.008-2.999s-.231.008-.227 1.658Zm-196.506.3c0 1.484.105 2.092.235 1.349.129-.742.129-1.956 0-2.699-.13-.743-.235-.135-.235 1.35Zm95.076 10.2c-3.102 10.201-3.702 12.749-3.125 13.279.791.725 14.647.5 15.74-.255.473-.327.423-1.083-.2-2.983-.458-1.4-1.317-4.03-1.908-5.844-2.207-6.767-2.188-6.725-2.694-5.889-.314.519-.385.277-.206-.71.363-1.997-1.958-9.844-2.974-10.056-.584-.122-1.807 3.168-4.633 12.458Zm4.111-11.435c0 .31.242.729.537.931.307.21.398-.031.213-.565-.361-1.039-.75-1.229-.75-.366Zm-94.95 2.184c.026.699.155.841.328.363.157-.433.138-.951-.043-1.15-.18-.199-.308.155-.285.787Zm.094 3.55c.006 1.319.118 1.789.247 1.042.13-.746.125-1.826-.011-2.399-.135-.574-.242.037-.236 1.357Zm41.16-1.15c.026.699.155.841.328.363.157-.433.138-.951-.043-1.15-.18-.199-.308.155-.285.787Zm175.977 1.45c0 1.484.106 2.092.236 1.349.129-.742.129-1.956 0-2.699-.13-.743-.236-.135-.236 1.35Zm-221.53-.6c0 .825.123 1.162.273.75.151-.412.151-1.087 0-1.5-.15-.412-.273-.075-.273.75Zm196.55.9c.006 1.319.117 1.788.247 1.042.129-.746.125-1.826-.011-2.399-.136-.574-.242.037-.236 1.357Zm75.162-.261c.424.601.723 3.84.831 8.998l.17 8.059.119-8.175c.103-7.169.001-8.276-.832-8.998-.837-.725-.871-.711-.288.116Zm-238.144 1.16-12.213.335 12.349.133c7.951.085 12.349-.081 12.349-.468 0-.33-.061-.54-.135-.467-.075.073-5.632.283-12.35.467Zm-95.357 3.9c.003 2.309.101 3.18.218 1.936.118-1.245.116-3.134-.004-4.199-.12-1.066-.216-.047-.214 2.263Zm61.203-1.75c.026.699.155.841.328.363.157-.433.137-.951-.043-1.15-.18-.199-.308.154-.285.787Zm5.005 2.049c0 1.815.102 2.557.226 1.65.124-.907.124-2.392 0-3.299s-.226-.165-.226 1.649Zm192.142 0c0 1.485.105 2.093.235 1.35.129-.742.129-1.957 0-2.699-.13-.743-.235-.135-.235 1.349Zm24.927-.899c.011.989.133 1.322.271.738.137-.584.128-1.393-.02-1.799-.149-.407-.262.071-.251 1.061Zm48.951 4.799c.001 3.629.09 5.036.198 3.127.108-1.909.107-4.878-.002-6.599-.109-1.72-.197-.158-.196 3.472Zm-171.986-3.856c.191.915-.133 2.866-.798 4.799-.616 1.79-1.119 3.458-1.119 3.706-.001.247 1.491.449 3.314.449 2.934 0 3.273-.12 2.95-1.049-.201-.577-.859-2.735-1.462-4.795-1.037-3.548-2.079-5.354-2.097-3.639-.007.574-.157.543-.56-.114-.415-.679-.471-.522-.228.643Zm39.579 20.952c0 10.722.073 15.109.163 9.748.09-5.361.09-14.134 0-19.496-.09-5.361-.163-.975-.163 9.748ZM155.36 143.969c0 .825.123 1.163.273.75.151-.412.151-1.087 0-1.5-.15-.412-.273-.075-.273.75Zm258.495 4.799c0 3.464.089 4.881.199 3.149.11-1.731.11-4.566 0-6.298-.11-1.732-.199-.315-.199 3.149Zm27.118-1.499c.002 2.309.1 3.18.218 1.936.117-1.245.116-3.134-.004-4.199-.12-1.066-.216-.047-.214 2.263Zm-70.046-.6c.004 1.649.109 2.253.234 1.341.125-.912.121-2.262-.007-2.999-.129-.738-.231.008-.227 1.658Zm-217.698.3c0 1.154.112 1.626.248 1.049.137-.577.137-1.522 0-2.099-.136-.577-.248-.105-.248 1.05Zm2.088 1.549c.026.699.155.841.328.363.157-.433.137-.951-.043-1.15-.18-.199-.308.155-.285.787Zm-23.248 1.263c.522.152 1.377.152 1.9 0 .522-.15.095-.274-.95-.274s-1.472.124-.95.274Zm4.077.011c.676.144 1.653.138 2.172-.012.519-.15-.034-.267-1.228-.261-1.194.007-1.619.13-.944.273Zm9.21.009c.963.133 2.673.135 3.799.005s.338-.238-1.752-.241c-2.09-.003-3.011.104-2.047.236Zm252.461 1.994c-.115 1.335-.058 2.698.127 3.029.185.331.381-.761.434-2.427.116-3.62-.265-4.03-.561-.602Zm68.065 5.521.118 7.949.17-7.622.169-7.621 3.648-.209 3.648-.21-3.935-.117-3.936-.118.118 7.948Zm14.674-7.535c.522.152 1.378.152 1.9 0 .522-.15.095-.274-.95-.274s-1.472.124-.95.274Zm3.562-.003c.392.173.86.152 1.04-.048.181-.199-.14-.34-.712-.315-.632.029-.761.171-.328.363Zm-239.687.635c2.015.115 5.313.115 7.328 0 2.015-.116.367-.21-3.664-.21-4.03 0-5.679.094-3.664.21Zm12.791-.035c.391.173.86.151 1.04-.048.18-.199-.14-.34-.712-.315-.633.029-.761.171-.328.363Zm3.484.026 2.026.235.156 14.211.155 14.211.126-14.546.125-14.547-2.307.101-2.307.1 2.026.235Zm110.108.514c.027.698.155.841.328.362.157-.433.138-.95-.043-1.15-.18-.199-.308.155-.285.788Zm67.946 1.749c.006 1.32.117 1.789.247 1.043s.125-1.826-.011-2.4c-.135-.573-.242.038-.236 1.357Zm-125.662-1.076c.671.143 1.771.143 2.442 0 .672-.143.122-.26-1.221-.26-1.344 0-1.893.117-1.221.26Zm-174 .623c2.597.11 6.994.11 9.77.001 2.777-.109.652-.199-4.722-.2-5.373 0-7.645.089-5.048.199Zm333.044-.003c1.866.118 4.92.118 6.785 0 1.867-.117.34-.213-3.392-.213-3.732 0-5.258.096-3.393.213Zm11.671-.014c.821.137 2.164.137 2.985 0 .822-.137.15-.25-1.492-.25-1.643 0-2.315.113-1.493.25ZM93.081 164.965c0 7.093.078 9.995.174 6.448.096-3.547.096-9.35 0-12.897-.096-3.547-.174-.645-.174 6.449Zm153.25-12.151c2.464.111 6.493.111 8.957 0 2.463-.111.448-.202-4.479-.202-4.926 0-6.941.091-4.478.202Zm124.526.753c0 .825.124 1.163.274.75.151-.412.151-1.087 0-1.5-.15-.412-.274-.075-.274.75Zm-110.045 13.797c0 7.423.078 10.461.174 6.749a319.63 319.63 0 0 0 0-13.497c-.096-3.712-.174-.675-.174 6.748Zm180.068-11.997c0 .825.124 1.162.274.75.151-.413.151-1.087 0-1.5-.15-.412-.274-.075-.274.75Zm-254.258.423c.672.143 1.77.143 2.442 0 .672-.143.122-.26-1.221-.26s-1.893.117-1.221.26Zm5.156.006c.821.138 2.165.138 2.986 0 .821-.137.149-.249-1.493-.249-1.642 0-2.313.112-1.493.249Zm29.845 1.97c0 1.155.112 1.627.248 1.05.137-.577.137-1.522 0-2.1-.136-.577-.248-.105-.248 1.05Zm-28.488.397c.374.167.985.167 1.357 0 .374-.166.068-.302-.678-.302s-1.051.136-.679.302Zm220.701 5.602c0 2.474.096 3.487.213 2.249.117-1.237.117-3.261 0-4.499-.117-1.237-.213-.225-.213 2.25Zm27.085-2.4c0 1.155.111 1.627.248 1.05.136-.577.136-1.522 0-2.099-.137-.577-.248-.105-.248 1.049Zm50.355 1.427c0 .124.428.597.95 1.05.861.745.88.724.206-.227-.71-.999-1.156-1.317-1.156-.823Zm-459.9 1.37c.374.167.985.167 1.358 0 .373-.166.067-.302-.679-.302s-1.051.136-.678.302Zm313.93-.097c.056 1.136.961 3.05.992 2.099.017-.495-.207-1.304-.496-1.799-.289-.495-.513-.63-.496-.3Zm25.551 1.499c0 .825.124 1.163.274.75.151-.412.151-1.087 0-1.499-.15-.412-.274-.075-.274.749Zm122.091.35c.026.699.154.841.328.363.157-.433.137-.951-.043-1.15-.18-.199-.309.155-.285.787Zm-271.365.85c0 .825.123 1.163.274.75.151-.412.151-1.087 0-1.5-.151-.412-.274-.075-.274.75Zm-189.657-.176c.675.144 1.652.138 2.171-.012.52-.15-.034-.267-1.228-.26-1.194.006-1.618.129-.943.272Zm296.269.352c.204.591.508.924.675.74.167-.185.001-.669-.371-1.076-.536-.588-.598-.519-.304.336Zm162.74 5.823c0 3.464.089 4.881.199 3.149.109-1.732.109-4.567 0-6.298-.11-1.732-.199-.315-.199 3.149Zm2.168.3c.002 3.299.093 4.572.203 2.829.11-1.743.109-4.442-.003-5.999-.111-1.556-.201-.129-.2 3.17Zm-79.263 0c.002 2.639.097 3.645.212 2.234.115-1.411.113-3.571-.003-4.799-.117-1.229-.211-.075-.209 2.565Zm-256.895-2.95c.026.699.155.841.328.363.157-.433.138-.951-.043-1.15-.18-.199-.308.155-.285.787Zm64.595 0c.026.699.155.841.328.363.157-.433.138-.951-.043-1.15-.18-.199-.308.155-.285.787Zm-64.532 2.95c.011.99.133 1.322.271.738.138-.583.128-1.393-.02-1.799-.149-.406-.261.071-.251 1.061Zm64.575 2.099c0 .825.123 1.163.274.75.151-.412.151-1.087 0-1.5-.151-.412-.274-.074-.274.75Zm124.779-.3c0 .33.236 1.005.526 1.5.289.495.526.63.526.3s-.237-1.005-.526-1.5c-.29-.495-.526-.63-.526-.3Zm-189.334 2.1c0 1.155.112 1.627.249 1.05.136-.577.136-1.523 0-2.1-.137-.577-.249-.105-.249 1.05Zm256.669 2.749c.026.699.155.841.328.363.157-.433.137-.951-.043-1.15-.18-.199-.309.155-.285.787Zm35.24-.085c0 .476.221 1.015.492 1.2.271.186.364-.204.208-.864-.332-1.401-.7-1.578-.7-.336Zm-418.115 1.368c.963.133 2.673.135 3.8.005 1.125-.13.337-.238-1.753-.241-2.09-.003-3.011.104-2.047.236Zm338.794.617c-.674.951-.655.972.206.227.904-.784 1.191-1.277.744-1.277-.112 0-.54.473-.95 1.05Zm122.134 0c-.675.951-.656.972.205.227.904-.784 1.191-1.277.745-1.277-.113 0-.54.473-.95 1.05ZM35.21 183.37c.392.174.86.152 1.04-.047.18-.199-.14-.341-.712-.315-.632.029-.76.171-.327.362Z"/>
  </g>
  <defs>
    <filter id="vector__a" width="500" height="190" x="0" y="0" color-interpolation-filters="sRGB" filterUnits="userSpaceOnUse">
      <feFlood flood-opacity="0" result="BackgroundImageFix"/>
      <feColorMatrix in="SourceAlpha" result="hardAlpha" values="0 0 0 0 0 0 0 0 0 0 0 0 0 0 0 0 0 0 127 0"/>
      <feOffset/>
      <feGaussianBlur stdDeviation="2.5"/>
      <feComposite in2="hardAlpha" operator="out"/>
      <feColorMatrix values="0 0 0 0 0.701961 0 0 0 0 0.466667 0 0 0 0 1 0 0 0 0.25 0"/>
      <feBlend in2="BackgroundImageFix" result="effect1_dropShadow_2109_3"/>
      <feBlend in="SourceGraphic" in2="effect1_dropShadow_2109_3" result="shape"/>
    </filter>
  </defs>
</svg>
