<svg width="312" height="132" viewBox="0 0 312 132" fill="none" xmlns="http://www.w3.org/2000/svg">
<g filter="url(#filter0_d_21_3756)">
<path d="M28.5312 66.5137L27.6431 66.9733L28.6015 68.825L29.4456 66.9185L28.5312 66.5137ZM18.9307 47.9639L19.8188 47.5042L19.5391 46.9639H18.9307V47.9639ZM6.10156 47.9639V46.9639H5.10156V47.9639H6.10156ZM6.10156 89H5.10156V90H6.10156V89ZM17.5146 89V90H18.5146V89H17.5146ZM17.5146 70.9883L18.3655 70.4629L16.5146 67.4654V70.9883H17.5146ZM28.5312 88.8301L27.6804 89.3555L28.5302 90.7317L29.3815 89.3564L28.5312 88.8301ZM39.5762 70.9883H40.5762V67.473L38.7259 70.4619L39.5762 70.9883ZM39.5762 89H38.5762V90H39.5762V89ZM50.9893 89V90H51.9893V89H50.9893ZM50.9893 47.9639H51.9893V46.9639H50.9893V47.9639ZM36.7441 47.9639V46.9639H36.0933L35.8298 47.559L36.7441 47.9639ZM29.4194 66.054L19.8188 47.5042L18.0426 48.4235L27.6431 66.9733L29.4194 66.054ZM18.9307 46.9639H6.10156V48.9639H18.9307V46.9639ZM5.10156 47.9639V89H7.10156V47.9639H5.10156ZM6.10156 90H17.5146V88H6.10156V90ZM18.5146 89V70.9883H16.5146V89H18.5146ZM16.6638 71.5137L27.6804 89.3555L29.3821 88.3047L18.3655 70.4629L16.6638 71.5137ZM29.3815 89.3564L40.4264 71.5146L38.7259 70.4619L27.681 88.3037L29.3815 89.3564ZM38.5762 70.9883V89H40.5762V70.9883H38.5762ZM39.5762 90H50.9893V88H39.5762V90ZM51.9893 89V47.9639H49.9893V89H51.9893ZM50.9893 46.9639H36.7441V48.9639H50.9893V46.9639ZM35.8298 47.559L27.6169 66.1088L29.4456 66.9185L37.6585 48.3687L35.8298 47.559ZM74.127 62.0107L73.269 62.5245L74.1255 63.9549L74.9841 62.5257L74.127 62.0107ZM65.7158 47.9639L66.5738 47.4501L66.2826 46.9639H65.7158V47.9639ZM52.4336 47.9639V46.9639H50.6677L51.576 48.4782L52.4336 47.9639ZM67.5 73.084L68.3616 72.5763L68.3576 72.5696L67.5 73.084ZM68.4346 74.6699H69.4346V74.3972L69.2961 74.1622L68.4346 74.6699ZM68.4346 89H67.4346V90H68.4346V89ZM79.8477 89V90H80.8477V89H79.8477ZM79.8477 74.6699L78.9861 74.1622L78.8477 74.3972V74.6699H79.8477ZM80.7822 73.084L79.9246 72.5696L79.9207 72.5763L80.7822 73.084ZM95.8486 47.9639L96.7062 48.4782L97.6145 46.9639H95.8486V47.9639ZM82.5664 47.9639V46.9639H82.0006L81.7092 47.4489L82.5664 47.9639ZM74.9849 61.497L66.5738 47.4501L64.8579 48.4776L73.269 62.5245L74.9849 61.497ZM65.7158 46.9639H52.4336V48.9639H65.7158V46.9639ZM51.576 48.4782L66.6424 73.5983L68.3576 72.5696L53.2912 47.4495L51.576 48.4782ZM66.6385 73.5917L67.573 75.1776L69.2961 74.1622L68.3615 72.5763L66.6385 73.5917ZM67.4346 74.6699V89H69.4346V74.6699H67.4346ZM68.4346 90H79.8477V88H68.4346V90ZM80.8477 89V74.6699H78.8477V89H80.8477ZM80.7092 75.1776L81.6438 73.5917L79.9207 72.5763L78.9861 74.1622L80.7092 75.1776ZM81.6398 73.5983L96.7062 48.4782L94.9911 47.4495L79.9247 72.5696L81.6398 73.5983ZM95.8486 46.9639H82.5664V48.9639H95.8486V46.9639ZM81.7092 47.4489L73.2698 61.4957L74.9841 62.5257L83.4236 48.4789L81.7092 47.4489ZM137.621 59.3486V60.3486H138.621V59.3486H137.621ZM137.621 47.9639H138.621V46.9639H137.621V47.9639ZM110.717 51.0225L109.986 50.3394L109.986 50.3397L110.717 51.0225ZM109.697 63.7949L108.924 64.4292L108.949 64.4591L108.975 64.4871L109.697 63.7949ZM122.923 77.5869V78.5869H125.267L123.645 76.8948L122.923 77.5869ZM105.109 77.5869V76.5869H104.109V77.5869H105.109ZM105.109 89H104.109V90H105.109V89ZM133.062 85.9414L133.789 86.628L133.792 86.6244L133.062 85.9414ZM134.138 73.1973L134.966 72.6364L134.918 72.5659L134.859 72.5045L134.138 73.1973ZM120.855 59.3486V58.3486H118.72L120.087 59.9888L120.855 59.3486ZM138.621 59.3486V47.9639H136.621V59.3486H138.621ZM137.621 46.9639H117.599V48.9639H137.621V46.9639ZM117.599 46.9639C114.628 46.9639 112.074 48.1076 109.986 50.3394L111.447 51.7055C113.174 49.8592 115.207 48.9639 117.599 48.9639V46.9639ZM109.986 50.3397C107.924 52.5458 106.885 55.188 106.885 58.2158H108.885C108.885 55.6929 109.733 53.5395 111.447 51.7053L109.986 50.3397ZM106.885 58.2158C106.885 60.6505 107.544 62.7469 108.924 64.4292L110.47 63.1606C109.434 61.8977 108.885 60.2747 108.885 58.2158H106.885ZM108.975 64.4871L122.201 78.279L123.645 76.8948L110.419 63.1028L108.975 64.4871ZM122.923 76.5869H105.109V78.5869H122.923V76.5869ZM104.109 77.5869V89H106.109V77.5869H104.109ZM105.109 90H126.18V88H105.109V90ZM126.18 90C129.133 90 131.685 88.8551 133.789 86.628L132.335 85.2548C130.586 87.1058 128.551 88 126.18 88V90ZM133.792 86.6244C135.87 84.4028 136.922 81.7618 136.922 78.748H134.922C134.922 81.2473 134.067 83.4019 132.331 85.2584L133.792 86.6244ZM136.922 78.748C136.922 76.5853 136.257 74.5421 134.966 72.6364L133.31 73.7581C134.398 75.3641 134.922 77.0215 134.922 78.748H136.922ZM134.859 72.5045C130.479 67.945 127.182 64.5114 124.969 62.2036C123.862 61.0496 123.026 60.1774 122.462 59.5868C121.87 58.9683 121.618 58.7019 121.624 58.7084L120.087 59.9888C120.14 60.052 120.477 60.4051 121.016 60.969C121.582 61.5607 122.418 62.4338 123.525 63.5879C125.739 65.8964 129.036 69.3304 133.417 73.89L134.859 72.5045ZM120.855 60.3486H137.621V58.3486H120.855V60.3486ZM160.561 47.9639V46.9639H160.055L159.755 47.3707L160.561 47.9639ZM148.751 63.9932H147.751V67.0364L149.556 64.5863L148.751 63.9932ZM148.751 47.9639H149.751V46.9639H148.751V47.9639ZM137.338 47.9639V46.9639H136.338V47.9639H137.338ZM137.338 89H136.338V90H137.338V89ZM148.751 89V90H149.751V89H148.751ZM148.751 78.5498L149.504 77.8923L147.751 75.8829V78.5498H148.751ZM157.87 89L157.117 89.6575L157.416 90H157.87V89ZM187.691 89V90H188.691V89H187.691ZM187.691 77.5869H188.691V76.5869H187.691V77.5869ZM163.393 77.5869L162.636 78.2404L162.935 78.5869H163.393V77.5869ZM157.842 71.1582L157.043 70.5565L156.558 71.201L157.085 71.8117L157.842 71.1582ZM175.315 47.9639L176.114 48.5656L177.321 46.9639H175.315V47.9639ZM159.755 47.3707L147.946 63.4L149.556 64.5863L161.366 48.557L159.755 47.3707ZM149.751 63.9932V47.9639H147.751V63.9932H149.751ZM148.751 46.9639H137.338V48.9639H148.751V46.9639ZM136.338 47.9639V89H138.338V47.9639H136.338ZM137.338 90H148.751V88H137.338V90ZM149.751 89V78.5498H147.751V89H149.751ZM147.998 79.2073L157.117 89.6575L158.624 88.3425L149.504 77.8923L147.998 79.2073ZM157.87 90H187.691V88H157.87V90ZM188.691 89V77.5869H186.691V89H188.691ZM187.691 76.5869H163.393V78.5869H187.691V76.5869ZM164.149 76.9334L158.599 70.5047L157.085 71.8117L162.636 78.2404L164.149 76.9334ZM158.641 71.7599L176.114 48.5656L174.517 47.3622L157.043 70.5565L158.641 71.7599ZM175.315 46.9639H160.561V48.9639H175.315V46.9639ZM176.76 89H175.76V90H176.76V89ZM188.173 89V90H189.173V89H188.173ZM188.173 47.9639H189.173V46.9639H188.173V47.9639ZM176.76 47.9639V46.9639H175.76V47.9639H176.76ZM176.76 90H188.173V88H176.76V90ZM189.173 89V47.9639H187.173V89H189.173ZM188.173 46.9639H176.76V48.9639H188.173V46.9639ZM175.76 47.9639V89H177.76V47.9639H175.76ZM201.03 47.9639H202.03V46.9639H201.03V47.9639ZM189.617 47.9639V46.9639H188.617V47.9639H189.617ZM189.617 89H188.617V90H189.617V89ZM220.77 89V90H221.77V89H220.77ZM220.77 77.5869H221.77V76.5869H220.77V77.5869ZM201.03 77.5869H200.03V78.5869H201.03V77.5869ZM201.03 46.9639H189.617V48.9639H201.03V46.9639ZM188.617 47.9639V89H190.617V47.9639H188.617ZM189.617 90H220.77V88H189.617V90ZM221.77 89V77.5869H219.77V89H221.77ZM220.77 76.5869H201.03V78.5869H220.77V76.5869ZM202.03 77.5869V47.9639H200.03V77.5869H202.03ZM233.599 47.9639H234.599V46.9639H233.599V47.9639ZM222.186 47.9639V46.9639H221.186V47.9639H222.186ZM222.186 89H221.186V90H222.186V89ZM253.338 89V90H254.338V89H253.338ZM253.338 77.5869H254.338V76.5869H253.338V77.5869ZM233.599 77.5869H232.599V78.5869H233.599V77.5869ZM233.599 46.9639H222.186V48.9639H233.599V46.9639ZM221.186 47.9639V89H223.186V47.9639H221.186ZM222.186 90H253.338V88H222.186V90ZM254.338 89V77.5869H252.338V89H254.338ZM253.338 76.5869H233.599V78.5869H253.338V76.5869ZM234.599 77.5869V47.9639H232.599V77.5869H234.599ZM302.898 85.9414L303.625 86.628L303.629 86.6244L302.898 85.9414ZM303.975 73.1973L304.803 72.6364L304.755 72.5659L304.696 72.5045L303.975 73.1973ZM290.692 59.3486V58.3486H288.557L289.924 59.9888L290.692 59.3486ZM305.192 59.3486V60.3486H306.192V59.3486H305.192ZM305.192 47.9639H306.192V46.9639H305.192V47.9639ZM280.554 51.0225L279.823 50.3394L279.823 50.3397L280.554 51.0225ZM279.534 63.7949L278.761 64.4292L278.786 64.4591L278.812 64.4871L279.534 63.7949ZM292.76 77.5869V78.5869H295.104L293.482 76.8948L292.76 77.5869ZM266.167 77.5869H265.167V78.5869H266.167V77.5869ZM266.167 47.9639H267.167V46.9639H266.167V47.9639ZM254.754 47.9639V46.9639H253.754V47.9639H254.754ZM254.754 89H253.754V90H254.754V89ZM296.017 90C298.97 90 301.522 88.8551 303.625 86.628L302.171 85.2548C300.423 87.1058 298.387 88 296.017 88V90ZM303.629 86.6244C305.706 84.4028 306.759 81.7618 306.759 78.748H304.759C304.759 81.2473 303.904 83.4019 302.168 85.2584L303.629 86.6244ZM306.759 78.748C306.759 76.5853 306.094 74.5421 304.803 72.6364L303.147 73.7581C304.235 75.3641 304.759 77.0215 304.759 78.748H306.759ZM304.696 72.5045C300.316 67.945 297.019 64.5114 294.805 62.2036C293.699 61.0496 292.863 60.1774 292.298 59.5868C291.707 58.9683 291.455 58.7019 291.461 58.7084L289.924 59.9888C289.977 60.052 290.314 60.4051 290.853 60.969C291.419 61.5607 292.255 62.4338 293.362 63.5879C295.576 65.8964 298.873 69.3304 303.253 73.89L304.696 72.5045ZM290.692 60.3486H305.192V58.3486H290.692V60.3486ZM306.192 59.3486V47.9639H304.192V59.3486H306.192ZM305.192 46.9639H287.436V48.9639H305.192V46.9639ZM287.436 46.9639C284.465 46.9639 281.911 48.1076 279.823 50.3394L281.284 51.7055C283.011 49.8592 285.044 48.9639 287.436 48.9639V46.9639ZM279.823 50.3397C277.761 52.5458 276.722 55.188 276.722 58.2158H278.722C278.722 55.6929 279.57 53.5395 281.284 51.7053L279.823 50.3397ZM276.722 58.2158C276.722 60.6505 277.381 62.7469 278.761 64.4292L280.307 63.1606C279.271 61.8977 278.722 60.2747 278.722 58.2158H276.722ZM278.812 64.4871L292.038 78.279L293.482 76.8948L280.256 63.1028L278.812 64.4871ZM292.76 76.5869H266.167V78.5869H292.76V76.5869ZM267.167 77.5869V47.9639H265.167V77.5869H267.167ZM266.167 46.9639H254.754V48.9639H266.167V46.9639ZM253.754 47.9639V89H255.754V47.9639H253.754ZM254.754 90H296.017V88H254.754V90Z" fill="#CEB7FF"/>
</g>
<g filter="url(#filter1_d_21_3756)">
<path d="M5.5 4.5H306.5V19.5H5.5V4.5Z" stroke="#CEB7FF" shape-rendering="crispEdges"/>
</g>
<g filter="url(#filter2_d_21_3756)">
<path d="M5.5 112.5H306.5V127.5H5.5V112.5Z" stroke="#CEB7FF" shape-rendering="crispEdges"/>
</g>
<defs>
<filter id="filter0_d_21_3756" x="0.101562" y="41.9639" width="311.657" height="53.7678" filterUnits="userSpaceOnUse" color-interpolation-filters="sRGB">
<feFlood flood-opacity="0" result="BackgroundImageFix"/>
<feColorMatrix in="SourceAlpha" type="matrix" values="0 0 0 0 0 0 0 0 0 0 0 0 0 0 0 0 0 0 127 0" result="hardAlpha"/>
<feOffset/>
<feGaussianBlur stdDeviation="2.5"/>
<feComposite in2="hardAlpha" operator="out"/>
<feColorMatrix type="matrix" values="0 0 0 0 0.701961 0 0 0 0 0.466667 0 0 0 0 1 0 0 0 1 0"/>
<feBlend mode="normal" in2="BackgroundImageFix" result="effect1_dropShadow_21_3756"/>
<feBlend mode="normal" in="SourceGraphic" in2="effect1_dropShadow_21_3756" result="shape"/>
</filter>
<filter id="filter1_d_21_3756" x="1" y="0" width="310" height="24" filterUnits="userSpaceOnUse" color-interpolation-filters="sRGB">
<feFlood flood-opacity="0" result="BackgroundImageFix"/>
<feColorMatrix in="SourceAlpha" type="matrix" values="0 0 0 0 0 0 0 0 0 0 0 0 0 0 0 0 0 0 127 0" result="hardAlpha"/>
<feOffset/>
<feGaussianBlur stdDeviation="2"/>
<feComposite in2="hardAlpha" operator="out"/>
<feColorMatrix type="matrix" values="0 0 0 0 0.807843 0 0 0 0 0.717647 0 0 0 0 1 0 0 0 1 0"/>
<feBlend mode="normal" in2="BackgroundImageFix" result="effect1_dropShadow_21_3756"/>
<feBlend mode="normal" in="SourceGraphic" in2="effect1_dropShadow_21_3756" result="shape"/>
</filter>
<filter id="filter2_d_21_3756" x="1" y="108" width="310" height="24" filterUnits="userSpaceOnUse" color-interpolation-filters="sRGB">
<feFlood flood-opacity="0" result="BackgroundImageFix"/>
<feColorMatrix in="SourceAlpha" type="matrix" values="0 0 0 0 0 0 0 0 0 0 0 0 0 0 0 0 0 0 127 0" result="hardAlpha"/>
<feOffset/>
<feGaussianBlur stdDeviation="2"/>
<feComposite in2="hardAlpha" operator="out"/>
<feColorMatrix type="matrix" values="0 0 0 0 0.807843 0 0 0 0 0.717647 0 0 0 0 1 0 0 0 1 0"/>
<feBlend mode="normal" in2="BackgroundImageFix" result="effect1_dropShadow_21_3756"/>
<feBlend mode="normal" in="SourceGraphic" in2="effect1_dropShadow_21_3756" result="shape"/>
</filter>
</defs>
</svg>
